<?xml version="1.0" standalone="yes"?>

<svg version="1.1" viewBox="0.0 0.0 960.0 540.0" fill="none" stroke="none" stroke-linecap="square" stroke-miterlimit="10" xmlns="http://www.w3.org/2000/svg" xmlns:xlink="http://www.w3.org/1999/xlink"><clipPath id="p.0"><path d="m0 0l960.0 0l0 540.0l-960.0 0l0 -540.0z" clip-rule="nonzero"></path></clipPath><g clip-path="url(#p.0)"><path fill="#000000" fill-opacity="0.0" d="m0 0l960.0 0l0 540.0l-960.0 0z" fill-rule="nonzero"></path><path fill="#f3b41b" d="m501.19827 256.0025l294.1102 0l0 49.66931l-294.1102 0z" fill-rule="nonzero"></path><path fill="#333333" d="m610.3372 295.23715l0 -18.6875l-7.53125 18.6875l-2.46875 0l-7.53125 -18.6875l0 18.6875l-5.671875 0l0 -26.6875l7.953125 0l6.484375 16.125l6.484375 -16.125l8.0 0l0 26.6875l-5.71875 0zm23.637451 0.484375q-6.078125 0 -10.0 -3.875q-3.921875 -3.890625 -3.921875 -9.921875q0 -6.0 3.921875 -9.90625q3.921875 -3.90625 10.0 -3.90625q6.125 0 10.03125 3.90625q3.921875 3.90625 3.921875 9.90625q0 6.0 -3.921875 9.90625q-3.90625 3.890625 -10.03125 3.890625zm0 -5.046875q3.515625 0 5.8125 -2.421875q2.3125 -2.421875 2.3125 -6.328125q0 -3.8125 -2.234375 -6.28125q-2.21875 -2.484375 -5.890625 -2.484375q-3.6875 0 -5.890625 2.484375q-2.1875 2.46875 -2.1875 6.28125q0 3.828125 2.234375 6.296875q2.25 2.453125 5.84375 2.453125zm17.95935 4.5625l0 -26.6875l10.515625 0q6.328125 0 10.234375 3.6875q3.921875 3.6875 3.921875 9.6875q0 5.953125 -3.921875 9.640625q-3.90625 3.671875 -10.234375 3.671875l-10.515625 0zm10.515625 -5.0q3.71875 0 6.03125 -2.34375q2.328125 -2.34375 2.328125 -5.96875q0 -3.8125 -2.21875 -6.09375q-2.21875 -2.28125 -6.140625 -2.28125l-4.84375 0l0 16.6875l4.84375 0zm18.204346 5.0l0 -26.6875l18.875 0l0 5.0l-13.203125 0l0 5.640625l12.921875 0l0 5.0l-12.921875 0l0 6.046875l13.203125 0l0 5.0l-18.875 0zm23.319946 0l0 -26.6875l5.671875 0l0 21.6875l11.28125 0l0 5.0l-16.953125 0z" fill-rule="nonzero"></path><path fill="#f3b41b" d="m165.74835 256.0025l294.11023 0l0 49.66931l-294.11023 0z" fill-rule="nonzero"></path><path fill="#333333" d="m199.50607 295.72153q-6.203125 0 -10.203125 -3.9375q-4.0 -3.953125 -4.0 -9.859375q0 -3.921875 1.859375 -7.125q1.859375 -3.203125 5.140625 -4.9375q3.28125 -1.75 7.203125 -1.75q7.359375 0 11.15625 6.53125l-4.875 2.390625q-0.84375 -1.640625 -2.53125 -2.75q-1.671875 -1.125 -3.75 -1.125q-3.640625 0 -6.0 2.5q-2.359375 2.5 -2.359375 6.265625q0 3.875 2.390625 6.3125q2.40625 2.4375 5.96875 2.4375q2.078125 0 3.75 -1.09375q1.6875 -1.109375 2.53125 -2.78125l4.875 2.359375q-3.796875 6.5625 -11.15625 6.5625zm27.19873 0q-6.078125 0 -10.0 -3.875q-3.921875 -3.890625 -3.921875 -9.921875q0 -6.0 3.921875 -9.90625q3.921875 -3.90625 10.0 -3.90625q6.125 0 10.03125 3.90625q3.921875 3.90625 3.921875 9.90625q0 6.0 -3.921875 9.90625q-3.90625 3.890625 -10.03125 3.890625zm0 -5.046875q3.515625 0 5.8125 -2.421875q2.3125 -2.421875 2.3125 -6.328125q0 -3.8125 -2.234375 -6.28125q-2.21875 -2.484375 -5.890625 -2.484375q-3.6875 0 -5.890625 2.484375q-2.1875 2.46875 -2.1875 6.28125q0 3.828125 2.234375 6.296875q2.25 2.453125 5.84375 2.453125zm36.3656 4.5625l-12.734375 -17.40625l0 17.40625l-5.671875 0l0 -26.6875l5.84375 0l12.359375 16.765625l0 -16.765625l5.671875 0l0 26.6875l-5.46875 0zm16.909973 0l0 -21.6875l-7.796875 0l0 -5.0l21.28125 0l0 5.0l-7.765625 0l0 21.6875l-5.71875 0zm32.201843 0l-5.234375 -9.484375l-4.171875 0l0 9.484375l-5.671875 0l0 -26.6875l12.484375 0q4.078125 0 6.515625 2.421875q2.4375 2.421875 2.4375 6.1875q0 3.125 -1.65625 5.25q-1.65625 2.109375 -4.1875 2.671875l6.0 10.15625l-6.515625 0zm-3.4375 -14.484375q1.71875 0 2.859375 -0.953125q1.140625 -0.96875 1.140625 -2.640625q0 -1.6875 -1.140625 -2.640625q-1.140625 -0.96875 -2.859375 -0.96875l-5.96875 0l0 7.203125l5.96875 0zm26.71997 14.96875q-6.078125 0 -10.0 -3.875q-3.921875 -3.890625 -3.921875 -9.921875q0 -6.0 3.921875 -9.90625q3.921875 -3.90625 10.0 -3.90625q6.125 0 10.03125 3.90625q3.921875 3.90625 3.921875 9.90625q0 6.0 -3.921875 9.90625q-3.90625 3.890625 -10.03125 3.890625zm0 -5.046875q3.515625 0 5.8125 -2.421875q2.3125 -2.421875 2.3125 -6.328125q0 -3.8125 -2.234375 -6.28125q-2.21875 -2.484375 -5.890625 -2.484375q-3.6875 0 -5.890625 2.484375q-2.1875 2.46875 -2.1875 6.28125q0 3.828125 2.234375 6.296875q2.25 2.453125 5.84375 2.453125zm17.95935 4.5625l0 -26.6875l5.671875 0l0 21.6875l11.28125 0l0 5.0l-16.953125 0zm20.919983 0l0 -26.6875l5.671875 0l0 21.6875l11.28125 0l0 5.0l-16.953125 0zm20.919983 0l0 -26.6875l18.875 0l0 5.0l-13.203125 0l0 5.640625l12.921875 0l0 5.0l-12.921875 0l0 6.046875l13.203125 0l0 5.0l-18.875 0zm38.3981 0l-5.234375 -9.484375l-4.171875 0l0 9.484375l-5.671875 0l0 -26.6875l12.484375 0q4.078125 0 6.515625 2.421875q2.4375 2.421875 2.4375 6.1875q0 3.125 -1.65625 5.25q-1.65625 2.109375 -4.1875 2.671875l6.0 10.15625l-6.515625 0zm-3.4375 -14.484375q1.71875 0 2.859375 -0.953125q1.140625 -0.96875 1.140625 -2.640625q0 -1.6875 -1.140625 -2.640625q-1.140625 -0.96875 -2.859375 -0.96875l-5.96875 0l0 7.203125l5.96875 0z" fill-rule="nonzero"></path><path fill="#f3f3f3" d="m380.96063 76.34908l198.07874 0l0 49.66929l-198.07874 0z" fill-rule="nonzero"></path><path fill="#333333" d="m443.50754 116.0681q-5.6875 0 -8.875 -2.921875q-3.171875 -2.921875 -3.171875 -8.203125l0 -16.046875l5.765625 0l0 15.84375q0 2.796875 1.578125 4.546875q1.578125 1.734375 4.703125 1.734375q3.109375 0 4.671875 -1.734375q1.5625 -1.75 1.5625 -4.546875l0 -15.84375l5.796875 0l0 16.0q0 5.28125 -3.125 8.234375q-3.109375 2.9375 -8.90625 2.9375zm26.757477 0q-7.125 0 -11.28125 -4.25l3.078125 -4.3125q1.390625 1.484375 3.546875 2.546875q2.171875 1.046875 4.9375 1.046875q2.359375 0 3.5 -0.890625q1.140625 -0.90625 1.140625 -2.0625q0 -1.203125 -1.328125 -1.875q-1.3125 -0.6875 -6.359375 -1.890625q-7.671875 -1.84375 -7.671875 -7.75q0 -3.453125 2.765625 -5.78125q2.78125 -2.34375 7.34375 -2.34375q6.359375 0 10.40625 3.71875l-3.15625 4.15625q-3.171875 -2.921875 -7.765625 -2.921875q-1.84375 0 -2.828125 0.75q-0.96875 0.734375 -0.96875 1.9375q0 1.03125 1.140625 1.625q1.140625 0.578125 2.859375 0.96875l3.671875 0.921875q7.640625 1.96875 7.640625 7.84375q0 3.953125 -2.84375 6.265625q-2.828125 2.296875 -7.828125 2.296875zm14.5155945 -0.484375l0 -26.6875l18.875 0l0 5.0l-13.203125 0l0 5.640625l12.921875 0l0 5.0l-12.921875 0l0 6.046875l13.203125 0l0 5.0l-18.875 0zm38.3981 0l-5.234375 -9.484375l-4.171875 0l0 9.484375l-5.671875 0l0 -26.6875l12.484375 0q4.078125 0 6.515625 2.421875q2.4375 2.421875 2.4375 6.1875q0 3.125 -1.65625 5.25q-1.65625 2.109375 -4.1875 2.671875l6.0 10.15625l-6.515625 0zm-3.4375 -14.484375q1.71875 0 2.859375 -0.953125q1.140625 -0.96875 1.140625 -2.640625q0 -1.6875 -1.140625 -2.640625q-1.140625 -0.96875 -2.859375 -0.96875l-5.96875 0l0 7.203125l5.96875 0z" fill-rule="nonzero"></path><path fill="#f3b41b" d="m332.9448 164.36389l294.11026 0l0 49.66928l-294.11026 0z" fill-rule="nonzero"></path><path fill="#333333" d="m440.94495 203.59853l-10.328125 -26.6875l6.484375 0l7.40625 20.53125l7.359375 -20.53125l6.46875 0l-10.28125 26.6875l-7.109375 0zm19.87561 0l0 -26.6875l5.671875 0l0 26.6875l-5.671875 0zm10.959991 0l0 -26.6875l18.875 0l0 5.0l-13.203125 0l0 5.640625l12.921875 0l0 5.0l-12.921875 0l0 6.046875l13.203125 0l0 5.0l-18.875 0zm43.726227 0l-4.6875 -18.3125l-4.640625 18.3125l-6.03125 0l-7.640625 -26.6875l6.359375 0l4.671875 19.28125l5.078125 -19.28125l4.4375 0l5.046875 19.28125l4.640625 -19.28125l6.40625 0l-7.609375 26.6875l-6.03125 0z" fill-rule="nonzero"></path><path fill="#000000" fill-opacity="0.0" d="m327.96292 139.35655l1.6235962 -18.307266l0 0c38.489166 -24.885002 47.790527 -53.918213 21.488403 -67.0739c-26.302094 -13.155689 -79.59979 -6.1284065 -123.130875 16.234756c-43.531067 22.36316 -63.049133 52.743446 -45.091568 70.18596c17.957565 17.44252 67.513824 16.238876 114.48721 -2.7807007z" fill-rule="nonzero"></path><path stroke="#f3b41b" stroke-width="3.0" stroke-linejoin="round" stroke-linecap="butt" stroke-dasharray="12.0,9.0" d="m327.96292 139.35655l1.6235962 -18.307266l0 0c38.489166 -24.885002 47.790527 -53.918213 21.488403 -67.0739c-26.302094 -13.155689 -79.59979 -6.1284065 -123.130875 16.234756c-43.531067 22.36316 -63.049133 52.743446 -45.091568 70.18596c17.957565 17.44252 67.513824 16.238876 114.48721 -2.7807007z" fill-rule="nonzero"></path><path fill="#f3b41b" d="m231.87105 105.83903q-0.25839233 -0.32494354 -0.8247986 -1.0240173q-0.5664215 -0.69906616 -1.2867432 -1.5604935q-0.7105255 -0.8812332 -1.5203094 -1.8608475q-0.7949829 -0.9846115 -1.5153046 -1.8460388q-0.71051025 -0.88124084 -1.2769318 -1.580307q-0.5664215 -0.69906616 -0.84962463 -1.0486069q-0.23791504 -0.1669159 -0.4514618 -0.40805817q-0.20376587 -0.2609558 -0.29890442 -0.54216766q-0.10014343 -0.2960205 -0.056854248 -0.55810547q0.05809021 -0.26708984 0.304245 -0.4658661q0.2664032 -0.090156555 0.53871155 0.03212738q0.28208923 0.10247803 0.4708252 0.31903076l5.365036 6.399109q-0.1053772 -0.3602295 -0.30723572 -1.2981415q-0.2068634 -0.952713 -0.46357727 -2.0040283q-0.2419281 -1.0563202 -0.45858765 -1.9892197q-0.22166443 -0.94770813 -0.28263855 -1.3229599q-0.07032776 -0.25662994 -0.15089417 -0.59226227q-0.080566406 -0.33563995 -0.091918945 -0.661705q-0.01133728 -0.3260727 0.09114075 -0.60819244q0.11228943 -0.30192566 0.45269775 -0.41712952q0.25160217 -0.08515167 0.39004517 -0.06601715q0.13342285 0.004333496 0.3665619 0.20585632l7.564499 6.562004l-2.8542938 -8.436478q0.7252197 -0.24543762 1.131607 0.029418945q0.4013977 0.2600479 0.64086914 0.77285004q0.24926758 0.49298096 0.38056946 1.1248627q0.126297 0.61707306 0.30134583 1.0856934q0.06008911 0.1776123 0.2849884 0.7448273q0.21987915 0.55241394 0.50486755 1.2972412q0.29978943 0.73981476 0.60502625 1.5932541q0.32003784 0.84843445 0.60502625 1.5932541q0.29478455 0.72502136 0.5196686 1.2922363q0.22489929 0.56721497 0.2849884 0.74481964q0.33306885 0.44813538 0.19573975 0.6760559q-0.1275177 0.20811462 -0.4681549 0.27391052q-0.3406372 0.06578827 -0.7413635 -0.046028137q-0.40571594 -0.12661743 -0.58465576 -0.3629837l-8.030563 -6.915642q1.1141205 3.8293152 1.7928162 6.4203644q0.67367554 2.5762482 1.1065521 4.343231q0.021133423 0.30626678 -0.14645386 0.3959732q-0.17259216 0.074905396 -0.39505005 0.051216125q-0.2076416 -0.028701782 -0.44033813 -0.13140106q-0.23768616 -0.117507935 -0.40116882 -0.21063995zm15.552582 -16.694794q-1.0526123 -0.039657593 -1.6859131 0.8674774q-0.63331604 0.90714264 -1.0321503 2.312271q-0.3840332 1.4001236 -0.603714 3.091034q-0.20487976 1.6858978 -0.3710327 3.1937332q-0.15635681 1.4880295 -0.32929993 2.5857697q-0.16314697 1.0779419 -0.52770996 1.3167801q-0.31080627 0.10518646 -0.508667 0.056678772q-0.2028656 -0.063308716 -0.35809326 -0.5221329l-5.938965 -17.553802q-0.07510376 -0.22201538 0.10227966 -0.33153534q0.17236328 -0.124313354 0.40438843 -0.16984558q0.22702026 -0.060333252 0.4494629 -0.036643982q0.23725891 0.018684387 0.31671143 0.10726166l5.082779 13.950607q0.13098145 -0.5391922 0.09237671 -1.4333801q-0.038604736 -0.8941879 -0.0284729 -1.9368362q0.005126953 -1.0574493 0.11886597 -2.1351547q0.12852478 -1.0827179 0.5243683 -2.057953q0.39582825 -0.97522736 1.1930542 -1.6904068q0.7922058 -0.72998047 2.1051025 -1.0423355q0.85842896 -0.29051208 1.5617218 0.08181q0.713089 0.35250854 1.0233307 1.2207565l3.6216888 9.875816q0.035064697 0.10360718 0.055755615 0.3110428q0.03048706 0.1876297 -0.087249756 0.3759308q-0.11273193 0.20310974 -0.39872742 0.33288574q-0.26617432 0.13957214 -0.77027893 0.11222839l-4.011612 -10.882057zm13.376968 6.904297q-0.33874512 -0.6111679 -0.7330017 -1.483963q-0.39926147 -0.88760376 -0.8183594 -1.7849884q-0.42407227 -0.9121933 -0.83270264 -1.68116q-0.41360474 -0.7837677 -0.87008667 -1.2066345q-0.3965149 3.0209122 -0.8675842 4.846382q-0.4612732 1.8056564 -0.9859619 2.6925354q-0.524704 0.88687897 -1.0329132 1.0423737q-0.49842834 0.13568878 -0.9692688 -0.18334198q-0.4708252 -0.31902313 -0.8391571 -0.92017365q-0.35855103 -0.62096405 -0.5982361 -1.1831665q-0.18528748 -0.5476303 -0.28398132 -1.6194305q-0.088912964 -1.0916061 -0.060302734 -2.420929q0.02861023 -1.3293228 0.1902008 -2.7531433q0.1763916 -1.4288177 0.506897 -2.645874q0.3403015 -1.2368622 0.8451996 -2.1335373q0.5048828 -0.8966675 1.2301025 -1.1420975q1.0253448 -0.52845764 1.7438812 -0.062324524q0.7333374 0.46112823 0.9135132 2.066208q0.55581665 1.6428986 1.0896301 2.7818832q0.5288086 1.1241913 1.0571594 2.1495514q0.52334595 1.0105667 1.0571594 2.1495514q0.5436096 1.1191788 1.0994263 2.7620773q0.10015869 0.29601288 0.11605835 0.53806305q0.010925293 0.22724915 -0.55148315 0.41757965q-0.07400513 0.025047302 -0.23248291 -0.05329132q-0.14868164 -0.09814453 -0.17370605 -0.17214966zm-5.122528 -10.704033q-0.41641235 -0.304451 -0.77986145 0.18144989q-0.3634491 0.48590088 -0.6408844 1.4210587q-0.26763916 0.91535187 -0.4597168 2.1515427q-0.19207764 1.2361832 -0.30014038 2.4769287q-0.11306763 1.2259445 -0.14277649 2.3082123q-0.014923096 1.0772552 0.062194824 1.7439728q0.30545044 0.9028473 0.62672424 0.9260864q0.31625366 0.00843811 0.5806732 -0.5264206q0.2644043 -0.5348587 0.51724243 -1.4452057q0.26261902 -0.9301529 0.4656067 -1.9390945q0.19798279 -1.023735 0.356781 -1.9682388q0.17359924 -0.94950867 0.24015808 -1.5328827q0.061523438 -0.5981674 0.029724121 -1.0822678q-0.022033691 -0.50390625 -0.088256836 -0.94337463q-0.0513916 -0.44447327 -0.17681885 -0.86390686q-0.13041687 -0.43423462 -0.2906494 -0.9078598zm4.555664 -0.27159882q-0.19174194 0.21334839 -0.36865234 0.42168427q-0.1621399 0.203331 -0.32928467 0.39186096q-0.15234375 0.18352509 -0.34454346 0.29804993q-0.17736816 0.10951996 -0.4143982 0.14024353q-0.14801025 0.050094604 -0.31170654 -0.09246063q-0.16870117 -0.15734863 -0.30801392 -0.37412262q-0.13934326 -0.21678162 -0.24905396 -0.443573q-0.10971069 -0.22679901 -0.1251831 -0.37002563l1.9319458 -2.1879044l-2.0152588 -6.4440536q-0.06576538 -0.34064484 0.31448364 -0.38685608q0.37524414 -0.06100464 0.78030396 -0.08261871q0.044403076 -0.015029907 0.17782593 -0.010696411q0.12841797 -0.010467529 0.17782593 -0.010696411q0.1859436 0.6958618 0.37734985 1.5053558q0.20620728 0.8044815 0.41241455 1.6089554q0.22097778 0.7994766 0.46157837 1.5593262q0.2553711 0.75484467 0.5296936 1.3218307l3.3889465 -2.3180923q0.098602295 -0.049865723 0.21289062 0.09291077q0.11428833 0.14277649 0.24859619 0.34474945q0.14910889 0.19696808 0.23904419 0.41397095q0.10470581 0.21199799 0.10470581 0.21199799l-3.6368103 3.2432404q0.07513428 0.22200775 0.39517212 1.0704422q0.32983398 0.8286209 0.7698364 1.9828644q0.44976807 1.1344299 0.94485474 2.451477q0.5098877 1.3120422 0.94488525 2.4514847q0.43496704 1.1394348 0.7550049 1.9878693q0.32006836 0.8484268 0.39517212 1.0704422q0.19616699 0.77487946 -0.18862915 0.9051056q-0.38482666 0.13023376 -0.95401 -0.089523315l-4.316986 -10.663239zm18.148102 -6.141777q-0.19174194 0.21334839 -0.36868286 0.4216919q-0.1621399 0.203331 -0.32928467 0.39186096q-0.15234375 0.18352509 -0.34454346 0.29804993q-0.17736816 0.10951996 -0.4143982 0.14024353q-0.14801025 0.050094604 -0.31170654 -0.09246063q-0.16870117 -0.15734863 -0.30801392 -0.37412262q-0.13931274 -0.21678162 -0.24905396 -0.443573q-0.10971069 -0.22679901 -0.1251831 -0.37002563l1.9319763 -2.1879044l-2.0152588 -6.4440536q-0.06576538 -0.34064484 0.31448364 -0.38685608q0.37521362 -0.061012268 0.78030396 -0.08262634q0.044403076 -0.015022278 0.17782593 -0.010688782q0.12841797 -0.010475159 0.17782593 -0.010696411q0.1859436 0.6958618 0.37734985 1.5053558q0.20617676 0.8044739 0.41238403 1.6089554q0.2210083 0.7994766 0.46157837 1.5593262q0.2554016 0.75484467 0.5296936 1.3218307l3.388977 -2.3180923q0.09857178 -0.049865723 0.2128601 0.09291077q0.11428833 0.14276886 0.24859619 0.34474945q0.1491394 0.19696808 0.23904419 0.41397095q0.10470581 0.21199799 0.10470581 0.21199799l-3.6367798 3.2432404q0.07510376 0.22200775 0.3951416 1.0704422q0.32983398 0.8286209 0.7698364 1.9828644q0.44979858 1.1344299 0.94485474 2.451477q0.5098877 1.3120422 0.94488525 2.451477q0.43499756 1.1394424 0.7550354 1.9878769q0.32003784 0.8484268 0.3951416 1.0704422q0.19619751 0.77487946 -0.18862915 0.9051056q-0.38479614 0.13023376 -0.95401 -0.089523315l-4.3169556 -10.663246zm15.003784 -5.3415833q-1.0526123 -0.039665222 -1.6859131 0.8674698q-0.6333313 0.90714264 -1.0321655 2.3122787q-0.3840332 1.4001236 -0.60369873 3.0910263q-0.20489502 1.6858978 -0.3710327 3.1937332q-0.15637207 1.4880295 -0.3293152 2.5857773q-0.16314697 1.0779343 -0.52770996 1.3167801q-0.31079102 0.10517883 -0.508667 0.056671143q-0.20285034 -0.063308716 -0.35809326 -0.5221329l-5.938965 -17.553802q-0.07510376 -0.22201538 0.10229492 -0.3315277q0.17236328 -0.124320984 0.40438843 -0.16985321q0.22702026 -0.060333252 0.4494629 -0.036643982q0.23724365 0.018684387 0.31671143 0.10726166l5.0827637 13.950615q0.13098145 -0.5391998 0.09237671 -1.4333878q-0.038604736 -0.8941879 -0.0284729 -1.9368286q0.005126953 -1.0574493 0.11886597 -2.1351624q0.12854004 -1.0827179 0.52438354 -2.057953q0.395813 -0.97522736 1.1930542 -1.6904068q0.7922058 -0.72998047 2.1051025 -1.0423355q0.85842896 -0.29051208 1.5617065 0.08181q0.71310425 0.35251617 1.023346 1.2207565l3.6216736 9.875816q0.035064697 0.10360718 0.055755615 0.3110428q0.03048706 0.1876297 -0.087249756 0.3759308q-0.11273193 0.20310974 -0.39871216 0.33288574q-0.26617432 0.13957214 -0.7702942 0.11222839l-4.0115967 -10.88205zm5.405365 4.307022q-0.12319946 0.07467651 -0.35476685 0.21903229q-0.22180176 0.12454224 -0.5079956 0.20491028q-0.27642822 0.060554504 -0.52371216 0.012275696q-0.26705933 -0.05807495 -0.3722229 -0.36889648q-0.05508423 -0.16280365 -0.0061035156 -0.26185608q0.043945312 -0.113845825 0.17147827 -0.32196045q0.3973999 -0.6293564 0.5418396 -1.4700241q0.1444397 -0.8406677 0.19464111 -1.7649155q0.050201416 -0.9242401 0.12997437 -1.8584976q0.09460449 -0.9392624 0.35290527 -1.7359848q0.25326538 -0.81152344 0.8136902 -1.4465561q0.5751953 -0.64004517 1.6014404 -0.9708557q0.42922974 -0.14525604 1.017334 -0.113357544q0.58309937 0.017105103 1.1423035 0.20726013q0.5739746 0.18514252 1.0302429 0.55859375q0.47103882 0.36843872 0.6663208 0.9456711q0.1835022 0.15234375 -0.05630493 0.66238403q-0.23001099 0.49023438 -0.701416 1.1446304q-0.4763794 0.63959503 -1.1203613 1.3689041q-0.6292114 0.72428894 -1.2192078 1.3693466q-0.57522583 0.64004517 -1.0324707 1.1411972q-0.44747925 0.48134613 -0.5602112 0.6844559q-0.048065186 0.2966919 -0.0119018555 0.6473541q0.03616333 0.35066223 0.091918945 0.661705q0.06552124 0.29123688 0.13085938 0.53305817q0.06530762 0.24182129 0.1053772 0.3602295q0.1602478 0.47362518 0.3111267 1.0658875q0.16571045 0.58724976 0.42977905 1.0752258q0.25906372 0.47317505 0.6998291 0.70339966q0.4407959 0.23022461 1.2104187 -0.03023529q0.8287964 -0.2804947 1.4138184 -0.9403534q0.585022 -0.6598511 1.0063171 -1.4622574q0.4163208 -0.81720734 0.6841736 -1.6831436q0.27764893 -0.8857498 0.48675537 -1.6328354q0.20910645 -0.7470856 0.39950562 -1.256897q0.19039917 -0.50981903 0.41241455 -0.5849533q0.25161743 -0.08515167 0.5628662 -0.09151459q0.3260498 -0.011367798 0.43121338 0.2994461q0.1552124 0.4588318 -0.0044555664 1.2056885q-0.14489746 0.7418442 -0.4965515 1.6526413q-0.35665894 0.89598846 -0.87612915 1.847084q-0.5244751 0.9362869 -1.1286316 1.7345886q-0.58935547 0.7932892 -1.2290039 1.3891525q-0.6248474 0.5908661 -1.2020569 0.7862091q-1.1248169 0.38066864 -1.8873291 0.028388977q-0.7674866 -0.36708832 -1.2797241 -1.1009979q-0.5172119 -0.748703 -0.84750366 -1.6761475q-0.3204956 -0.947258 -0.6204834 -1.7364807zm2.3096924 -8.287125q-0.4144287 0.14024353 -0.74783325 0.71495056q-0.33340454 0.57470703 -0.54748535 1.3069916q-0.21914673 0.7174759 -0.27520752 1.4292755q-0.06112671 0.69699097 0.07409668 1.096611q0.38479614 -0.13022614 1.0000916 -0.6518707q0.61026 -0.536438 1.1606445 -1.2010803q0.55041504 -0.6646347 0.9081726 -1.3135757q0.3725891 -0.6539459 0.23239136 -1.068367q-0.08013916 -0.2368164 -0.3078308 -0.32471466q-0.2128601 -0.09291077 -0.4797058 -0.10157776q-0.2718811 -0.023460388 -0.5385132 0.017288208q-0.27163696 0.02594757 -0.4788208 0.096069336z" fill-rule="nonzero"></path><path fill="#f3b41b" d="m233.64093 136.51558q-0.0034484863 0.33106995 -0.22779846 0.9843445q-0.20954895 0.6482544 -0.55229187 1.3415985q-0.34776306 0.67852783 -0.7799835 1.2536926q-0.4322052 0.5751648 -0.8614197 0.7204132q-0.79922485 0.2704773 -1.5676117 -0.2942505q-0.75860596 -0.58454895 -1.4354095 -1.6586456q-0.66700745 -1.0939026 -1.2563477 -2.4945374q-0.5893402 -1.4006195 -1.0796356 -2.7522736q-0.48049927 -1.3714752 -0.8610687 -2.496338q-0.38058472 -1.1248627 -0.6498718 -1.6770477q0.0036621094 -0.281662 0.15144348 -0.38116455q0.14277649 -0.11430359 0.3795929 -0.19444275q0.19239807 -0.06512451 0.37522888 -0.06100464q0.17784119 -0.010696411 0.38136292 0.20083618q0.09013367 0.26641846 0.3252716 0.91264343q0.23513794 0.64624023 0.5549469 1.4452515q0.33462524 0.7940216 0.6794739 1.667038q0.35964966 0.8680115 0.65966797 1.6572418q0.31480408 0.78422546 0.55973816 1.4106445q0.25971985 0.6213989 0.3746643 0.91241455q0.08969116 0.16758728 0.25450134 0.55718994q0.1796112 0.38459778 0.41864014 0.7985687q0.23402405 0.39918518 0.48739624 0.70932007q0.2631836 0.29032898 0.49520874 0.24479675q0.37001038 -0.12521362 0.6446533 -0.58106995q0.27464294 -0.45584106 0.47439575 -1.0842896q0.21455383 -0.6334686 0.339859 -1.3356934q0.12030029 -0.71702576 0.18663025 -1.3498077q0.07611084 -0.6525879 0.05909729 -1.1416931q-0.007232666 -0.5089264 -0.047729492 -0.7261505q-0.095825195 -0.42944336 -0.31681824 -1.2289124q-0.21121216 -0.81929016 -0.4968567 -1.7123413q-0.27586365 -0.9128723 -0.5314636 -1.7171326q-0.25561523 -0.8042526 -0.40083313 -1.2334747l1.401474 -0.39182281q0.7008362 2.0227127 1.2122803 3.680626q0.50642395 1.6431274 1.006958 3.0737915q0.5153351 1.4256744 1.1634216 2.707428q0.66290283 1.2767639 1.6716614 2.5519257q-0.048965454 0.09906006 -0.22590637 0.3073883q-0.17193604 0.22314453 -0.2755432 0.25820923q-0.62161255 0.21037292 -0.9838257 -0.12892151q-0.34742737 -0.34429932 -0.59690857 -0.88668823q-0.24949646 -0.5424042 -0.48417664 -1.0898132q-0.21989441 -0.55241394 -0.6260681 -0.7778473zm6.264496 0.70066833q0.005004883 0.014801025 0.42764282 -0.49113464q0.43745422 -0.51094055 0.9824066 -1.2892151q0.55973816 -0.78326416 1.1140442 -1.6801605q0.5690918 -0.90190125 0.86221313 -1.6444244q0.30792236 -0.74754333 0.21711731 -1.1621857q-0.09580994 -0.42945862 -0.8661041 -0.31723022q-0.94288635 0.18713379 -1.5144196 0.54551697q-0.55674744 0.35336304 -0.9898529 0.73088074q-0.42330933 0.35769653 -0.8072357 0.6855774q-0.36912537 0.32286072 -0.92196655 0.443985q-1.0952301 0.37065125 -1.7399902 -0.16993713q-0.649765 -0.55540466 -1.0453644 -1.7246704q-0.39559937 -1.1692657 -0.23812866 -2.4102325q0.17227173 -1.2459793 0.7259064 -2.2911072q0.56843567 -1.0501404 1.4936218 -1.8746109q0.92019653 -0.83927155 2.0450287 -1.2199402q0.44400024 -0.15026855 0.7946472 -0.18645477q0.35064697 -0.036193848 0.52090454 0.4670334q0.12019348 0.3552246 -0.08546448 0.771225q-0.19084167 0.41099548 -0.56085205 0.53621674q-0.02960205 0.010017395 -0.143219 0.0154800415q-0.10383606 -0.014350891 -0.23246765 -0.05329132q-0.12864685 -0.03894806 -0.2422638 -0.033485413q-0.1038208 -0.014350891 -0.13342285 -0.004333496q-0.87934875 0.033668518 -1.4789276 0.74794006q-0.589798 0.69447327 -0.92141724 1.6644669q-0.32183838 0.9501953 -0.3765869 1.9584503q-0.054763794 1.0082703 0.18058777 1.7039032q0.09515381 0.28121948 0.25382996 0.40896606q0.17349243 0.1227417 0.39093018 0.13162231q0.217453 0.008895874 0.45925903 -0.05644226q0.24182129 -0.06535339 0.49342346 -0.15049744q0.48841858 -0.16529846 0.9563446 -0.48860168q0.4629364 -0.3381195 0.87145996 -0.6908264q0.41830444 -0.37249756 0.8862457 -0.69581604q0.46792603 -0.32331848 1.0155487 -0.5086365q0.25160217 -0.0851593 0.59768677 -0.037322998q0.3410797 0.03303528 0.68281555 0.21429443q0.33674622 0.16645813 0.6295166 0.44677734q0.29278564 0.2803192 0.4427948 0.67492676q0.26316833 0.29032898 0.22166443 0.94770813q-0.041519165 0.65737915 -0.2947998 1.4688873q-0.25328064 0.81152344 -0.7087555 1.707962q-0.44569397 0.87664795 -0.94122314 1.6546783q-0.4857483 0.7582245 -1.0268097 1.3042297q-0.53604126 0.56082153 -0.98506165 0.6962738q-0.50320435 0.17030334 -0.6971741 -0.110458374q-0.18894958 -0.2659607 -0.3141327 -0.6359863zm6.300827 -7.7408447q-0.123184204 0.07467651 -0.3547516 0.21903992q-0.2217865 0.12454224 -0.50801086 0.20491028q-0.27641296 0.060546875 -0.52368164 0.012268066q-0.26707458 -0.05807495 -0.37223816 -0.36889648q-0.05508423 -0.16279602 -0.0061187744 -0.26185608q0.04396057 -0.113845825 0.17149353 -0.32196045q0.39738464 -0.62934875 0.54182434 -1.4700241q0.14445496 -0.8406677 0.19465637 -1.7649078q0.050186157 -0.9242401 0.12997437 -1.8584976q0.09460449 -0.93927 0.35289 -1.7359848q0.25328064 -0.81152344 0.8136902 -1.4465637q0.57522583 -0.64004517 1.6014557 -0.9708557q0.42921448 -0.14525604 1.017334 -0.113349915q0.5831146 0.017097473 1.1423035 0.2072525q0.5739746 0.18515015 1.0302277 0.5586014q0.47105408 0.36843872 0.6663513 0.9456711q0.1835022 0.15234375 -0.05632019 0.66238403q-0.23001099 0.49023438 -0.70140076 1.1446304q-0.4764099 0.63959503 -1.1203918 1.3688965q-0.6291809 0.72429657 -1.2192078 1.3693542q-0.5752106 0.64004517 -1.0324707 1.1411972q-0.447464 0.48134613 -0.5601959 0.68444824q-0.048065186 0.2966919 -0.0119018555 0.64736176q0.03616333 0.35066223 0.09190369 0.6616974q0.06555176 0.2912445 0.13087463 0.5330658q0.06530762 0.24182129 0.1053772 0.3602295q0.16023254 0.47361755 0.3111267 1.0658875q0.16569519 0.58724976 0.4297638 1.0752258q0.25906372 0.47317505 0.69984436 0.70339966q0.44078064 0.23022461 1.2104034 -0.03024292q0.8288269 -0.28048706 1.4138336 -0.9403534q0.5850067 -0.6598511 1.0063171 -1.4622498q0.4163208 -0.81721497 0.6841736 -1.6831512q0.27764893 -0.8857498 0.48675537 -1.6328278q0.20910645 -0.7470856 0.39950562 -1.2569046q0.19039917 -0.5098114 0.41241455 -0.5849457q0.25160217 -0.08515167 0.56285095 -0.09151459q0.32606506 -0.011375427 0.43121338 0.2994461q0.15524292 0.45882416 -0.0044555664 1.2056808q-0.14489746 0.7418518 -0.4965515 1.6526489q-0.35665894 0.89598083 -0.87612915 1.8470764q-0.52445984 0.93629456 -1.1286163 1.7345886q-0.58935547 0.7932892 -1.2290039 1.3891602q-0.62483215 0.5908661 -1.2020569 0.7862091q-1.1248322 0.38067627 -1.8873291 0.028381348q-0.76750183 -0.3670807 -1.2797241 -1.1009979q-0.5172272 -0.748703 -0.84750366 -1.6761475q-0.32048035 -0.94725037 -0.62049866 -1.7364807zm2.3096924 -8.287125q-0.41441345 0.14025116 -0.74780273 0.7149582q-0.33340454 0.57470703 -0.54751587 1.306984q-0.21911621 0.7174835 -0.27520752 1.4292755q-0.06109619 0.6969986 0.07411194 1.0966187q0.3848114 -0.13023376 1.0000763 -0.6518707q0.61027527 -0.536438 1.160675 -1.2010803q0.5503998 -0.66464233 0.9081726 -1.3135757q0.37257385 -0.6539459 0.23236084 -1.068367q-0.0801239 -0.2368164 -0.3078003 -0.32471466q-0.21287537 -0.092918396 -0.47973633 -0.10157776q-0.2718506 -0.023468018 -0.53848267 0.017280579q-0.27163696 0.02594757 -0.47885132 0.096069336zm6.3848114 -2.045311l-0.070114136 -0.20720673q-0.085128784 -0.25161743 0.062438965 -0.40052795q0.15734863 -0.16872406 0.40896606 -0.2538681q0.2071991 -0.070129395 0.38502502 -0.080818176q0.18762207 -0.030509949 0.37634277 0.18604279q0.19918823 0.34497833 0.49853516 0.98596954q0.29434204 0.6261978 0.6683655 1.3903809q0.37399292 0.76418304 0.77804565 1.6171722q0.41885376 0.8479767 0.7928772 1.6121597q0.38378906 0.74437714 0.7125244 1.325943q0.34350586 0.57655334 0.6016846 0.8520889q-0.8852234 -2.372696 -1.2591248 -4.2091293q-0.37387085 -1.8364334 -0.11303711 -3.1618729q0.26086426 -1.3254471 1.2256775 -2.130333q0.9746094 -0.8246994 2.7321777 -1.1390839q0.7696228 -0.2604599 1.045044 0.55358887q0.11013794 0.32562256 -0.2789917 0.5892792q-0.379364 0.24385834 -0.89715576 0.46857452q-0.5079956 0.20491028 -0.9911804 0.43441772q-0.4881897 0.21469879 -0.6401062 0.49704742q-0.73757935 0.7939682 -0.7520447 1.970047q3.3569336E-4 1.1710739 0.33807373 2.656845q0.33270264 1.4709702 0.84436035 3.178299q0.50665283 1.6925278 0.826355 3.5638046q0.08514404 0.25160217 -0.07699585 0.4549408q-0.15234375 0.18351746 -0.44836426 0.2836914q-0.28121948 0.09516907 -0.587677 0.06692505q-0.29666138 -0.048049927 -0.5298157 -0.24958801l-5.651886 -10.85479zm27.421844 2.8274689q-0.025909424 -0.2716446 0.46136475 -0.6839981q0.49710083 -0.43215942 1.2606201 -0.9544754q0.7732849 -0.5421219 1.6943665 -1.183754q0.91607666 -0.6564255 1.7380981 -1.3470078q0.836853 -0.6956024 1.461029 -1.4346924q0.61917114 -0.7538986 0.7788696 -1.5007553q-0.1251831 -0.370018 -0.67871094 -0.3971405q-0.5585327 -0.041915894 -1.4176025 0.100357056q-0.8493042 0.12246704 -1.9103699 0.399086q-1.0660706 0.2618103 -2.2164001 0.4696579q-1.135498 0.20283508 -2.251648 0.31664276q-1.1161499 0.11380005 -2.0804138 -0.054740906q-0.9642334 -0.16853333 -1.6779785 -0.669281q-0.7187805 -0.5155487 -1.0442505 -1.4776077q-0.33050537 -0.9768524 -0.22680664 -2.0841599q0.10372925 -1.1073151 0.5086975 -2.2505875q0.40496826 -1.14328 1.0473938 -2.21846q0.65722656 -1.0801926 1.4535522 -1.9930191q0.8111267 -0.9178314 1.6777954 -1.5740356q0.8814697 -0.6612091 1.7398987 -0.9517212q0.22198486 -0.07513428 0.4685974 -0.17508698q0.24661255 -0.09994507 0.4392395 -0.11565399q0.20742798 -0.020713806 0.375885 0.08722687q0.18328857 0.10292816 0.28344727 0.39894867q0.24536133 0.7252426 -0.12307739 1.1963425q-0.36846924 0.47109985 -1.0492859 0.70150757l-1.2121887 -0.3650589q-0.56240845 0.19033813 -1.1478577 0.75136566q-0.5706482 0.5560303 -1.1007996 1.3292847q-0.53015137 0.7732544 -0.9706116 1.7140961q-0.4454651 0.9260483 -0.70809937 1.8562012q-0.25283813 0.910347 -0.30825806 1.7703705q-0.060424805 0.8452301 0.14489746 1.4520645q0.29544067 0.87325287 0.9641113 1.2407913q0.6687012 0.36753845 1.5928955 0.4176712q0.91915894 0.035331726 2.0052795 -0.1672821q1.1008911 -0.20761871 2.2015686 -0.4646454q1.1104736 -0.2768402 2.1913757 -0.543663q1.0808716 -0.26682281 1.9750061 -0.30549622q0.88912964 -0.053474426 1.5027466 0.15125275q0.6135864 0.2047348 0.83392334 0.8559723q0.40161133 0.3094635 0.19207764 0.9577179q-0.21456909 0.633461 -0.8533325 1.4269791q-0.6437683 0.7787094 -1.5785217 1.6724014q-0.9347534 0.893692 -1.9785767 1.7088242q-1.0340271 0.79532623 -2.0291138 1.4619904q-1.0000916 0.6518707 -1.74469 0.98633575q-0.23678589 0.08013916 -0.4496765 -0.012771606q-0.21289062 -0.09291077 -0.23446655 -0.49799347zm12.622009 -3.6942596q-0.68603516 -2.0277176 -1.3272095 -3.971634q-0.6314087 -1.9637299 -1.3415833 -3.8678055q-0.69540405 -1.9090881 -1.4943848 -3.783104q-0.8039856 -1.8888245 -1.7760315 -3.786766q-0.020019531 -0.059196472 -0.144104 -0.18216705q-0.10925293 -0.12796783 -0.22354126 -0.27074432q-0.099487305 -0.14778137 -0.18395996 -0.25115967q-0.08947754 -0.11818695 -0.10449219 -0.16259003q-0.045074463 -0.1332016 -0.011352539 -0.32606506q0.028717041 -0.20766449 0.10684204 -0.41555023q0.078125 -0.20789337 0.2206726 -0.37160492q0.1425476 -0.16371155 0.33016968 -0.19421387q0.32104492 -0.026176453 0.6038208 0.22454071q0.2925415 0.230896 0.5213318 0.56585693q0.2237854 0.3201599 0.37356567 0.6653595q0.15957642 0.32539368 0.20965576 0.47340393q0.6048279 -0.65006256 1.382019 -1.4244461q0.7919922 -0.77939606 1.6386108 -1.4947968q0.8564148 -0.73521423 1.7481384 -1.3174133q0.90148926 -0.602005 1.7894897 -0.9025345q0.07513428 0.22200775 0.046417236 0.42967224q-0.028717041 0.20766449 -0.2402649 0.41122437l-5.8236084 5.896782l0.33050537 0.97686005q0.10494995 0.26140594 0.36489868 0.9322281q0.26974487 0.6510086 0.5745239 1.4056244q0.3146057 0.7348099 0.5795593 1.420433q0.27474976 0.66580963 0.38946533 0.90740967l4.179077 -4.614441l0.06832886 -0.18807983q0.06832886 -0.18807983 0.2206726 -0.3715973q0.1621399 -0.203331 0.36434937 -0.28825378q0.21697998 -0.0899353 0.51934814 0.121154785q0.15020752 0.44402313 -0.16339111 1.0285263q-0.2987976 0.57949066 -0.8343811 1.2391205q-0.5258179 0.6398163 -1.1898193 1.3099213q-0.64923096 0.66509247 -1.1998596 1.2803192q-0.5408325 0.59542084 -0.85964966 1.1157074q-0.31881714 0.52027893 -0.20864868 0.8459015l1.6324768 4.8250732q0.3508606 0.013221741 0.86276245 -0.42394257q0.51187134 -0.4371643 1.0968933 -1.097023q0.5799866 -0.6746597 1.1593323 -1.497551q0.5793457 -0.82289124 1.1491089 -1.576561q0.5697632 -0.75366974 1.0709839 -1.3686752q0.5011902 -0.61499786 0.905365 -0.83425903q0.2368164 -0.08014679 0.46426392 -0.041656494q0.24227905 0.033485413 0.34240723 0.32950592q0.10015869 0.29601288 -0.18014526 0.58882904q-0.69296265 0.82834625 -1.5671997 1.9984741q-0.87423706 1.1701279 -1.7780457 2.3502655q-0.9038391 1.1801453 -1.8281555 2.2022629q-0.9243164 1.0221176 -1.6830139 1.509819q-0.32562256 0.110198975 -0.54785156 0.13591766q-0.21243286 0.0059127808 -0.5343628 -0.16555786zm11.983643 -4.0555725q-0.68603516 -2.0277176 -1.3272095 -3.971634q-0.6314087 -1.9637299 -1.3415833 -3.8678055q-0.69537354 -1.9090881 -1.4943848 -3.783104q-0.8039856 -1.8888245 -1.776001 -3.7867584q-0.020050049 -0.0592041 -0.144104 -0.18217468q-0.10928345 -0.12796783 -0.22357178 -0.27074432q-0.099487305 -0.14778137 -0.18395996 -0.25115967q-0.08944702 -0.11818695 -0.10449219 -0.16259003q-0.045043945 -0.1332016 -0.011352539 -0.32606506q0.028717041 -0.20766449 0.10684204 -0.41555023q0.078125 -0.20789337 0.2206726 -0.37160492q0.1425476 -0.16371155 0.33016968 -0.19421387q0.32104492 -0.026176453 0.6038208 0.22454071q0.2925415 0.230896 0.5213318 0.56585693q0.2237854 0.3201599 0.37356567 0.6653595q0.15957642 0.32539368 0.20965576 0.47340393q0.6048279 -0.65006256 1.382019 -1.4244461q0.7919922 -0.7793884 1.6386108 -1.4947968q0.8564453 -0.73521423 1.7481384 -1.3174133q0.90148926 -0.602005 1.7895203 -0.9025345q0.07510376 0.22200775 0.04638672 0.42967224q-0.028717041 0.20766449 -0.2402649 0.41122437l-5.823578 5.8967896l0.33050537 0.9768524q0.10491943 0.26140594 0.36486816 0.9322281q0.26974487 0.6510086 0.5745239 1.405632q0.3146057 0.73480225 0.5795593 1.4204254q0.27474976 0.66580963 0.38946533 0.90740967l4.179077 -4.614441l0.06832886 -0.18807983q0.06832886 -0.1880722 0.2206726 -0.3715973q0.1621399 -0.203331 0.36434937 -0.28825378q0.21697998 -0.0899353 0.51934814 0.121154785q0.15020752 0.44403076 -0.1633606 1.0285263q-0.2987976 0.57949066 -0.8344116 1.2391205q-0.52578735 0.6398239 -1.1898193 1.3099213q-0.64923096 0.66509247 -1.1998291 1.2803192q-0.5408325 0.59542084 -0.85964966 1.1157074q-0.31884766 0.52028656 -0.2086792 0.8459015l1.6324768 4.8250732q0.3508606 0.013221741 0.86276245 -0.42394257q0.51190186 -0.4371643 1.0968933 -1.097023q0.5800171 -0.6746597 1.1593323 -1.497551q0.5793457 -0.82289124 1.1491089 -1.576561q0.5697632 -0.75366974 1.0709839 -1.3686752q0.5012207 -0.61499786 0.9053955 -0.83425903q0.23678589 -0.08014679 0.46426392 -0.041648865q0.24224854 0.033477783 0.34240723 0.3294983q0.100128174 0.29601288 -0.18017578 0.58882904q-0.69296265 0.8283539 -1.5671997 1.9984741q-0.87420654 1.1701279 -1.7780457 2.3502655q-0.9038391 1.1801453 -1.8281555 2.2022629q-0.9242859 1.0221176 -1.6830139 1.5098267q-0.32562256 0.110191345 -0.54782104 0.13591003q-0.21246338 0.0059127808 -0.5343933 -0.16555786zm13.022034 -4.984329q-0.025939941 -0.2716446 0.46136475 -0.6839981q0.49710083 -0.43215942 1.2605896 -0.9544754q0.7733154 -0.5421219 1.694397 -1.183754q0.91604614 -0.6564255 1.7380981 -1.3470078q0.8368225 -0.6955948 1.461029 -1.4346924q0.61917114 -0.7538986 0.7788391 -1.5007553q-0.1251831 -0.370018 -0.6786804 -0.3971405q-0.5585327 -0.041915894 -1.4176025 0.100357056q-0.8493042 0.12247467 -1.9103699 0.399086q-1.0660706 0.2618103 -2.2164001 0.4696579q-1.135498 0.20283508 -2.251648 0.31664276q-1.1161499 0.11380005 -2.0804138 -0.054740906q-0.9642334 -0.16853333 -1.678009 -0.669281q-0.71875 -0.5155487 -1.0442505 -1.4776001q-0.33050537 -0.97686005 -0.22677612 -2.0841675q0.10372925 -1.1073151 0.5086975 -2.2505875q0.40493774 -1.14328 1.0473938 -2.21846q0.65722656 -1.0801926 1.4535522 -1.9930191q0.8111267 -0.9178314 1.6777954 -1.5740356q0.8814697 -0.6612091 1.7398987 -0.9517212q0.22198486 -0.07513428 0.4685974 -0.17508698q0.24658203 -0.09994507 0.43920898 -0.11565399q0.20742798 -0.020706177 0.37591553 0.08722687q0.18328857 0.10292816 0.28344727 0.39894867q0.24536133 0.7252426 -0.12310791 1.1963425q-0.36843872 0.47109985 -1.0492554 0.70150757l-1.2121887 -0.3650589q-0.56240845 0.19033813 -1.1478577 0.75136566q-0.5706787 0.5560303 -1.1007996 1.3292847q-0.53015137 0.7732544 -0.9706116 1.7140961q-0.4454651 0.9260483 -0.70809937 1.8562012q-0.25283813 0.910347 -0.30825806 1.7703705q-0.060424805 0.8452301 0.14486694 1.4520645q0.29544067 0.87325287 0.96414185 1.2407913q0.66867065 0.36753845 1.592865 0.4176712q0.91918945 0.035331726 2.0052795 -0.1672821q1.1009216 -0.20761871 2.2015991 -0.4646454q1.1104736 -0.2768402 2.1913452 -0.543663q1.0808716 -0.26682281 1.9750366 -0.30549622q0.88912964 -0.053474426 1.5027161 0.15126038q0.61361694 0.20472717 0.83395386 0.85596466q0.40161133 0.3094635 0.19204712 0.9577179q-0.21453857 0.633461 -0.853302 1.4269791q-0.6437683 0.7787094 -1.5785217 1.672409q-0.93478394 0.893692 -1.9786072 1.7088165q-1.0340271 0.79532623 -2.0290833 1.4619904q-1.0000916 0.6518707 -1.74469 0.98633575q-0.2368164 0.08013916 -0.4496765 -0.012771606q-0.21289062 -0.09291077 -0.23446655 -0.49799347z" fill-rule="nonzero"></path><path fill="#000000" fill-opacity="0.0" d="m298.49954 328.606l8.652222 19.025787l0 0c51.91745 12.706116 73.08368 40.43985 48.89923 64.07184c-24.184448 23.631958 -85.80475 35.42816 -142.35815 27.252106c-56.55339 -8.176056 -89.531715 -33.64856 -76.18808 -58.84781c13.343643 -25.19925 68.6423 -41.878326 127.75357 -38.532745z" fill-rule="nonzero"></path><path stroke="#f3b41b" stroke-width="3.0" stroke-linejoin="round" stroke-linecap="butt" stroke-dasharray="12.0,9.0" d="m298.49954 328.606l8.652222 19.025787l0 0c51.91745 12.706116 73.08368 40.43985 48.89923 64.07184c-24.184448 23.631958 -85.80475 35.42816 -142.35815 27.252106c-56.55339 -8.176056 -89.531715 -33.64856 -76.18808 -58.84781c13.343643 -25.19925 68.6423 -41.878326 127.75357 -38.532745z" fill-rule="nonzero"></path><path fill="#000000" fill-opacity="0.0" d="m146.88615 345.75165l216.06297 0l0 59.18109l-216.06297 0z" fill-rule="nonzero"></path><path fill="#f3b41b" d="m204.12778 364.8204q0.046875 -0.125 0.203125 -0.296875q0.15625 -0.171875 0.359375 -0.359375q0.203125 -0.1875 0.390625 -0.359375q0.203125 -0.171875 0.359375 -0.25q0.21875 0.15625 0.359375 0.40625q0.140625 0.234375 0.34375 0.796875q0.21875 0.5625 0.515625 1.546875q0.3125 0.96875 0.8125 2.609375q0.5 1.625 1.25 4.015625q0.75 2.390625 1.828125 5.734375q0.109375 -0.078125 0.390625 -0.84375q0.28125 -0.765625 0.671875 -1.90625q0.390625 -1.15625 0.84375 -2.5625q0.46875 -1.40625 0.921875 -2.84375q0.453125 -1.4375 0.859375 -2.734375q0.40625 -1.3125 0.703125 -2.265625q0.078125 -0.375 0.109375 -0.71875q0.046875 -0.359375 0.125 -0.640625q0.078125 -0.296875 0.265625 -0.5q0.203125 -0.203125 0.6875 -0.203125q0.359375 -0.15625 0.671875 0.375q0.328125 0.53125 0.65625 1.53125q0.328125 1.0 0.6875 2.328125q0.375 1.328125 0.828125 2.78125q0.46875 1.453125 1.03125 2.890625q0.578125 1.4375 1.34375 2.625l3.71875 -15.1875q0.046875 -0.21875 0.1875 -0.34375q0.15625 -0.140625 0.34375 -0.140625q0.203125 0 0.40625 0.1875q0.21875 0.1875 0.40625 0.609375l-3.703125 14.875q0 0.34375 -0.078125 0.8125q-0.078125 0.453125 -0.21875 0.890625q-0.125 0.4375 -0.296875 0.75q-0.171875 0.3125 -0.390625 0.375q-0.21875 0.0625 -0.484375 -0.1875q-0.265625 -0.25 -0.5625 -0.984375q-1.46875 -2.609375 -2.640625 -5.4375q-1.15625 -2.84375 -2.09375 -6.0l-3.375 11.125q-0.15625 1.15625 -0.46875 1.859375q-0.296875 0.703125 -0.65625 1.046875q-0.359375 0.34375 -0.734375 0.421875q-0.359375 0.078125 -0.65625 0.03125q-0.28125 -0.03125 -0.4375 -0.15625q-0.140625 -0.125 -0.078125 -0.171875q-0.609375 -0.8125 -1.046875 -1.953125q-0.4375 -1.15625 -0.796875 -2.515625q-0.34375 -1.359375 -0.6875 -2.84375q-0.34375 -1.5 -0.734375 -2.953125q-0.375 -1.46875 -0.90625 -2.8125q-0.53125 -1.34375 -1.234375 -2.453125zm33.13147 4.015625q-0.984375 -0.375 -1.875 0.28125q-0.890625 0.65625 -1.71875 1.859375q-0.8125 1.203125 -1.5625 2.734375q-0.734375 1.53125 -1.375 2.90625q-0.625 1.359375 -1.140625 2.34375q-0.5 0.96875 -0.921875 1.078125q-0.328125 0 -0.5 -0.109375q-0.171875 -0.125 -0.171875 -0.609375l0 -18.53125q0 -0.234375 0.203125 -0.28125q0.203125 -0.0625 0.4375 -0.03125q0.234375 0.015625 0.4375 0.109375q0.21875 0.09375 0.265625 0.203125l0.34375 14.84375q0.296875 -0.46875 0.546875 -1.328125q0.25 -0.859375 0.59375 -1.84375q0.34375 -1.0 0.796875 -1.984375q0.46875 -0.984375 1.15625 -1.78125q0.6875 -0.796875 1.671875 -1.21875q0.984375 -0.4375 2.328125 -0.3125q0.90625 0 1.453125 0.578125q0.5625 0.5625 0.578125 1.484375l0.265625 10.515625q0 0.109375 -0.046875 0.3125q-0.03125 0.1875 -0.203125 0.328125q-0.171875 0.15625 -0.484375 0.1875q-0.296875 0.046875 -0.765625 -0.140625l-0.3125 -11.59375zm10.458679 10.828125q-0.125 -0.6875 -0.21875 -1.640625q-0.09375 -0.96875 -0.203125 -1.953125q-0.109375 -1.0 -0.25 -1.859375q-0.140625 -0.875 -0.4375 -1.421875q-1.34375 2.734375 -2.375 4.3125q-1.015625 1.5625 -1.796875 2.234375q-0.78125 0.671875 -1.3125 0.65625q-0.515625 -0.03125 -0.859375 -0.484375q-0.34375 -0.453125 -0.5 -1.140625q-0.140625 -0.703125 -0.1875 -1.3125q0 -0.578125 0.25 -1.625q0.265625 -1.0625 0.71875 -2.3125q0.453125 -1.25 1.0625 -2.546875q0.625 -1.296875 1.328125 -2.34375q0.71875 -1.0625 1.484375 -1.75q0.765625 -0.6875 1.53125 -0.6875q1.140625 -0.171875 1.671875 0.5q0.546875 0.671875 0.203125 2.25q0 1.734375 0.140625 2.984375q0.140625 1.234375 0.3125 2.375q0.171875 1.125 0.3125 2.375q0.15625 1.234375 0.15625 2.96875q0 0.3125 -0.0625 0.546875q-0.0625 0.21875 -0.65625 0.21875q-0.078125 0 -0.203125 -0.125q-0.109375 -0.140625 -0.109375 -0.21875zm-1.421875 -11.78125q-0.296875 -0.421875 -0.796875 -0.078125q-0.5 0.34375 -1.0625 1.140625q-0.546875 0.78125 -1.125 1.890625q-0.578125 1.109375 -1.078125 2.25q-0.5 1.125 -0.875 2.140625q-0.359375 1.015625 -0.5 1.671875q0 0.953125 0.296875 1.078125q0.296875 0.109375 0.71875 -0.3125q0.421875 -0.421875 0.953125 -1.203125q0.546875 -0.796875 1.0625 -1.6875q0.515625 -0.90625 0.96875 -1.75q0.46875 -0.84375 0.71875 -1.375q0.25 -0.546875 0.375 -1.015625q0.140625 -0.484375 0.21875 -0.921875q0.09375 -0.4375 0.109375 -0.875q0.015625 -0.453125 0.015625 -0.953125zm4.4024353 1.203125q-0.25 0.140625 -0.484375 0.28125q-0.21875 0.140625 -0.4375 0.265625q-0.203125 0.125 -0.421875 0.171875q-0.203125 0.046875 -0.4375 0q-0.15625 0 -0.265625 -0.1875q-0.109375 -0.203125 -0.171875 -0.453125q-0.0625 -0.25 -0.09375 -0.5q-0.03125 -0.25 0 -0.390625l2.53125 -1.453125l0.15625 -6.75q0.046875 -0.34375 0.421875 -0.265625q0.375 0.0625 0.765625 0.171875q0.046875 0 0.171875 0.046875q0.125 0.03125 0.171875 0.046875q-0.046875 0.71875 -0.125 1.546875q-0.0625 0.828125 -0.125 1.65625q-0.046875 0.828125 -0.0625 1.625q0 0.796875 0.078125 1.421875l3.953125 -1.109375q0.109375 -0.015625 0.171875 0.15625q0.0625 0.171875 0.125 0.40625q0.078125 0.234375 0.09375 0.46875q0.03125 0.234375 0.03125 0.234375l-4.484375 1.90625q0 0.234375 0.03125 1.140625q0.046875 0.890625 0.09375 2.125q0.0625 1.21875 0.109375 2.625q0.0625 1.40625 0.109375 2.625q0.046875 1.21875 0.078125 2.125q0.03125 0.90625 0.03125 1.140625q-0.0625 0.796875 -0.46875 0.796875q-0.40625 0 -0.875 -0.390625l-0.671875 -11.484375zm25.237305 11.15625l-6.8125 -10.890625q-0.015625 -0.015625 -0.046875 -0.1875q-0.03125 -0.171875 -0.03125 -0.28125q0 -0.34375 0.109375 -0.59375q0.125 -0.25 0.625 -0.25q0.109375 0 0.375 0.125q0.265625 0.109375 0.3125 0.21875q0.578125 0.921875 1.203125 2.0625q0.625 1.125 1.296875 2.265625q0.671875 1.125 1.40625 2.171875q0.734375 1.03125 1.5625 1.78125l0.625 -10.34375q0.03125 0 0.140625 0q0.125 -0.015625 0.171875 -0.015625q0.25 0 0.484375 0.0625q0.234375 0.0625 0.34375 0.359375q0.015625 0.9375 0 2.34375q0 1.390625 -0.046875 2.875q-0.03125 1.46875 -0.078125 2.828125q-0.03125 1.359375 -0.0625 2.171875q-0.03125 0.53125 -0.09375 1.59375q-0.0625 1.046875 -0.15625 2.375q-0.09375 1.34375 -0.21875 2.8125q-0.109375 1.484375 -0.21875 2.796875q-0.109375 1.3125 -0.1875 2.375q-0.078125 1.078125 -0.125 1.546875l-1.375 0l0.796875 -10.203125zm2.8712158 -3.5q-0.1875 -1.21875 -0.1875 -2.359375q0 -1.15625 0.140625 -2.34375q0.15625 -1.1875 0.421875 -2.453125q0.28125 -1.28125 0.65625 -2.765625q0 -0.28125 0.15625 -0.53125q0.15625 -0.25 0.421875 -0.421875q0.265625 -0.171875 0.546875 -0.28125q0.296875 -0.109375 0.5625 -0.109375q0.578125 0 1.046875 0.375q0.484375 0.359375 0.859375 0.890625q0.390625 0.53125 0.65625 1.125q0.28125 0.59375 0.46875 1.015625q0.21875 0.921875 0.296875 2.09375q0.09375 1.171875 0.015625 2.390625q-0.078125 1.203125 -0.375 2.390625q-0.28125 1.171875 -0.8125 2.140625q-0.515625 0.96875 -1.359375 1.640625q-0.828125 0.65625 -1.953125 0.8125q-0.609375 0 -0.9375 -0.40625q-0.3125 -0.40625 -0.453125 -1.0q-0.140625 -0.59375 -0.15625 -1.203125q-0.015625 -0.609375 -0.015625 -1.0zm1.34375 -0.078125q0 0.265625 0.015625 0.5q0.015625 0.234375 0.046875 0.46875q0.046875 0.21875 0.109375 0.46875q0.0625 0.25 0.171875 0.5625l0.15625 0q0.640625 0 1.078125 -0.421875q0.453125 -0.421875 0.765625 -1.09375q0.328125 -0.671875 0.53125 -1.5q0.21875 -0.828125 0.328125 -1.625q0.125 -0.8125 0.15625 -1.515625q0.046875 -0.703125 0.046875 -1.125l0 -0.53125q0 -0.328125 -0.03125 -0.765625q-0.015625 -0.4375 -0.09375 -0.890625q-0.0625 -0.46875 -0.203125 -0.84375q-0.125 -0.390625 -0.34375 -0.625q-0.203125 -0.25 -0.546875 -0.25q-0.578125 -0.171875 -0.984375 0.09375q-0.40625 0.25 -0.65625 0.875q-0.25 0.625 -0.390625 1.515625q-0.125 0.890625 -0.15625 1.984375q-0.015625 1.078125 -0.015625 2.296875q0.015625 1.203125 0.015625 2.421875zm12.497223 0.625q-0.109375 0.3125 -0.53125 0.859375q-0.40625 0.546875 -0.953125 1.09375q-0.546875 0.53125 -1.140625 0.9375q-0.59375 0.40625 -1.046875 0.40625q-0.84375 0 -1.390625 -0.78125q-0.53125 -0.796875 -0.828125 -2.03125q-0.28125 -1.25 -0.390625 -2.765625q-0.109375 -1.515625 -0.140625 -2.953125q-0.015625 -1.453125 -0.015625 -2.640625q0 -1.1875 -0.078125 -1.796875q0.09375 -0.265625 0.265625 -0.3125q0.171875 -0.0625 0.421875 -0.0625q0.203125 0 0.375 0.0625q0.171875 0.046875 0.296875 0.3125q0 0.28125 0.015625 0.96875q0.015625 0.6875 0.0625 1.546875q0.0625 0.859375 0.109375 1.796875q0.0625 0.9375 0.09375 1.78125q0.046875 0.84375 0.078125 1.515625q0.046875 0.671875 0.0625 0.984375q0.03125 0.1875 0.0625 0.609375q0.046875 0.421875 0.140625 0.890625q0.09375 0.453125 0.234375 0.828125q0.15625 0.359375 0.390625 0.390625q0.390625 0 0.796875 -0.34375q0.40625 -0.34375 0.796875 -0.875q0.40625 -0.53125 0.75 -1.15625q0.34375 -0.640625 0.609375 -1.21875q0.28125 -0.59375 0.421875 -1.0625q0.15625 -0.484375 0.1875 -0.703125q0.046875 -0.4375 0.09375 -1.265625q0.0625 -0.84375 0.078125 -1.78125q0.03125 -0.953125 0.046875 -1.796875q0.015625 -0.84375 0.015625 -1.296875l1.453125 0.078125q0.015625 2.140625 -0.03125 3.875q-0.046875 1.71875 -0.03125 3.234375q0.03125 1.515625 0.234375 2.9375q0.21875 1.421875 0.765625 2.953125q-0.078125 0.078125 -0.3125 0.21875q-0.234375 0.15625 -0.34375 0.15625q-0.65625 0 -0.890625 -0.4375q-0.21875 -0.4375 -0.28125 -1.03125q-0.0625 -0.59375 -0.109375 -1.1875q-0.03125 -0.59375 -0.34375 -0.9375zm3.6313782 -9.640625l0 -0.21875q0 -0.265625 0.1875 -0.359375q0.203125 -0.109375 0.46875 -0.109375q0.21875 0 0.390625 0.046875q0.1875 0.03125 0.296875 0.296875q0.078125 0.390625 0.15625 1.09375q0.078125 0.6875 0.1875 1.53125q0.109375 0.84375 0.21875 1.78125q0.125 0.9375 0.234375 1.78125q0.125 0.828125 0.25 1.484375q0.140625 0.65625 0.296875 1.0q-0.078125 -2.53125 0.15625 -4.390625q0.234375 -1.859375 0.90625 -3.03125q0.671875 -1.171875 1.84375 -1.625q1.1875 -0.46875 2.953125 -0.203125q0.8125 0 0.8125 0.859375q0 0.34375 -0.453125 0.46875q-0.4375 0.109375 -1.0 0.15625q-0.546875 0.03125 -1.078125 0.09375q-0.53125 0.046875 -0.765625 0.265625q-0.953125 0.515625 -1.34375 1.625q-0.375 1.109375 -0.53125 2.625q-0.15625 1.5 -0.21875 3.28125q-0.0625 1.765625 -0.359375 3.640625q0 0.265625 -0.21875 0.40625q-0.203125 0.125 -0.515625 0.125q-0.296875 0 -0.578125 -0.125q-0.265625 -0.140625 -0.421875 -0.40625l-1.875 -12.09375z" fill-rule="nonzero"></path><path fill="#f3b41b" d="m184.27917 411.66415q-0.125 -0.6875 -0.21875 -1.640625q-0.09375 -0.96875 -0.203125 -1.953125q-0.109375 -1.0 -0.25 -1.859375q-0.140625 -0.875 -0.4375 -1.421875q-1.34375 2.734375 -2.375 4.3125q-1.015625 1.5625 -1.796875 2.234375q-0.78125 0.671875 -1.3125 0.65625q-0.515625 -0.03125 -0.859375 -0.484375q-0.34375 -0.453125 -0.5 -1.140625q-0.140625 -0.703125 -0.1875 -1.3125q0 -0.578125 0.25 -1.625q0.265625 -1.0625 0.71875 -2.3125q0.453125 -1.25 1.0625 -2.546875q0.625 -1.296875 1.328125 -2.34375q0.71875 -1.0625 1.484375 -1.75q0.765625 -0.6875 1.53125 -0.6875q1.140625 -0.171875 1.671875 0.5q0.546875 0.671875 0.203125 2.25q0 1.734375 0.140625 2.984375q0.140625 1.234375 0.3125 2.375q0.171875 1.125 0.3125 2.375q0.15625 1.234375 0.15625 2.96875q0 0.3125 -0.0625 0.546875q-0.0625 0.21875 -0.65625 0.21875q-0.078125 0 -0.203125 -0.125q-0.109375 -0.140625 -0.109375 -0.21875zm-1.421875 -11.78125q-0.296875 -0.421875 -0.796875 -0.078125q-0.5 0.34375 -1.0625 1.140625q-0.546875 0.78125 -1.125 1.890625q-0.578125 1.109375 -1.078125 2.25q-0.5 1.125 -0.875 2.140625q-0.359375 1.015625 -0.5 1.671875q0 0.953125 0.296875 1.078125q0.296875 0.109375 0.71875 -0.3125q0.421875 -0.421875 0.953125 -1.203125q0.546875 -0.796875 1.0625 -1.6875q0.515625 -0.90625 0.96875 -1.75q0.46875 -0.84375 0.71875 -1.375q0.25 -0.546875 0.375 -1.015625q0.140625 -0.484375 0.21875 -0.921875q0.09375 -0.4375 0.109375 -0.875q0.015625 -0.453125 0.015625 -0.953125zm3.7774353 19.40625q0.296875 -2.765625 0.328125 -5.265625q0.046875 -2.484375 -0.03125 -4.90625q-0.0625 -2.4375 -0.203125 -4.90625q-0.125 -2.484375 -0.140625 -5.25q0.078125 -0.375 0.1875 -0.5625q0.125 -0.203125 0.65625 -0.09375q0.546875 0.125 0.65625 0.609375q0.109375 0.484375 0.046875 1.09375q-0.046875 0.609375 -0.15625 1.21875q-0.109375 0.609375 0 0.96875q0.84375 -0.609375 1.796875 -1.265625q0.953125 -0.65625 1.96875 -1.171875q1.03125 -0.515625 2.140625 -0.765625q1.109375 -0.25 2.21875 -0.015625q1.375 0.328125 1.90625 0.953125q0.546875 0.609375 0.421875 1.421875q-0.109375 0.796875 -0.75 1.765625q-0.625 0.953125 -1.5625 1.9375q-0.921875 0.96875 -2.0625 1.921875q-1.125 0.9375 -2.203125 1.75q-1.078125 0.796875 -2.015625 1.40625q-0.9375 0.609375 -1.484375 0.90625q-0.03125 0.3125 -0.078125 0.984375q-0.03125 0.671875 -0.078125 1.515625q-0.03125 0.84375 -0.078125 1.765625q-0.03125 0.921875 -0.078125 1.765625q-0.03125 0.84375 -0.078125 1.5q-0.03125 0.65625 -0.03125 0.984375q-0.0625 0.015625 -0.203125 0.046875q-0.125 0.03125 -0.3125 0.03125q-0.171875 0.015625 -0.328125 0.03125q-0.15625 0.015625 -0.21875 -0.015625q-0.078125 0 -0.15625 -0.140625q-0.078125 -0.140625 -0.078125 -0.21875zm1.46875 -14.453125q-0.078125 0.375 -0.046875 0.921875q0.046875 0.53125 0.109375 1.125q0.078125 0.59375 0.15625 1.15625q0.078125 0.546875 0.109375 0.9375q1.0 -0.765625 2.328125 -1.546875q1.328125 -0.796875 2.578125 -1.71875q1.265625 -0.921875 2.234375 -2.046875q0.96875 -1.140625 1.296875 -2.578125q0.09375 -0.546875 -0.109375 -0.734375q-0.1875 -0.203125 -0.65625 -0.28125q-1.0 -0.21875 -2.296875 0.140625q-1.296875 0.359375 -2.5 1.046875q-1.1875 0.671875 -2.09375 1.625q-0.890625 0.953125 -1.109375 1.953125zm11.390808 14.453125q0.296875 -2.765625 0.328125 -5.265625q0.046875 -2.484375 -0.03125 -4.90625q-0.0625 -2.4375 -0.203125 -4.90625q-0.125 -2.484375 -0.140625 -5.25q0.078125 -0.375 0.1875 -0.5625q0.125 -0.203125 0.65625 -0.09375q0.546875 0.125 0.65625 0.609375q0.109375 0.484375 0.046875 1.09375q-0.046875 0.609375 -0.15625 1.21875q-0.109375 0.609375 0 0.96875q0.84375 -0.609375 1.796875 -1.265625q0.953125 -0.65625 1.96875 -1.171875q1.03125 -0.515625 2.140625 -0.765625q1.109375 -0.25 2.21875 -0.015625q1.375 0.328125 1.90625 0.953125q0.546875 0.609375 0.421875 1.421875q-0.109375 0.796875 -0.75 1.765625q-0.625 0.953125 -1.5625 1.9375q-0.921875 0.96875 -2.0625 1.921875q-1.125 0.9375 -2.203125 1.75q-1.078125 0.796875 -2.015625 1.40625q-0.9375 0.609375 -1.484375 0.90625q-0.03125 0.3125 -0.078125 0.984375q-0.03125 0.671875 -0.078125 1.515625q-0.03125 0.84375 -0.078125 1.765625q-0.03125 0.921875 -0.078125 1.765625q-0.03125 0.84375 -0.078125 1.5q-0.03125 0.65625 -0.03125 0.984375q-0.0625 0.015625 -0.203125 0.046875q-0.125 0.03125 -0.3125 0.03125q-0.171875 0.015625 -0.328125 0.03125q-0.15625 0.015625 -0.21875 -0.015625q-0.078125 0 -0.15625 -0.140625q-0.078125 -0.140625 -0.078125 -0.21875zm1.46875 -14.453125q-0.078125 0.375 -0.046875 0.921875q0.046875 0.53125 0.109375 1.125q0.078125 0.59375 0.15625 1.15625q0.078125 0.546875 0.109375 0.9375q1.0 -0.765625 2.328125 -1.546875q1.328125 -0.796875 2.578125 -1.71875q1.265625 -0.921875 2.234375 -2.046875q0.96875 -1.140625 1.296875 -2.578125q0.09375 -0.546875 -0.109375 -0.734375q-0.1875 -0.203125 -0.65625 -0.28125q-1.0 -0.21875 -2.296875 0.140625q-1.296875 0.359375 -2.5 1.046875q-1.1875 0.671875 -2.09375 1.625q-0.890625 0.953125 -1.109375 1.953125zm11.859558 6.171875q0.1875 -1.21875 0.25 -3.03125q0.078125 -1.828125 0.0625 -3.875q-0.015625 -2.0625 -0.09375 -4.25q-0.078125 -2.1875 -0.21875 -4.140625q-0.125 -1.96875 -0.296875 -3.53125q-0.171875 -1.5625 -0.359375 -2.453125q0.234375 -0.15625 0.40625 -0.25q0.171875 -0.09375 0.40625 -0.09375q0.1875 0 0.3125 0.078125q0.140625 0.0625 0.21875 0.265625q0.53125 5.171875 0.71875 10.421875q0.203125 5.234375 0.3125 10.4375q0 0.234375 0 0.640625q0 0.40625 -0.03125 0.4375q-0.359375 0.1875 -0.65625 0.171875q-0.28125 -0.015625 -0.53125 -0.15625q-0.234375 -0.140625 -0.375 -0.328125q-0.125 -0.1875 -0.125 -0.34375zm3.5454407 0.8125q0 -1.703125 -0.078125 -3.59375q-0.0625 -1.90625 -0.125 -3.84375q-0.0625 -1.953125 -0.046875 -3.8125q0.03125 -1.875 0.25 -3.515625q0.046875 -0.015625 0.25 -0.03125q0.203125 -0.015625 0.28125 -0.015625q0.359375 0 0.578125 0.125q0.234375 0.109375 0.234375 0.5q0 1.5625 -0.015625 3.390625q-0.015625 1.828125 -0.03125 3.71875q0 1.890625 0 3.734375q0 1.84375 0.046875 3.34375q0.03125 0.453125 -0.171875 0.59375q-0.203125 0.15625 -0.484375 0.15625q-0.3125 0 -0.53125 -0.15625q-0.203125 -0.140625 -0.15625 -0.59375zm-0.578125 -18.875q0 -0.3125 0.203125 -0.421875q0.21875 -0.109375 0.484375 -0.109375q0.515625 0 0.640625 0.34375q0.140625 0.34375 0.140625 0.796875q-0.15625 0.28125 -0.390625 0.40625q-0.234375 0.125 -0.484375 0.0625q-0.25 -0.078125 -0.421875 -0.34375q-0.171875 -0.265625 -0.171875 -0.734375zm3.6965332 13.34375q0.078125 -0.953125 0.15625 -2.0625q0.078125 -1.125 0.25 -2.234375q0.171875 -1.109375 0.4375 -2.109375q0.28125 -1.0 0.75 -1.78125q0.46875 -0.78125 1.140625 -1.234375q0.6875 -0.46875 1.671875 -0.4375q0.65625 0 1.0 0.5625q0.359375 0.546875 0.5 1.34375q0.15625 0.78125 0.171875 1.609375q0.015625 0.828125 0.015625 1.359375q-0.53125 0 -0.875 -0.453125q-0.34375 -0.46875 -0.53125 -1.078125q-0.1875 -0.609375 -0.265625 -1.1875l-0.078125 -0.765625q-0.015625 0 -0.09375 -0.015625q-0.0625 -0.015625 -0.078125 -0.015625q-0.453125 0 -0.84375 0.515625q-0.375 0.5 -0.703125 1.28125q-0.328125 0.765625 -0.578125 1.734375q-0.234375 0.953125 -0.390625 1.875q-0.15625 0.921875 -0.25 1.703125q-0.09375 0.78125 -0.09375 1.203125q-0.046875 0.6875 0 1.515625q0.0625 0.8125 0.3125 1.53125q0.265625 0.703125 0.734375 1.21875q0.484375 0.5 1.28125 0.6875q0.96875 0 1.578125 -0.25q0.609375 -0.265625 0.984375 -0.71875q0.390625 -0.453125 0.59375 -1.0q0.21875 -0.5625 0.40625 -1.15625q0.203125 -0.59375 0.40625 -1.171875q0.21875 -0.578125 0.609375 -1.078125q0.328125 -0.078125 0.46875 0.015625q0.140625 0.09375 0.1875 0.25q0.0625 0.15625 0.0625 0.375l0 0.28125q0 1.109375 -0.375 2.140625q-0.359375 1.03125 -1.078125 1.84375q-0.703125 0.796875 -1.703125 1.28125q-0.984375 0.484375 -2.25 0.484375q-1.046875 0 -1.75 -0.671875q-0.703125 -0.671875 -1.09375 -1.625q-0.375 -0.953125 -0.53125 -1.984375q-0.15625 -1.046875 -0.15625 -1.78125zm17.896973 5.375q-0.125 -0.6875 -0.21875 -1.640625q-0.09375 -0.96875 -0.203125 -1.953125q-0.109375 -1.0 -0.25 -1.859375q-0.140625 -0.875 -0.4375 -1.421875q-1.34375 2.734375 -2.375 4.3125q-1.015625 1.5625 -1.796875 2.234375q-0.78125 0.671875 -1.3125 0.65625q-0.515625 -0.03125 -0.859375 -0.484375q-0.34375 -0.453125 -0.5 -1.140625q-0.140625 -0.703125 -0.1875 -1.3125q0 -0.578125 0.25 -1.625q0.265625 -1.0625 0.71875 -2.3125q0.453125 -1.25 1.0625 -2.546875q0.625 -1.296875 1.328125 -2.34375q0.71875 -1.0625 1.484375 -1.75q0.765625 -0.6875 1.53125 -0.6875q1.140625 -0.171875 1.671875 0.5q0.546875 0.671875 0.203125 2.25q0 1.734375 0.140625 2.984375q0.140625 1.234375 0.3125 2.375q0.171875 1.125 0.3125 2.375q0.15625 1.234375 0.15625 2.96875q0 0.3125 -0.0625 0.546875q-0.0625 0.21875 -0.65625 0.21875q-0.078125 0 -0.203125 -0.125q-0.109375 -0.140625 -0.109375 -0.21875zm-1.421875 -11.78125q-0.296875 -0.421875 -0.796875 -0.078125q-0.5 0.34375 -1.0625 1.140625q-0.546875 0.78125 -1.125 1.890625q-0.578125 1.109375 -1.078125 2.25q-0.5 1.125 -0.875 2.140625q-0.359375 1.015625 -0.5 1.671875q0 0.953125 0.296875 1.078125q0.296875 0.109375 0.71875 -0.3125q0.421875 -0.421875 0.953125 -1.203125q0.546875 -0.796875 1.0625 -1.6875q0.515625 -0.90625 0.96875 -1.75q0.46875 -0.84375 0.71875 -1.375q0.25 -0.546875 0.375 -1.015625q0.140625 -0.484375 0.21875 -0.921875q0.09375 -0.4375 0.109375 -0.875q0.015625 -0.453125 0.015625 -0.953125zm4.4024353 1.203125q-0.25 0.140625 -0.484375 0.28125q-0.21875 0.140625 -0.4375 0.265625q-0.203125 0.125 -0.421875 0.171875q-0.203125 0.046875 -0.4375 0q-0.15625 0 -0.265625 -0.1875q-0.109375 -0.203125 -0.171875 -0.453125q-0.0625 -0.25 -0.09375 -0.5q-0.03125 -0.25 0 -0.390625l2.53125 -1.453125l0.15625 -6.75q0.046875 -0.34375 0.421875 -0.265625q0.375 0.0625 0.765625 0.171875q0.046875 0 0.171875 0.046875q0.125 0.03125 0.171875 0.046875q-0.046875 0.71875 -0.125 1.546875q-0.0625 0.828125 -0.125 1.65625q-0.046875 0.828125 -0.0625 1.625q0 0.796875 0.078125 1.421875l3.953125 -1.109375q0.109375 -0.015625 0.171875 0.15625q0.0625 0.171875 0.125 0.40625q0.078125 0.234375 0.09375 0.46875q0.03125 0.234375 0.03125 0.234375l-4.484375 1.90625q0 0.234375 0.03125 1.140625q0.046875 0.890625 0.09375 2.125q0.0625 1.21875 0.109375 2.625q0.0625 1.40625 0.109375 2.625q0.046875 1.21875 0.078125 2.125q0.03125 0.90625 0.03125 1.140625q-0.0625 0.796875 -0.46875 0.796875q-0.40625 0 -0.875 -0.390625l-0.671875 -11.484375zm6.877411 10.734375q0 -1.703125 -0.078125 -3.59375q-0.0625 -1.90625 -0.125 -3.84375q-0.0625 -1.953125 -0.046875 -3.8125q0.03125 -1.875 0.25 -3.515625q0.046875 -0.015625 0.25 -0.03125q0.203125 -0.015625 0.28125 -0.015625q0.359375 0 0.578125 0.125q0.234375 0.109375 0.234375 0.5q0 1.5625 -0.015625 3.390625q-0.015625 1.828125 -0.03125 3.71875q0 1.890625 0 3.734375q0 1.84375 0.046875 3.34375q0.03125 0.453125 -0.171875 0.59375q-0.203125 0.15625 -0.484375 0.15625q-0.3125 0 -0.53125 -0.15625q-0.203125 -0.140625 -0.15625 -0.59375zm-0.578125 -18.875q0 -0.3125 0.203125 -0.421875q0.21875 -0.109375 0.484375 -0.109375q0.515625 0 0.640625 0.34375q0.140625 0.34375 0.140625 0.796875q-0.15625 0.28125 -0.390625 0.40625q-0.234375 0.125 -0.484375 0.0625q-0.25 -0.078125 -0.421875 -0.34375q-0.171875 -0.265625 -0.171875 -0.734375zm3.6652832 15.796875q-0.1875 -1.21875 -0.1875 -2.359375q0 -1.15625 0.140625 -2.34375q0.15625 -1.1875 0.421875 -2.453125q0.28125 -1.28125 0.65625 -2.765625q0 -0.28125 0.15625 -0.53125q0.15625 -0.25 0.421875 -0.421875q0.265625 -0.171875 0.546875 -0.28125q0.296875 -0.109375 0.5625 -0.109375q0.578125 0 1.046875 0.375q0.484375 0.359375 0.859375 0.890625q0.390625 0.53125 0.65625 1.125q0.28125 0.59375 0.46875 1.015625q0.21875 0.921875 0.296875 2.09375q0.09375 1.171875 0.015625 2.390625q-0.078125 1.203125 -0.375 2.390625q-0.28125 1.171875 -0.8125 2.140625q-0.515625 0.96875 -1.359375 1.640625q-0.828125 0.65625 -1.953125 0.8125q-0.609375 0 -0.9375 -0.40625q-0.3125 -0.40625 -0.453125 -1.0q-0.140625 -0.59375 -0.15625 -1.203125q-0.015625 -0.609375 -0.015625 -1.0zm1.34375 -0.078125q0 0.265625 0.015625 0.5q0.015625 0.234375 0.046875 0.46875q0.046875 0.21875 0.109375 0.46875q0.0625 0.25 0.171875 0.5625l0.15625 0q0.640625 0 1.078125 -0.421875q0.453125 -0.421875 0.765625 -1.09375q0.328125 -0.671875 0.53125 -1.5q0.21875 -0.828125 0.328125 -1.625q0.125 -0.8125 0.15625 -1.515625q0.046875 -0.703125 0.046875 -1.125l0 -0.53125q0 -0.328125 -0.03125 -0.765625q-0.015625 -0.4375 -0.09375 -0.890625q-0.0625 -0.46875 -0.203125 -0.84375q-0.125 -0.390625 -0.34375 -0.625q-0.203125 -0.25 -0.546875 -0.25q-0.578125 -0.171875 -0.984375 0.09375q-0.40625 0.25 -0.65625 0.875q-0.25 0.625 -0.390625 1.515625q-0.125 0.890625 -0.15625 1.984375q-0.015625 1.078125 -0.015625 2.296875q0.015625 1.203125 0.015625 2.421875zm6.903473 3.34375q-0.296875 -3.5625 -0.515625 -7.125q-0.21875 -3.578125 -0.484375 -7.421875q0 -0.640625 0.6875 -0.640625l0.203125 0q0.078125 0 0.1875 0.21875q0.109375 0.203125 0.21875 0.78125q0.125 0.5625 0.265625 1.703125q0.140625 1.140625 0.34375 3.0q0.21875 1.84375 0.484375 4.609375q0.5625 -1.796875 0.875 -3.484375q0.3125 -1.6875 0.8125 -3.0625q0.5 -1.390625 1.40625 -2.4375q0.921875 -1.0625 2.625 -1.5625q0.953125 0.15625 1.53125 1.15625q0.578125 0.984375 0.921875 2.4375q0.34375 1.4375 0.46875 3.140625q0.140625 1.703125 0.171875 3.265625q0.03125 1.546875 0.03125 2.78125q0 1.21875 0.046875 1.75q-0.078125 0.203125 -0.234375 0.359375q-0.15625 0.15625 -0.359375 0.234375q-0.203125 0.0625 -0.390625 0.03125q-0.171875 -0.046875 -0.328125 -0.28125q0 -0.296875 -0.0625 -1.1875q-0.046875 -0.90625 -0.125 -2.09375q-0.078125 -1.203125 -0.171875 -2.5625q-0.09375 -1.359375 -0.171875 -2.5625q-0.0625 -1.203125 -0.109375 -2.09375q-0.046875 -0.890625 -0.078125 -1.1875q-0.546875 -0.96875 -1.09375 -1.09375q-0.546875 -0.140625 -1.09375 0.328125q-0.53125 0.46875 -1.03125 1.453125q-0.5 0.96875 -0.953125 2.203125q-0.4375 1.21875 -0.84375 2.5625q-0.390625 1.34375 -0.6875 2.609375q-0.28125 1.25 -0.484375 2.265625q-0.1875 1.015625 -0.25 1.5625q-0.078125 0.1875 -0.328125 0.359375q-0.25 0.171875 -0.53125 0.25q-0.265625 0.078125 -0.546875 0.046875q-0.28125 -0.046875 -0.40625 -0.3125zm27.339233 -0.1875q0 -0.53125 0.65625 -1.359375q0.65625 -0.828125 1.625 -1.875q0.984375 -1.0625 2.140625 -2.296875q1.15625 -1.234375 2.125 -2.5625q0.984375 -1.34375 1.640625 -2.71875q0.671875 -1.390625 0.671875 -2.734375q0 -0.71875 -0.40625 -1.234375q-0.390625 -0.515625 -1.015625 -0.875q-0.609375 -0.375 -1.390625 -0.578125q-0.78125 -0.21875 -1.578125 -0.328125q-0.78125 -0.125 -1.5 -0.15625q-0.703125 -0.046875 -1.203125 -0.046875q-0.140625 0 -0.359375 0.015625q-0.203125 0.015625 -0.421875 0.03125q-0.21875 0 -0.40625 0.03125q-0.1875 0.03125 -0.21875 0.03125l-0.34375 0.3125q0 0.046875 -0.015625 0.453125q0 0.390625 -0.015625 0.890625q-0.015625 0.5 -0.015625 1.03125l0 0.8125q0 2.671875 0.1875 5.296875q0.203125 2.609375 0.203125 5.28125q0 0.15625 0.015625 0.34375q0.015625 0.1875 -0.015625 0.359375q-0.015625 0.171875 -0.140625 0.296875q-0.125 0.109375 -0.359375 0.109375q-0.15625 0 -0.3125 -0.078125q-0.15625 -0.078125 -0.1875 -0.265625l-1.03125 -13.875q-0.078125 0.0625 -0.28125 0.15625q-0.1875 0.078125 -0.40625 0.1875q-0.203125 0.109375 -0.40625 0.234375q-0.1875 0.109375 -0.25 0.109375q-0.015625 0 -0.09375 0.015625q-0.0625 0.015625 -0.078125 0.015625q-0.140625 0 -0.3125 -0.0625q-0.171875 -0.078125 -0.171875 -0.3125q0 -0.390625 0.171875 -0.640625q0.171875 -0.25 0.453125 -0.453125q0.28125 -0.21875 0.59375 -0.421875q0.3125 -0.21875 0.578125 -0.546875q0.28125 -0.328125 0.453125 -0.828125q0.171875 -0.515625 0.171875 -1.28125q0.53125 0 0.65625 0.1875q0.140625 0.1875 0.15625 0.4375q0.03125 0.25 0.0625 0.5q0.046875 0.25 0.390625 0.359375q0.75 -0.03125 1.78125 0q1.046875 0.03125 2.1875 0.171875q1.15625 0.140625 2.265625 0.4375q1.125 0.28125 2.0 0.8125q0.890625 0.53125 1.40625 1.34375q0.515625 0.796875 0.46875 1.953125q-0.34375 2.03125 -1.3125 3.90625q-0.953125 1.875 -2.265625 3.609375q-1.296875 1.71875 -2.828125 3.296875q-1.515625 1.578125 -3.015625 3.03125q-0.015625 0 -0.078125 0.015625q-0.046875 0.015625 -0.078125 0.015625q-0.234375 0 -0.390625 -0.15625q-0.15625 -0.171875 -0.15625 -0.40625zm10.926514 -5.109375q0.328125 -4.59375 1.328125 -7.46875q1.0 -2.890625 2.328125 -4.125q1.328125 -1.25 2.765625 -0.84375q1.4375 0.40625 2.59375 2.421875q0.40625 1.3125 0.515625 2.953125q0.125 1.625 -0.046875 3.3125q-0.171875 1.671875 -0.609375 3.28125q-0.4375 1.59375 -1.203125 2.890625q-0.765625 1.296875 -1.828125 2.1875q-1.046875 0.875 -2.40625 1.0625q-0.984375 0 -1.640625 -0.609375q-0.65625 -0.609375 -1.0625 -1.484375q-0.390625 -0.890625 -0.5625 -1.84375q-0.171875 -0.96875 -0.171875 -1.734375zm1.40625 -0.15625q0 0.65625 0.0625 1.375q0.0625 0.703125 0.296875 1.296875q0.25 0.59375 0.734375 0.984375q0.484375 0.375 1.296875 0.375q0.921875 0 1.6875 -0.84375q0.765625 -0.84375 1.3125 -2.1875q0.5625 -1.34375 0.890625 -2.96875q0.328125 -1.640625 0.390625 -3.203125q0.078125 -1.578125 -0.15625 -2.890625q-0.21875 -1.328125 -0.78125 -2.0q-0.546875 -0.671875 -1.453125 -0.53125q-0.90625 0.125 -2.171875 1.4375q-0.375 1.078125 -0.75 2.234375q-0.359375 1.140625 -0.65625 2.3125q-0.28125 1.171875 -0.5 2.34375q-0.203125 1.15625 -0.203125 2.265625zm10.313721 5.109375q0 -2.140625 0.015625 -4.1875q0.03125 -2.0625 -0.03125 -4.09375q-0.046875 -2.03125 -0.203125 -4.0625q-0.15625 -2.046875 -0.46875 -4.15625q0 -0.0625 -0.078125 -0.21875q-0.0625 -0.15625 -0.125 -0.328125q-0.046875 -0.171875 -0.09375 -0.296875q-0.046875 -0.140625 -0.046875 -0.1875q0 -0.140625 0.09375 -0.3125q0.09375 -0.1875 0.234375 -0.359375q0.140625 -0.171875 0.328125 -0.28125q0.1875 -0.109375 0.375 -0.078125q0.3125 0.078125 0.5 0.40625q0.203125 0.3125 0.3125 0.703125q0.109375 0.375 0.140625 0.75q0.046875 0.359375 0.046875 0.515625q0.78125 -0.421875 1.765625 -0.90625q1.0 -0.484375 2.03125 -0.890625q1.046875 -0.421875 2.078125 -0.6875q1.046875 -0.28125 1.984375 -0.28125q0 0.234375 -0.09375 0.421875q-0.09375 0.1875 -0.359375 0.3125l-7.40625 3.71875l0 1.03125q0.015625 0.28125 0.046875 1.0q0.046875 0.703125 0.09375 1.515625q0.0625 0.796875 0.09375 1.53125q0.046875 0.71875 0.078125 0.984375l5.4375 -3.03125l0.125 -0.15625q0.125 -0.15625 0.328125 -0.28125q0.21875 -0.140625 0.4375 -0.15625q0.234375 -0.015625 0.453125 0.28125q0 0.46875 -0.484375 0.921875q-0.46875 0.453125 -1.1875 0.90625q-0.703125 0.4375 -1.546875 0.859375q-0.828125 0.421875 -1.546875 0.828125q-0.703125 0.390625 -1.171875 0.78125q-0.46875 0.390625 -0.46875 0.734375l0 5.09375q0.328125 0.125 0.953125 -0.125q0.625 -0.25 1.390625 -0.6875q0.765625 -0.453125 1.578125 -1.046875q0.8125 -0.59375 1.59375 -1.125q0.78125 -0.53125 1.453125 -0.953125q0.671875 -0.421875 1.125 -0.5q0.25 0 0.453125 0.109375q0.21875 0.109375 0.21875 0.421875q0 0.3125 -0.359375 0.5q-0.921875 0.5625 -2.125 1.390625q-1.203125 0.828125 -2.4375 1.65625q-1.234375 0.828125 -2.4375 1.5q-1.203125 0.671875 -2.078125 0.890625q-0.34375 0 -0.5625 -0.046875q-0.203125 -0.0625 -0.453125 -0.328125zm13.932556 -0.546875q0.0625 -0.265625 0.65625 -0.5q0.609375 -0.25 1.5 -0.5q0.90625 -0.265625 1.984375 -0.578125q1.078125 -0.328125 2.078125 -0.71875q1.015625 -0.390625 1.84375 -0.890625q0.828125 -0.515625 1.21875 -1.171875q0 -0.390625 -0.515625 -0.59375q-0.515625 -0.21875 -1.375 -0.359375q-0.84375 -0.15625 -1.9375 -0.234375q-1.09375 -0.09375 -2.25 -0.265625q-1.140625 -0.171875 -2.234375 -0.421875q-1.09375 -0.25 -1.953125 -0.71875q-0.859375 -0.46875 -1.375 -1.171875q-0.515625 -0.71875 -0.515625 -1.734375q0 -1.03125 0.453125 -2.046875q0.453125 -1.015625 1.203125 -1.96875q0.75 -0.953125 1.703125 -1.765625q0.96875 -0.8125 2.015625 -1.421875q1.0625 -0.609375 2.09375 -0.953125q1.046875 -0.34375 1.953125 -0.34375q0.234375 0 0.5 -0.015625q0.265625 -0.015625 0.453125 0.03125q0.203125 0.046875 0.328125 0.203125q0.140625 0.15625 0.140625 0.46875q0 0.765625 -0.5 1.09375q-0.5 0.328125 -1.21875 0.328125l-1.03125 -0.734375q-0.59375 0 -1.328125 0.34375q-0.71875 0.34375 -1.46875 0.90625q-0.75 0.5625 -1.46875 1.3125q-0.71875 0.734375 -1.265625 1.53125q-0.53125 0.78125 -0.859375 1.578125q-0.328125 0.78125 -0.328125 1.421875q0 0.921875 0.515625 1.484375q0.515625 0.5625 1.375 0.90625q0.859375 0.328125 1.953125 0.484375q1.109375 0.15625 2.234375 0.265625q1.140625 0.09375 2.25 0.1875q1.109375 0.09375 1.96875 0.34375q0.859375 0.234375 1.375 0.625q0.515625 0.390625 0.515625 1.078125q0.28125 0.421875 -0.125 0.96875q-0.40625 0.53125 -1.265625 1.078125q-0.859375 0.53125 -2.03125 1.078125q-1.171875 0.546875 -2.421875 0.984375q-1.234375 0.421875 -2.390625 0.734375q-1.15625 0.296875 -1.96875 0.375q-0.25 0 -0.421875 -0.15625q-0.171875 -0.15625 -0.0625 -0.546875z" fill-rule="nonzero"></path><path fill="#000000" fill-opacity="0.0" d="m614.06006 333.57346l-11.389893 17.402039l0 0c-68.34479 11.621674 -96.20828 36.988434 -64.37158 58.603485c31.836731 21.615082 112.95453 32.40448 187.4021 24.926239c74.44763 -7.478241 117.86072 -30.776764 100.29498 -53.825348c-17.565796 -23.048584 -90.36163 -38.30414 -168.17645 -35.24411z" fill-rule="nonzero"></path><path stroke="#f3b41b" stroke-width="3.0" stroke-linejoin="round" stroke-linecap="butt" stroke-dasharray="12.0,9.0" d="m614.06006 333.57346l-11.389893 17.402039l0 0c-68.34479 11.621674 -96.20828 36.988434 -64.37158 58.603485c31.836731 21.615082 112.95453 32.40448 187.4021 24.926239c74.44763 -7.478241 117.86072 -30.776764 100.29498 -53.825348c-17.565796 -23.048584 -90.36163 -38.30414 -168.17645 -35.24411z" fill-rule="nonzero"></path><path fill="#000000" fill-opacity="0.0" d="m539.8504 365.67554l264.69293 0l0 59.18109l-264.69293 0z" fill-rule="nonzero"></path><path fill="#f3b41b" d="m553.37366 384.7443q0.046875 -0.125 0.203125 -0.296875q0.15625 -0.171875 0.359375 -0.359375q0.203125 -0.1875 0.390625 -0.359375q0.203125 -0.171875 0.359375 -0.25q0.21875 0.15625 0.359375 0.40625q0.140625 0.234375 0.34375 0.796875q0.21875 0.5625 0.515625 1.546875q0.3125 0.96875 0.8125 2.609375q0.5 1.625 1.25 4.015625q0.75 2.390625 1.828125 5.734375q0.109375 -0.078125 0.390625 -0.84375q0.28125 -0.765625 0.671875 -1.90625q0.390625 -1.15625 0.84375 -2.5625q0.46875 -1.40625 0.921875 -2.84375q0.453125 -1.4375 0.859375 -2.734375q0.40625 -1.3125 0.703125 -2.265625q0.078125 -0.375 0.109375 -0.71875q0.046875 -0.359375 0.125 -0.640625q0.078125 -0.296875 0.265625 -0.5q0.203125 -0.203125 0.6875 -0.203125q0.359375 -0.15625 0.671875 0.375q0.328125 0.53125 0.65625 1.53125q0.328125 1.0 0.6875 2.328125q0.375 1.328125 0.828125 2.78125q0.46875 1.453125 1.03125 2.890625q0.578125 1.4375 1.34375 2.625l3.71875 -15.1875q0.046875 -0.21875 0.1875 -0.34375q0.15625 -0.140625 0.34375 -0.140625q0.203125 0 0.40625 0.1875q0.21875 0.1875 0.40625 0.609375l-3.703125 14.875q0 0.34375 -0.078125 0.8125q-0.078125 0.453125 -0.21875 0.890625q-0.125 0.4375 -0.296875 0.75q-0.171875 0.3125 -0.390625 0.375q-0.21875 0.0625 -0.484375 -0.1875q-0.265625 -0.25 -0.5625 -0.984375q-1.46875 -2.609375 -2.640625 -5.4375q-1.15625 -2.84375 -2.09375 -6.0l-3.375 11.125q-0.15625 1.15625 -0.46875 1.859375q-0.296875 0.703125 -0.65625 1.046875q-0.359375 0.34375 -0.734375 0.421875q-0.359375 0.078125 -0.65625 0.03125q-0.28125 -0.03125 -0.4375 -0.15625q-0.140625 -0.125 -0.078125 -0.171875q-0.609375 -0.8125 -1.046875 -1.953125q-0.4375 -1.15625 -0.796875 -2.515625q-0.34375 -1.359375 -0.6875 -2.84375q-0.34375 -1.5 -0.734375 -2.953125q-0.375 -1.46875 -0.90625 -2.8125q-0.53125 -1.34375 -1.234375 -2.453125zm33.13147 4.015625q-0.984375 -0.375 -1.875 0.28125q-0.890625 0.65625 -1.71875 1.859375q-0.8125 1.203125 -1.5625 2.734375q-0.734375 1.53125 -1.375 2.90625q-0.625 1.359375 -1.140625 2.34375q-0.5 0.96875 -0.921875 1.078125q-0.328125 0 -0.5 -0.109375q-0.171875 -0.125 -0.171875 -0.609375l0 -18.53125q0 -0.234375 0.203125 -0.28125q0.203125 -0.0625 0.4375 -0.03125q0.234375 0.015625 0.4375 0.109375q0.21875 0.09375 0.265625 0.203125l0.34375 14.84375q0.296875 -0.46875 0.546875 -1.328125q0.25 -0.859375 0.59375 -1.84375q0.34375 -1.0 0.796875 -1.984375q0.46875 -0.984375 1.15625 -1.78125q0.6875 -0.796875 1.671875 -1.21875q0.984375 -0.4375 2.328125 -0.3125q0.90625 0 1.453125 0.578125q0.5625 0.5625 0.578125 1.484375l0.265625 10.515625q0 0.109375 -0.046875 0.3125q-0.03125 0.1875 -0.203125 0.328125q-0.171875 0.15625 -0.484375 0.1875q-0.296875 0.046875 -0.765625 -0.140625l-0.3125 -11.59375zm10.458679 10.828125q-0.125 -0.6875 -0.21875 -1.640625q-0.09375 -0.96875 -0.203125 -1.953125q-0.109375 -1.0 -0.25 -1.859375q-0.140625 -0.875 -0.4375 -1.421875q-1.34375 2.734375 -2.375 4.3125q-1.015625 1.5625 -1.796875 2.234375q-0.78125 0.671875 -1.3125 0.65625q-0.515625 -0.03125 -0.859375 -0.484375q-0.34375 -0.453125 -0.5 -1.140625q-0.140625 -0.703125 -0.1875 -1.3125q0 -0.578125 0.25 -1.625q0.265625 -1.0625 0.71875 -2.3125q0.453125 -1.25 1.0625 -2.546875q0.625 -1.296875 1.328125 -2.34375q0.71875 -1.0625 1.484375 -1.75q0.765625 -0.6875 1.53125 -0.6875q1.140625 -0.171875 1.671875 0.5q0.546875 0.671875 0.203125 2.25q0 1.734375 0.140625 2.984375q0.140625 1.234375 0.3125 2.375q0.171875 1.125 0.3125 2.375q0.15625 1.234375 0.15625 2.96875q0 0.3125 -0.0625 0.546875q-0.0625 0.21875 -0.65625 0.21875q-0.078125 0 -0.203125 -0.125q-0.109375 -0.140625 -0.109375 -0.21875zm-1.421875 -11.78125q-0.296875 -0.421875 -0.796875 -0.078125q-0.5 0.34375 -1.0625 1.140625q-0.546875 0.78125 -1.125 1.890625q-0.578125 1.109375 -1.078125 2.25q-0.5 1.125 -0.875 2.140625q-0.359375 1.015625 -0.5 1.671875q0 0.953125 0.296875 1.078125q0.296875 0.109375 0.71875 -0.3125q0.421875 -0.421875 0.953125 -1.203125q0.546875 -0.796875 1.0625 -1.6875q0.515625 -0.90625 0.96875 -1.75q0.46875 -0.84375 0.71875 -1.375q0.25 -0.546875 0.375 -1.015625q0.140625 -0.484375 0.21875 -0.921875q0.09375 -0.4375 0.109375 -0.875q0.015625 -0.453125 0.015625 -0.953125zm4.402466 1.203125q-0.25 0.140625 -0.484375 0.28125q-0.21875 0.140625 -0.4375 0.265625q-0.203125 0.125 -0.421875 0.171875q-0.203125 0.046875 -0.4375 0q-0.15625 0 -0.265625 -0.1875q-0.109375 -0.203125 -0.171875 -0.453125q-0.0625 -0.25 -0.09375 -0.5q-0.03125 -0.25 0 -0.390625l2.53125 -1.453125l0.15625 -6.75q0.046875 -0.34375 0.421875 -0.265625q0.375 0.0625 0.765625 0.171875q0.046875 0 0.171875 0.046875q0.125 0.03125 0.171875 0.046875q-0.046875 0.71875 -0.125 1.546875q-0.0625 0.828125 -0.125 1.65625q-0.046875 0.828125 -0.0625 1.625q0 0.796875 0.078125 1.421875l3.953125 -1.109375q0.109375 -0.015625 0.171875 0.15625q0.0625 0.171875 0.125 0.40625q0.078125 0.234375 0.09375 0.46875q0.03125 0.234375 0.03125 0.234375l-4.484375 1.90625q0 0.234375 0.03125 1.140625q0.046875 0.890625 0.09375 2.125q0.0625 1.21875 0.109375 2.625q0.0625 1.40625 0.109375 2.625q0.046875 1.21875 0.078125 2.125q0.03125 0.90625 0.03125 1.140625q-0.0625 0.796875 -0.46875 0.796875q-0.40625 0 -0.875 -0.390625l-0.671875 -11.484375zm25.237305 11.15625l-6.8125 -10.890625q-0.015625 -0.015625 -0.046875 -0.1875q-0.03125 -0.171875 -0.03125 -0.28125q0 -0.34375 0.109375 -0.59375q0.125 -0.25 0.625 -0.25q0.109375 0 0.375 0.125q0.265625 0.109375 0.3125 0.21875q0.578125 0.921875 1.203125 2.0625q0.625 1.125 1.296875 2.265625q0.671875 1.125 1.40625 2.171875q0.734375 1.03125 1.5625 1.78125l0.625 -10.34375q0.03125 0 0.140625 0q0.125 -0.015625 0.171875 -0.015625q0.25 0 0.484375 0.0625q0.234375 0.0625 0.34375 0.359375q0.015625 0.9375 0 2.34375q0 1.390625 -0.046875 2.875q-0.03125 1.46875 -0.078125 2.828125q-0.03125 1.359375 -0.0625 2.171875q-0.03125 0.53125 -0.09375 1.59375q-0.0625 1.046875 -0.15625 2.375q-0.09375 1.34375 -0.21875 2.8125q-0.109375 1.484375 -0.21875 2.796875q-0.109375 1.3125 -0.1875 2.375q-0.078125 1.078125 -0.125 1.546875l-1.375 0l0.796875 -10.203125zm2.8712158 -3.5q-0.1875 -1.21875 -0.1875 -2.359375q0 -1.15625 0.140625 -2.34375q0.15625 -1.1875 0.421875 -2.453125q0.28125 -1.28125 0.65625 -2.765625q0 -0.28125 0.15625 -0.53125q0.15625 -0.25 0.421875 -0.421875q0.265625 -0.171875 0.546875 -0.28125q0.296875 -0.109375 0.5625 -0.109375q0.578125 0 1.046875 0.375q0.484375 0.359375 0.859375 0.890625q0.390625 0.53125 0.65625 1.125q0.28125 0.59375 0.46875 1.015625q0.21875 0.921875 0.296875 2.09375q0.09375 1.171875 0.015625 2.390625q-0.078125 1.203125 -0.375 2.390625q-0.28125 1.171875 -0.8125 2.140625q-0.515625 0.96875 -1.359375 1.640625q-0.828125 0.65625 -1.953125 0.8125q-0.609375 0 -0.9375 -0.40625q-0.3125 -0.40625 -0.453125 -1.0q-0.140625 -0.59375 -0.15625 -1.203125q-0.015625 -0.609375 -0.015625 -1.0zm1.34375 -0.078125q0 0.265625 0.015625 0.5q0.015625 0.234375 0.046875 0.46875q0.046875 0.21875 0.109375 0.46875q0.0625 0.25 0.171875 0.5625l0.15625 0q0.640625 0 1.078125 -0.421875q0.453125 -0.421875 0.765625 -1.09375q0.328125 -0.671875 0.53125 -1.5q0.21875 -0.828125 0.328125 -1.625q0.125 -0.8125 0.15625 -1.515625q0.046875 -0.703125 0.046875 -1.125l0 -0.53125q0 -0.328125 -0.03125 -0.765625q-0.015625 -0.4375 -0.09375 -0.890625q-0.0625 -0.46875 -0.203125 -0.84375q-0.125 -0.390625 -0.34375 -0.625q-0.203125 -0.25 -0.546875 -0.25q-0.578125 -0.171875 -0.984375 0.09375q-0.40625 0.25 -0.65625 0.875q-0.25 0.625 -0.390625 1.515625q-0.125 0.890625 -0.15625 1.984375q-0.015625 1.078125 -0.015625 2.296875q0.015625 1.203125 0.015625 2.421875zm12.497192 0.625q-0.109375 0.3125 -0.53125 0.859375q-0.40625 0.546875 -0.953125 1.09375q-0.546875 0.53125 -1.140625 0.9375q-0.59375 0.40625 -1.046875 0.40625q-0.84375 0 -1.390625 -0.78125q-0.53125 -0.796875 -0.828125 -2.03125q-0.28125 -1.25 -0.390625 -2.765625q-0.109375 -1.515625 -0.140625 -2.953125q-0.015625 -1.453125 -0.015625 -2.640625q0 -1.1875 -0.078125 -1.796875q0.09375 -0.265625 0.265625 -0.3125q0.171875 -0.0625 0.421875 -0.0625q0.203125 0 0.375 0.0625q0.171875 0.046875 0.296875 0.3125q0 0.28125 0.015625 0.96875q0.015625 0.6875 0.0625 1.546875q0.0625 0.859375 0.109375 1.796875q0.0625 0.9375 0.09375 1.78125q0.046875 0.84375 0.078125 1.515625q0.046875 0.671875 0.0625 0.984375q0.03125 0.1875 0.0625 0.609375q0.046875 0.421875 0.140625 0.890625q0.09375 0.453125 0.234375 0.828125q0.15625 0.359375 0.390625 0.390625q0.390625 0 0.796875 -0.34375q0.40625 -0.34375 0.796875 -0.875q0.40625 -0.53125 0.75 -1.15625q0.34375 -0.640625 0.609375 -1.21875q0.28125 -0.59375 0.421875 -1.0625q0.15625 -0.484375 0.1875 -0.703125q0.046875 -0.4375 0.09375 -1.265625q0.0625 -0.84375 0.078125 -1.78125q0.03125 -0.953125 0.046875 -1.796875q0.015625 -0.84375 0.015625 -1.296875l1.453125 0.078125q0.015625 2.140625 -0.03125 3.875q-0.046875 1.71875 -0.03125 3.234375q0.03125 1.515625 0.234375 2.9375q0.21875 1.421875 0.765625 2.953125q-0.078125 0.078125 -0.3125 0.21875q-0.234375 0.15625 -0.34375 0.15625q-0.65625 0 -0.890625 -0.4375q-0.21875 -0.4375 -0.28125 -1.03125q-0.0625 -0.59375 -0.109375 -1.1875q-0.03125 -0.59375 -0.34375 -0.9375zm3.6314087 -9.640625l0 -0.21875q0 -0.265625 0.1875 -0.359375q0.203125 -0.109375 0.46875 -0.109375q0.21875 0 0.390625 0.046875q0.1875 0.03125 0.296875 0.296875q0.078125 0.390625 0.15625 1.09375q0.078125 0.6875 0.1875 1.53125q0.109375 0.84375 0.21875 1.78125q0.125 0.9375 0.234375 1.78125q0.125 0.828125 0.25 1.484375q0.140625 0.65625 0.296875 1.0q-0.078125 -2.53125 0.15625 -4.390625q0.234375 -1.859375 0.90625 -3.03125q0.671875 -1.171875 1.84375 -1.625q1.1875 -0.46875 2.953125 -0.203125q0.8125 0 0.8125 0.859375q0 0.34375 -0.453125 0.46875q-0.4375 0.109375 -1.0 0.15625q-0.546875 0.03125 -1.078125 0.09375q-0.53125 0.046875 -0.765625 0.265625q-0.953125 0.515625 -1.34375 1.625q-0.375 1.109375 -0.53125 2.625q-0.15625 1.5 -0.21875 3.28125q-0.0625 1.765625 -0.359375 3.640625q0 0.265625 -0.21875 0.40625q-0.203125 0.125 -0.515625 0.125q-0.296875 0 -0.578125 -0.125q-0.265625 -0.140625 -0.421875 -0.40625l-1.875 -12.09375zm30.05365 12.015625q-0.125 -0.6875 -0.21875 -1.640625q-0.09375 -0.96875 -0.203125 -1.953125q-0.109375 -1.0 -0.25 -1.859375q-0.140625 -0.875 -0.4375 -1.421875q-1.34375 2.734375 -2.375 4.3125q-1.015625 1.5625 -1.796875 2.234375q-0.78125 0.671875 -1.3125 0.65625q-0.515625 -0.03125 -0.859375 -0.484375q-0.34375 -0.453125 -0.5 -1.140625q-0.140625 -0.703125 -0.1875 -1.3125q0 -0.578125 0.25 -1.625q0.265625 -1.0625 0.71875 -2.3125q0.453125 -1.25 1.0625 -2.546875q0.625 -1.296875 1.328125 -2.34375q0.71875 -1.0625 1.484375 -1.75q0.765625 -0.6875 1.53125 -0.6875q1.140625 -0.171875 1.671875 0.5q0.546875 0.671875 0.203125 2.25q0 1.734375 0.140625 2.984375q0.140625 1.234375 0.3125 2.375q0.171875 1.125 0.3125 2.375q0.15625 1.234375 0.15625 2.96875q0 0.3125 -0.0625 0.546875q-0.0625 0.21875 -0.65625 0.21875q-0.078125 0 -0.203125 -0.125q-0.109375 -0.140625 -0.109375 -0.21875zm-1.421875 -11.78125q-0.296875 -0.421875 -0.796875 -0.078125q-0.5 0.34375 -1.0625 1.140625q-0.546875 0.78125 -1.125 1.890625q-0.578125 1.109375 -1.078125 2.25q-0.5 1.125 -0.875 2.140625q-0.359375 1.015625 -0.5 1.671875q0 0.953125 0.296875 1.078125q0.296875 0.109375 0.71875 -0.3125q0.421875 -0.421875 0.953125 -1.203125q0.546875 -0.796875 1.0625 -1.6875q0.515625 -0.90625 0.96875 -1.75q0.46875 -0.84375 0.71875 -1.375q0.25 -0.546875 0.375 -1.015625q0.140625 -0.484375 0.21875 -0.921875q0.09375 -0.4375 0.109375 -0.875q0.015625 -0.453125 0.015625 -0.953125zm3.7774658 19.40625q0.296875 -2.765625 0.328125 -5.265625q0.046875 -2.484375 -0.03125 -4.90625q-0.0625 -2.4375 -0.203125 -4.90625q-0.125 -2.484375 -0.140625 -5.25q0.078125 -0.375 0.1875 -0.5625q0.125 -0.203125 0.65625 -0.09375q0.546875 0.125 0.65625 0.609375q0.109375 0.484375 0.046875 1.09375q-0.046875 0.609375 -0.15625 1.21875q-0.109375 0.609375 0 0.96875q0.84375 -0.609375 1.796875 -1.265625q0.953125 -0.65625 1.96875 -1.171875q1.03125 -0.515625 2.140625 -0.765625q1.109375 -0.25 2.21875 -0.015625q1.375 0.328125 1.90625 0.953125q0.546875 0.609375 0.421875 1.421875q-0.109375 0.796875 -0.75 1.765625q-0.625 0.953125 -1.5625 1.9375q-0.921875 0.96875 -2.0625 1.921875q-1.125 0.9375 -2.203125 1.75q-1.078125 0.796875 -2.015625 1.40625q-0.9375 0.609375 -1.484375 0.90625q-0.03125 0.3125 -0.078125 0.984375q-0.03125 0.671875 -0.078125 1.515625q-0.03125 0.84375 -0.078125 1.765625q-0.03125 0.921875 -0.078125 1.765625q-0.03125 0.84375 -0.078125 1.5q-0.03125 0.65625 -0.03125 0.984375q-0.0625 0.015625 -0.203125 0.046875q-0.125 0.03125 -0.3125 0.03125q-0.171875 0.015625 -0.328125 0.03125q-0.15625 0.015625 -0.21875 -0.015625q-0.078125 0 -0.15625 -0.140625q-0.078125 -0.140625 -0.078125 -0.21875zm1.46875 -14.453125q-0.078125 0.375 -0.046875 0.921875q0.046875 0.53125 0.109375 1.125q0.078125 0.59375 0.15625 1.15625q0.078125 0.546875 0.109375 0.9375q1.0 -0.765625 2.328125 -1.546875q1.328125 -0.796875 2.578125 -1.71875q1.265625 -0.921875 2.234375 -2.046875q0.96875 -1.140625 1.296875 -2.578125q0.09375 -0.546875 -0.109375 -0.734375q-0.1875 -0.203125 -0.65625 -0.28125q-1.0 -0.21875 -2.296875 0.140625q-1.296875 0.359375 -2.5 1.046875q-1.1875 0.671875 -2.09375 1.625q-0.890625 0.953125 -1.109375 1.953125zm11.390808 14.453125q0.296875 -2.765625 0.328125 -5.265625q0.046875 -2.484375 -0.03125 -4.90625q-0.0625 -2.4375 -0.203125 -4.90625q-0.125 -2.484375 -0.140625 -5.25q0.078125 -0.375 0.1875 -0.5625q0.125 -0.203125 0.65625 -0.09375q0.546875 0.125 0.65625 0.609375q0.109375 0.484375 0.046875 1.09375q-0.046875 0.609375 -0.15625 1.21875q-0.109375 0.609375 0 0.96875q0.84375 -0.609375 1.796875 -1.265625q0.953125 -0.65625 1.96875 -1.171875q1.03125 -0.515625 2.140625 -0.765625q1.109375 -0.25 2.21875 -0.015625q1.375 0.328125 1.90625 0.953125q0.546875 0.609375 0.421875 1.421875q-0.109375 0.796875 -0.75 1.765625q-0.625 0.953125 -1.5625 1.9375q-0.921875 0.96875 -2.0625 1.921875q-1.125 0.9375 -2.203125 1.75q-1.078125 0.796875 -2.015625 1.40625q-0.9375 0.609375 -1.484375 0.90625q-0.03125 0.3125 -0.078125 0.984375q-0.03125 0.671875 -0.078125 1.515625q-0.03125 0.84375 -0.078125 1.765625q-0.03125 0.921875 -0.078125 1.765625q-0.03125 0.84375 -0.078125 1.5q-0.03125 0.65625 -0.03125 0.984375q-0.0625 0.015625 -0.203125 0.046875q-0.125 0.03125 -0.3125 0.03125q-0.171875 0.015625 -0.328125 0.03125q-0.15625 0.015625 -0.21875 -0.015625q-0.078125 0 -0.15625 -0.140625q-0.078125 -0.140625 -0.078125 -0.21875zm1.46875 -14.453125q-0.078125 0.375 -0.046875 0.921875q0.046875 0.53125 0.109375 1.125q0.078125 0.59375 0.15625 1.15625q0.078125 0.546875 0.109375 0.9375q1.0 -0.765625 2.328125 -1.546875q1.328125 -0.796875 2.578125 -1.71875q1.265625 -0.921875 2.234375 -2.046875q0.96875 -1.140625 1.296875 -2.578125q0.09375 -0.546875 -0.109375 -0.734375q-0.1875 -0.203125 -0.65625 -0.28125q-1.0 -0.21875 -2.296875 0.140625q-1.296875 0.359375 -2.5 1.046875q-1.1875 0.671875 -2.09375 1.625q-0.890625 0.953125 -1.109375 1.953125zm11.859558 6.171875q0.1875 -1.21875 0.25 -3.03125q0.078125 -1.828125 0.0625 -3.875q-0.015625 -2.0625 -0.09375 -4.25q-0.078125 -2.1875 -0.21875 -4.140625q-0.125 -1.96875 -0.296875 -3.53125q-0.171875 -1.5625 -0.359375 -2.453125q0.234375 -0.15625 0.40625 -0.25q0.171875 -0.09375 0.40625 -0.09375q0.1875 0 0.3125 0.078125q0.140625 0.0625 0.21875 0.265625q0.53125 5.171875 0.71875 10.421875q0.203125 5.234375 0.3125 10.4375q0 0.234375 0 0.640625q0 0.40625 -0.03125 0.4375q-0.359375 0.1875 -0.65625 0.171875q-0.28125 -0.015625 -0.53125 -0.15625q-0.234375 -0.140625 -0.375 -0.328125q-0.125 -0.1875 -0.125 -0.34375zm3.5454102 0.8125q0 -1.703125 -0.078125 -3.59375q-0.0625 -1.90625 -0.125 -3.84375q-0.0625 -1.953125 -0.046875 -3.8125q0.03125 -1.875 0.25 -3.515625q0.046875 -0.015625 0.25 -0.03125q0.203125 -0.015625 0.28125 -0.015625q0.359375 0 0.578125 0.125q0.234375 0.109375 0.234375 0.5q0 1.5625 -0.015625 3.390625q-0.015625 1.828125 -0.03125 3.71875q0 1.890625 0 3.734375q0 1.84375 0.046875 3.34375q0.03125 0.453125 -0.171875 0.59375q-0.203125 0.15625 -0.484375 0.15625q-0.3125 0 -0.53125 -0.15625q-0.203125 -0.140625 -0.15625 -0.59375zm-0.578125 -18.875q0 -0.3125 0.203125 -0.421875q0.21875 -0.109375 0.484375 -0.109375q0.515625 0 0.640625 0.34375q0.140625 0.34375 0.140625 0.796875q-0.15625 0.28125 -0.390625 0.40625q-0.234375 0.125 -0.484375 0.0625q-0.25 -0.078125 -0.421875 -0.34375q-0.171875 -0.265625 -0.171875 -0.734375zm3.6965332 13.34375q0.078125 -0.953125 0.15625 -2.0625q0.078125 -1.125 0.25 -2.234375q0.171875 -1.109375 0.4375 -2.109375q0.28125 -1.0 0.75 -1.78125q0.46875 -0.78125 1.140625 -1.234375q0.6875 -0.46875 1.671875 -0.4375q0.65625 0 1.0 0.5625q0.359375 0.546875 0.5 1.34375q0.15625 0.78125 0.171875 1.609375q0.015625 0.828125 0.015625 1.359375q-0.53125 0 -0.875 -0.453125q-0.34375 -0.46875 -0.53125 -1.078125q-0.1875 -0.609375 -0.265625 -1.1875l-0.078125 -0.765625q-0.015625 0 -0.09375 -0.015625q-0.0625 -0.015625 -0.078125 -0.015625q-0.453125 0 -0.84375 0.515625q-0.375 0.5 -0.703125 1.28125q-0.328125 0.765625 -0.578125 1.734375q-0.234375 0.953125 -0.390625 1.875q-0.15625 0.921875 -0.25 1.703125q-0.09375 0.78125 -0.09375 1.203125q-0.046875 0.6875 0 1.515625q0.0625 0.8125 0.3125 1.53125q0.265625 0.703125 0.734375 1.21875q0.484375 0.5 1.28125 0.6875q0.96875 0 1.578125 -0.25q0.609375 -0.265625 0.984375 -0.71875q0.390625 -0.453125 0.59375 -1.0q0.21875 -0.5625 0.40625 -1.15625q0.203125 -0.59375 0.40625 -1.171875q0.21875 -0.578125 0.609375 -1.078125q0.328125 -0.078125 0.46875 0.015625q0.140625 0.09375 0.1875 0.25q0.0625 0.15625 0.0625 0.375l0 0.28125q0 1.109375 -0.375 2.140625q-0.359375 1.03125 -1.078125 1.84375q-0.703125 0.796875 -1.703125 1.28125q-0.984375 0.484375 -2.25 0.484375q-1.046875 0 -1.75 -0.671875q-0.703125 -0.671875 -1.09375 -1.625q-0.375 -0.953125 -0.53125 -1.984375q-0.15625 -1.046875 -0.15625 -1.78125zm17.896973 5.375q-0.125 -0.6875 -0.21875 -1.640625q-0.09375 -0.96875 -0.203125 -1.953125q-0.109375 -1.0 -0.25 -1.859375q-0.140625 -0.875 -0.4375 -1.421875q-1.34375 2.734375 -2.375 4.3125q-1.015625 1.5625 -1.796875 2.234375q-0.78125 0.671875 -1.3125 0.65625q-0.515625 -0.03125 -0.859375 -0.484375q-0.34375 -0.453125 -0.5 -1.140625q-0.140625 -0.703125 -0.1875 -1.3125q0 -0.578125 0.25 -1.625q0.265625 -1.0625 0.71875 -2.3125q0.453125 -1.25 1.0625 -2.546875q0.625 -1.296875 1.328125 -2.34375q0.71875 -1.0625 1.484375 -1.75q0.765625 -0.6875 1.53125 -0.6875q1.140625 -0.171875 1.671875 0.5q0.546875 0.671875 0.203125 2.25q0 1.734375 0.140625 2.984375q0.140625 1.234375 0.3125 2.375q0.171875 1.125 0.3125 2.375q0.15625 1.234375 0.15625 2.96875q0 0.3125 -0.0625 0.546875q-0.0625 0.21875 -0.65625 0.21875q-0.078125 0 -0.203125 -0.125q-0.109375 -0.140625 -0.109375 -0.21875zm-1.421875 -11.78125q-0.296875 -0.421875 -0.796875 -0.078125q-0.5 0.34375 -1.0625 1.140625q-0.546875 0.78125 -1.125 1.890625q-0.578125 1.109375 -1.078125 2.25q-0.5 1.125 -0.875 2.140625q-0.359375 1.015625 -0.5 1.671875q0 0.953125 0.296875 1.078125q0.296875 0.109375 0.71875 -0.3125q0.421875 -0.421875 0.953125 -1.203125q0.546875 -0.796875 1.0625 -1.6875q0.515625 -0.90625 0.96875 -1.75q0.46875 -0.84375 0.71875 -1.375q0.25 -0.546875 0.375 -1.015625q0.140625 -0.484375 0.21875 -0.921875q0.09375 -0.4375 0.109375 -0.875q0.015625 -0.453125 0.015625 -0.953125zm4.402466 1.203125q-0.25 0.140625 -0.484375 0.28125q-0.21875 0.140625 -0.4375 0.265625q-0.203125 0.125 -0.421875 0.171875q-0.203125 0.046875 -0.4375 0q-0.15625 0 -0.265625 -0.1875q-0.109375 -0.203125 -0.171875 -0.453125q-0.0625 -0.25 -0.09375 -0.5q-0.03125 -0.25 0 -0.390625l2.53125 -1.453125l0.15625 -6.75q0.046875 -0.34375 0.421875 -0.265625q0.375 0.0625 0.765625 0.171875q0.046875 0 0.171875 0.046875q0.125 0.03125 0.171875 0.046875q-0.046875 0.71875 -0.125 1.546875q-0.0625 0.828125 -0.125 1.65625q-0.046875 0.828125 -0.0625 1.625q0 0.796875 0.078125 1.421875l3.953125 -1.109375q0.109375 -0.015625 0.171875 0.15625q0.0625 0.171875 0.125 0.40625q0.078125 0.234375 0.09375 0.46875q0.03125 0.234375 0.03125 0.234375l-4.484375 1.90625q0 0.234375 0.03125 1.140625q0.046875 0.890625 0.09375 2.125q0.0625 1.21875 0.109375 2.625q0.0625 1.40625 0.109375 2.625q0.046875 1.21875 0.078125 2.125q0.03125 0.90625 0.03125 1.140625q-0.0625 0.796875 -0.46875 0.796875q-0.40625 0 -0.875 -0.390625l-0.671875 -11.484375zm6.8773804 10.734375q0 -1.703125 -0.078125 -3.59375q-0.0625 -1.90625 -0.125 -3.84375q-0.0625 -1.953125 -0.046875 -3.8125q0.03125 -1.875 0.25 -3.515625q0.046875 -0.015625 0.25 -0.03125q0.203125 -0.015625 0.28125 -0.015625q0.359375 0 0.578125 0.125q0.234375 0.109375 0.234375 0.5q0 1.5625 -0.015625 3.390625q-0.015625 1.828125 -0.03125 3.71875q0 1.890625 0 3.734375q0 1.84375 0.046875 3.34375q0.03125 0.453125 -0.171875 0.59375q-0.203125 0.15625 -0.484375 0.15625q-0.3125 0 -0.53125 -0.15625q-0.203125 -0.140625 -0.15625 -0.59375zm-0.578125 -18.875q0 -0.3125 0.203125 -0.421875q0.21875 -0.109375 0.484375 -0.109375q0.515625 0 0.640625 0.34375q0.140625 0.34375 0.140625 0.796875q-0.15625 0.28125 -0.390625 0.40625q-0.234375 0.125 -0.484375 0.0625q-0.25 -0.078125 -0.421875 -0.34375q-0.171875 -0.265625 -0.171875 -0.734375zm3.6652832 15.796875q-0.1875 -1.21875 -0.1875 -2.359375q0 -1.15625 0.140625 -2.34375q0.15625 -1.1875 0.421875 -2.453125q0.28125 -1.28125 0.65625 -2.765625q0 -0.28125 0.15625 -0.53125q0.15625 -0.25 0.421875 -0.421875q0.265625 -0.171875 0.546875 -0.28125q0.296875 -0.109375 0.5625 -0.109375q0.578125 0 1.046875 0.375q0.484375 0.359375 0.859375 0.890625q0.390625 0.53125 0.65625 1.125q0.28125 0.59375 0.46875 1.015625q0.21875 0.921875 0.296875 2.09375q0.09375 1.171875 0.015625 2.390625q-0.078125 1.203125 -0.375 2.390625q-0.28125 1.171875 -0.8125 2.140625q-0.515625 0.96875 -1.359375 1.640625q-0.828125 0.65625 -1.953125 0.8125q-0.609375 0 -0.9375 -0.40625q-0.3125 -0.40625 -0.453125 -1.0q-0.140625 -0.59375 -0.15625 -1.203125q-0.015625 -0.609375 -0.015625 -1.0zm1.34375 -0.078125q0 0.265625 0.015625 0.5q0.015625 0.234375 0.046875 0.46875q0.046875 0.21875 0.109375 0.46875q0.0625 0.25 0.171875 0.5625l0.15625 0q0.640625 0 1.078125 -0.421875q0.453125 -0.421875 0.765625 -1.09375q0.328125 -0.671875 0.53125 -1.5q0.21875 -0.828125 0.328125 -1.625q0.125 -0.8125 0.15625 -1.515625q0.046875 -0.703125 0.046875 -1.125l0 -0.53125q0 -0.328125 -0.03125 -0.765625q-0.015625 -0.4375 -0.09375 -0.890625q-0.0625 -0.46875 -0.203125 -0.84375q-0.125 -0.390625 -0.34375 -0.625q-0.203125 -0.25 -0.546875 -0.25q-0.578125 -0.171875 -0.984375 0.09375q-0.40625 0.25 -0.65625 0.875q-0.25 0.625 -0.390625 1.515625q-0.125 0.890625 -0.15625 1.984375q-0.015625 1.078125 -0.015625 2.296875q0.015625 1.203125 0.015625 2.421875zm6.9035034 3.34375q-0.296875 -3.5625 -0.515625 -7.125q-0.21875 -3.578125 -0.484375 -7.421875q0 -0.640625 0.6875 -0.640625l0.203125 0q0.078125 0 0.1875 0.21875q0.109375 0.203125 0.21875 0.78125q0.125 0.5625 0.265625 1.703125q0.140625 1.140625 0.34375 3.0q0.21875 1.84375 0.484375 4.609375q0.5625 -1.796875 0.875 -3.484375q0.3125 -1.6875 0.8125 -3.0625q0.5 -1.390625 1.40625 -2.4375q0.921875 -1.0625 2.625 -1.5625q0.953125 0.15625 1.53125 1.15625q0.578125 0.984375 0.921875 2.4375q0.34375 1.4375 0.46875 3.140625q0.140625 1.703125 0.171875 3.265625q0.03125 1.546875 0.03125 2.78125q0 1.21875 0.046875 1.75q-0.078125 0.203125 -0.234375 0.359375q-0.15625 0.15625 -0.359375 0.234375q-0.203125 0.0625 -0.390625 0.03125q-0.171875 -0.046875 -0.328125 -0.28125q0 -0.296875 -0.0625 -1.1875q-0.046875 -0.90625 -0.125 -2.09375q-0.078125 -1.203125 -0.171875 -2.5625q-0.09375 -1.359375 -0.171875 -2.5625q-0.0625 -1.203125 -0.109375 -2.09375q-0.046875 -0.890625 -0.078125 -1.1875q-0.546875 -0.96875 -1.09375 -1.09375q-0.546875 -0.140625 -1.09375 0.328125q-0.53125 0.46875 -1.03125 1.453125q-0.5 0.96875 -0.953125 2.203125q-0.4375 1.21875 -0.84375 2.5625q-0.390625 1.34375 -0.6875 2.609375q-0.28125 1.25 -0.484375 2.265625q-0.1875 1.015625 -0.25 1.5625q-0.078125 0.1875 -0.328125 0.359375q-0.25 0.171875 -0.53125 0.25q-0.265625 0.078125 -0.546875 0.046875q-0.28125 -0.046875 -0.40625 -0.3125z" fill-rule="nonzero"></path><path fill="#f3b41b" d="m774.3398 380.13492q0 -0.609375 0.3125 -0.8125q0.328125 -0.21875 0.625 -0.234375q0.3125 -0.03125 0.53125 0q0.234375 0.03125 0.71875 0.03125q0.3125 0.71875 0.40625 1.703125q0.109375 0.984375 0.203125 2.328125q0.09375 1.328125 0.125 2.953125q0.046875 1.609375 0.078125 3.265625q0.046875 1.640625 0.046875 3.234375q0.015625 1.59375 0.03125 2.90625q0.015625 1.296875 0.015625 2.21875l0 1.203125q-0.046875 0.859375 -0.484375 1.0625q-0.4375 0.203125 -1.375 -0.0625q-0.421875 -0.171875 -0.484375 -1.109375q-0.0625 -0.9375 -0.09375 -2.1875q-0.03125 -1.265625 -0.0625 -2.890625q-0.015625 -1.640625 -0.046875 -3.34375q-0.015625 -1.703125 -0.0625 -3.40625q-0.046875 -1.71875 -0.09375 -3.125q-0.046875 -1.40625 -0.140625 -2.375q-0.078125 -0.96875 -0.25 -1.359375zm5.915039 18.21875q0.125 -0.515625 0.875 -0.8125q0.75 -0.3125 1.65625 -0.578125q0.90625 -0.265625 1.96875 -0.578125q1.078125 -0.3125 2.046875 -0.6875q0.96875 -0.375 1.71875 -0.828125q0.75 -0.46875 1.0 -0.890625q0 0.125 -0.328125 0q-0.3125 -0.125 -1.125 -0.265625q-0.796875 -0.140625 -1.890625 -0.21875q-1.09375 -0.09375 -2.265625 -0.265625q-1.15625 -0.1875 -2.296875 -0.4375q-1.140625 -0.265625 -2.09375 -0.78125q-0.953125 -0.515625 -1.5625 -1.34375q-0.59375 -0.84375 -0.59375 -2.03125q0 -1.140625 0.484375 -2.234375q0.5 -1.109375 1.28125 -2.109375q0.796875 -1.0 1.796875 -1.84375q1.0 -0.859375 2.09375 -1.484375q1.109375 -0.640625 2.203125 -1.0q1.109375 -0.375 2.109375 -0.375q0.21875 0 0.515625 -0.015625q0.296875 -0.015625 0.609375 0.0625q0.328125 0.0625 0.578125 0.375q0.265625 0.296875 0.265625 0.8125q0 1.0625 -0.6875 1.515625q-0.6875 0.453125 -1.75 0.453125l-1.03125 -0.734375q-0.296875 0 -0.953125 0.3125q-0.640625 0.296875 -1.359375 0.828125q-0.703125 0.53125 -1.390625 1.25q-0.6875 0.703125 -1.203125 1.453125q-0.5 0.75 -0.796875 1.46875q-0.296875 0.703125 -0.296875 1.234375q0 0.703125 0.390625 1.140625q0.40625 0.4375 1.171875 0.75q0.78125 0.296875 1.84375 0.453125q1.0625 0.140625 2.1875 0.25q1.125 0.09375 2.25 0.203125q1.140625 0.09375 2.078125 0.359375q0.9375 0.25 1.59375 0.765625q0.671875 0.5 0.671875 1.28125q0.40625 0.609375 -0.15625 1.359375q-0.546875 0.734375 -1.46875 1.3125q-0.90625 0.5625 -2.109375 1.125q-1.203125 0.546875 -2.46875 0.984375q-1.265625 0.4375 -2.453125 0.75q-1.1875 0.3125 -2.0625 0.40625q-0.5 0 -0.875 -0.34375q-0.359375 -0.34375 -0.171875 -1.046875z" fill-rule="nonzero"></path><path fill="#f3b41b" d="m443.29135 320.47244l14.403748 13.13385l-6.566925 0l0 0c3.9532776 20.113068 16.556915 35.277496 32.155304 38.688477c-20.447693 4.471405 -40.106903 -12.322571 -45.289154 -38.688477l-6.566925 0z" fill-rule="nonzero"></path><path fill="#c28f15" d="m476.71652 373.00787l0 0c22.087067 0 39.992157 -23.520905 39.992157 -52.53543l13.13385 0l0 0c0 29.014526 -17.90509 52.53543 -39.992126 52.53543z" fill-rule="nonzero"></path><path fill="#000000" fill-opacity="0.0" d="m476.71652 373.00787l0 0c22.087067 0 39.992157 -23.520905 39.992157 -52.53543l13.13385 0l0 0c0 29.014526 -17.90509 52.53543 -39.992126 52.53543l-13.133881 0l0 0c-18.236328 0 -34.163116 -16.206207 -38.7222 -39.40158l-6.566925 0l11.863953 -13.13385l14.403748 13.13385l-6.566925 0l0 0c3.9532776 20.113068 16.556915 35.277496 32.155304 38.688477" fill-rule="nonzero"></path><path fill="#f3b41b" d="m314.155 191.57176l-19.37677 -2.057373l5.290741 -3.8866577l0 0c-15.089325 -13.866348 -34.223877 -18.621292 -48.816177 -12.130844l0 0c13.837479 -15.708481 39.620163 -13.817001 59.39763 4.357559l5.290741 -3.8866577z" fill-rule="nonzero"></path><path fill="#c28f15" d="m256.122 169.03625l0 0c-17.804077 13.079117 -18.319183 42.63394 -1.1505127 66.01254l-10.581482 7.7733l0 0c-17.168655 -23.378601 -16.65355 -52.933426 1.1505127 -66.01254z" fill-rule="nonzero"></path><path fill="#000000" fill-opacity="0.0" d="m256.122 169.03625l0 0c-17.804077 13.079117 -18.319183 42.63394 -1.1505127 66.01254l-10.581482 7.7733l0 0c-17.168655 -23.378601 -16.65355 -52.933426 1.1505127 -66.01254l10.581482 -7.7733l0 0c14.700073 -10.798874 37.128082 -7.171875 54.52841 8.818192l5.290741 -3.8866577l-1.7861633 17.603973l-19.37677 -2.057373l5.290741 -3.8866577l0 0c-15.089325 -13.866348 -34.223877 -18.621292 -48.816177 -12.130844" fill-rule="nonzero"></path><path fill="#f3b41b" d="m698.31537 237.20999l1.3795166 -19.445724l4.0703735 5.1539154l0 0c13.334045 -15.5681 17.426819 -34.85382 10.441956 -49.204117l0 0c16.179504 13.26738 15.180603 39.10118 -2.3011475 59.511932l4.0704346 5.1539z" fill-rule="nonzero"></path><path fill="#c28f15" d="m718.8378 178.42548l0 0c-13.683594 -17.326004 -43.234863 -16.790787 -66.00464 1.1954193l-8.140808 -10.307816l0 0c22.769775 -17.986206 52.321045 -18.521423 66.00464 -1.1954193z" fill-rule="nonzero"></path><path fill="#000000" fill-opacity="0.0" d="m718.8378 178.42548l0 0c-13.683594 -17.326004 -43.234863 -16.790787 -66.00464 1.1954193l-8.140808 -10.307816l0 0c22.769775 -17.986206 52.321045 -18.521423 66.00464 -1.1954193l8.140808 10.307816l0 0c11.297913 14.305344 8.446838 36.845276 -6.9317627 54.80052l4.0704346 5.1539l-17.661133 -1.1699066l1.3795166 -19.445724l4.0703735 5.1539154l0 0c13.334045 -15.5681 17.426819 -34.85382 10.441956 -49.204117" fill-rule="nonzero"></path></g></svg>

