<?xml version="1.0" standalone="yes"?>

<svg version="1.1" viewBox="0.0 0.0 960.0 540.0" fill="none" stroke="none" stroke-linecap="square" stroke-miterlimit="10" xmlns="http://www.w3.org/2000/svg" xmlns:xlink="http://www.w3.org/1999/xlink"><clipPath id="p.0"><path d="m0 0l960.0 0l0 540.0l-960.0 0l0 -540.0z" clip-rule="nonzero"></path></clipPath><g clip-path="url(#p.0)"><path fill="#000000" fill-opacity="0.0" d="m0 0l960.0 0l0 540.0l-960.0 0z" fill-rule="nonzero"></path><path fill="#f3f3f3" d="m351.41666 107.00193l257.16537 0l0 49.66929l-257.16537 0z" fill-rule="nonzero"></path><path fill="#333333" d="m388.47632 146.23657l0 -21.6875l-7.796875 0l0 -5.0l21.28125 0l0 5.0l-7.765625 0l0 21.6875l-5.71875 0zm17.123718 0l0 -26.6875l18.875 0l0 5.0l-13.203125 0l0 5.640625l12.921875 0l0 5.0l-12.921875 0l0 6.046875l13.203125 0l0 5.0l-18.875 0zm46.5231 0l0 -18.6875l-7.53125 18.6875l-2.46875 0l-7.53125 -18.6875l0 18.6875l-5.671875 0l0 -26.6875l7.953125 0l6.484375 16.125l6.484375 -16.125l8.0 0l0 26.6875l-5.71875 0zm10.996857 0l0 -26.6875l12.484375 0q4.078125 0 6.515625 2.390625q2.4375 2.375 2.4375 6.21875q0 3.796875 -2.5 6.203125q-2.5 2.390625 -6.453125 2.390625l-6.8125 0l0 9.484375l-5.671875 0zm11.71875 -14.484375q1.6875 0 2.796875 -0.953125q1.125 -0.96875 1.125 -2.640625q0 -1.6875 -1.125 -2.640625q-1.109375 -0.96875 -2.796875 -0.96875l-6.046875 0l0 7.203125l6.046875 0zm13.241211 14.484375l0 -26.6875l5.671875 0l0 21.6875l11.28125 0l0 5.0l-16.953125 0zm39.326233 0l-1.640625 -4.515625l-11.453125 0l-1.671875 4.515625l-6.484375 0l10.328125 -26.6875l7.109375 0l10.28125 26.6875l-6.46875 0zm-7.359375 -21.0l-4.171875 11.484375l8.328125 0l-4.15625 -11.484375zm22.46936 21.0l0 -21.6875l-7.796875 0l0 -5.0l21.28125 0l0 5.0l-7.765625 0l0 21.6875l-5.71875 0zm17.123718 0l0 -26.6875l18.875 0l0 5.0l-13.203125 0l0 5.640625l12.921875 0l0 5.0l-12.921875 0l0 6.046875l13.203125 0l0 5.0l-18.875 0z" fill-rule="nonzero"></path><path fill="#f3b41b" d="m351.41797 215.84708l257.16534 0l0 49.66928l-257.16534 0z" fill-rule="nonzero"></path><path fill="#333333" d="m440.9457 255.08171l-10.328125 -26.6875l6.484375 0l7.40625 20.53125l7.359375 -20.53125l6.46875 0l-10.28125 26.6875l-7.109375 0zm19.87558 0l0 -26.6875l5.671875 0l0 26.6875l-5.671875 0zm10.959991 0l0 -26.6875l18.875 0l0 5.0l-13.203125 0l0 5.640625l12.921875 0l0 5.0l-12.921875 0l0 6.046875l13.203125 0l0 5.0l-18.875 0zm43.726227 0l-4.6875 -18.3125l-4.640625 18.3125l-6.03125 0l-7.640625 -26.6875l6.359375 0l4.671875 19.28125l5.078125 -19.28125l4.4375 0l5.046875 19.28125l4.640625 -19.28125l6.40625 0l-7.609375 26.6875l-6.03125 0z" fill-rule="nonzero"></path><path fill="#f3b41b" d="m351.41666 324.69223l257.16537 0l0 49.66928l-257.16537 0z" fill-rule="nonzero"></path><path fill="#333333" d="m442.08316 363.92685l0 -18.6875l-7.53125 18.6875l-2.46875 0l-7.53125 -18.6875l0 18.6875l-5.671875 0l0 -26.6875l7.953125 0l6.484375 16.125l6.484375 -16.125l8.0 0l0 26.6875l-5.71875 0zm23.637451 0.484375q-6.078125 0 -10.0 -3.875q-3.921875 -3.890625 -3.921875 -9.921875q0 -6.0 3.921875 -9.90625q3.921875 -3.90625 10.0 -3.90625q6.125 0 10.03125 3.90625q3.921875 3.90625 3.921875 9.90625q0 6.0 -3.921875 9.90625q-3.90625 3.890625 -10.03125 3.890625zm0 -5.046875q3.515625 0 5.8125 -2.421875q2.3125 -2.421875 2.3125 -6.328125q0 -3.8125 -2.234375 -6.28125q-2.21875 -2.484375 -5.890625 -2.484375q-3.6875 0 -5.890625 2.484375q-2.1875 2.46875 -2.1875 6.28125q0 3.828125 2.234375 6.296875q2.25 2.453125 5.84375 2.453125zm17.95935 4.5625l0 -26.6875l10.515625 0q6.328125 0 10.234375 3.6875q3.921875 3.6875 3.921875 9.6875q0 5.953125 -3.921875 9.640625q-3.90625 3.671875 -10.234375 3.671875l-10.515625 0zm10.515625 -5.0q3.71875 0 6.03125 -2.34375q2.328125 -2.34375 2.328125 -5.96875q0 -3.8125 -2.21875 -6.09375q-2.21875 -2.28125 -6.140625 -2.28125l-4.84375 0l0 16.6875l4.84375 0zm18.204376 5.0l0 -26.6875l18.875 0l0 5.0l-13.203125 0l0 5.640625l12.921875 0l0 5.0l-12.921875 0l0 6.046875l13.203125 0l0 5.0l-18.875 0zm23.319946 0l0 -26.6875l5.671875 0l0 21.6875l11.28125 0l0 5.0l-16.953125 0z" fill-rule="nonzero"></path><path fill="#000000" fill-opacity="0.0" d="m479.99936 156.67122l0.0013122559 59.175858" fill-rule="nonzero"></path><path stroke="#ffffff" stroke-width="4.0" stroke-linejoin="round" stroke-linecap="butt" d="m479.99933 156.67122l7.9345703E-4 35.175858" fill-rule="evenodd"></path><path fill="#ffffff" stroke="#ffffff" stroke-width="4.0" stroke-linecap="butt" d="m473.3932 191.84721l6.6073303 18.152252l6.606537 -18.152542z" fill-rule="evenodd"></path><path fill="#f3b41b" d="m300.1181 293.03937l0 0c0 25.973938 13.213715 48.658417 32.125977 55.151886l0 -5.354309l10.708679 12.517395l-10.708679 8.899902l0 -5.354309l0 0c-18.912262 -6.4934998 -32.125977 -29.177948 -32.125977 -55.151917z" fill-rule="nonzero"></path><path fill="#c28f15" d="m342.95276 246.7874l0 0c-22.097076 0 -40.56784 22.352188 -42.64499 51.606308l0 0c-1.133728 -15.967194 2.847168 -31.830078 10.964722 -43.691833c8.117523 -11.861755 19.619476 -18.623138 31.680267 -18.623138z" fill-rule="nonzero"></path><path fill="#000000" fill-opacity="0.0" d="m300.1181 293.03937l0 0c0 25.973938 13.213715 48.658417 32.125977 55.151886l0 -5.354309l10.708679 12.517395l-10.708679 8.899902l0 -5.354309l0 0c-18.912262 -6.4934998 -32.125977 -29.177948 -32.125977 -55.151917l0 -10.708649l0 0c0 -31.458496 19.177734 -56.960632 42.834656 -56.960632l0 10.708664l0 0c-22.097076 0 -40.56784 22.352188 -42.64499 51.606308" fill-rule="nonzero"></path><path fill="#f3b41b" d="m659.8819 309.10236l0 0c0 -25.973938 -13.213684 -48.658386 -32.125977 -55.151886l0 5.3543396l-10.708679 -12.51741l10.708679 -8.899918l0 5.3543243l0 0c18.912292 6.4934845 32.125977 29.177933 32.125977 55.1519z" fill-rule="nonzero"></path><path fill="#c28f15" d="m617.04724 355.35434l0 0c22.097107 0 40.56787 -22.352173 42.64496 -51.606323l0 0c1.133728 15.967194 -2.847107 31.830078 -10.964661 43.691833c-8.117554 11.861755 -19.619507 18.623138 -31.680298 18.623138z" fill-rule="nonzero"></path><path fill="#000000" fill-opacity="0.0" d="m659.8819 309.10236l0 0c0 -25.973938 -13.213684 -48.658386 -32.125977 -55.151886l0 5.3543396l-10.708679 -12.51741l10.708679 -8.899918l0 5.3543243l0 0c18.912292 6.4934845 32.125977 29.177933 32.125977 55.1519l0 10.708649l0 0c0 31.458496 -19.177734 56.960632 -42.834656 56.960632l0 -10.708649l0 0c22.097107 0 40.56787 -22.352173 42.64496 -51.606323" fill-rule="nonzero"></path><path fill="#000000" fill-opacity="0.0" d="m284.90067 281.42285l1.333252 -30.548752l0 0c54.765472 -37.694305 66.69708 -85.430954 27.564941 -110.28346c-39.13211 -24.852493 -116.52127 -18.687408 -178.78804 14.242874c-62.266777 32.930283 -89.03322 81.84874 -61.837105 113.01369c27.196114 31.164978 99.45437 34.377136 166.93442 7.4208984z" fill-rule="nonzero"></path><path stroke="#f3b41b" stroke-width="3.0" stroke-linejoin="round" stroke-linecap="butt" stroke-dasharray="12.0,9.0" d="m284.90067 281.42285l1.333252 -30.548752l0 0c54.765472 -37.694305 66.69708 -85.430954 27.564941 -110.28346c-39.13211 -24.852493 -116.52127 -18.687408 -178.78804 14.242874c-62.266777 32.930283 -89.03322 81.84874 -61.837105 113.01369c27.196114 31.164978 99.45437 34.377136 166.93442 7.4208984z" fill-rule="nonzero"></path><path fill="#f3b41b" d="m135.93309 185.69826q-0.06210327 -0.19340515 0.043121338 -0.32563782q0.10522461 -0.13223267 0.29385376 -0.209198q0.18862915 -0.07695007 0.40647888 -0.11405945q0.21783447 -0.037094116 0.36660767 -0.084854126q0.22944641 0.25456238 0.60539246 1.1184998q0.3759308 0.86395264 0.8713074 2.0998077q0.4953766 1.2358551 1.0172424 2.7585907q0.5367584 1.5179596 1.0729523 3.0853424q0.5463104 1.5477142 1.0336456 3.0651245q0.49743652 1.497757 0.9136505 2.7426147q0.411438 1.2299805 0.69332886 2.1077118l0.3631134 1.1306152q0.12791443 0.500473 -0.036834717 0.6518097q-0.14985657 0.14657593 -0.8963318 0.1728363q-0.0839386 -0.005874634 -0.36268616 -0.72050476q-0.27874756 -0.7146301 -0.6907196 -1.8952026q-0.4119873 -1.1805725 -0.93862915 -2.7181854q-0.5117798 -1.5423889 -1.0623169 -3.1543884q-0.5404358 -1.6316528 -1.1058502 -3.2388763q-0.5701904 -1.6221008 -1.0448151 -2.9466705q-0.4794159 -1.339447 -0.87924194 -2.277771q-0.39982605 -0.938324 -0.66326904 -1.2476044zm8.263733 7.8171997q-0.104141235 0.033432007 -0.28375244 0.18954468q-0.16474915 0.15133667 -0.33480835 0.33720398q-0.1748352 0.17098999 -0.3496704 0.34197998q-0.15995789 0.16621399 -0.30873108 0.213974q-0.25291443 0.08117676 -0.47976685 0.039123535q-0.22685242 -0.042053223 -0.3224182 -0.33958435q-0.081222534 -0.25291443 0.0851593 -0.5524597q0.1812439 -0.30433655 0.42199707 -0.62776184q0.2508545 -0.3430786 0.51605225 -0.6415405q0.2604065 -0.31332397 0.34707642 -0.5544739q-0.17362976 -0.38734436 -0.5569458 -1.4786682q-0.37321472 -1.1109619 -0.797348 -2.5337982q-0.40927124 -1.427597 -0.7579193 -2.973114q-0.3534546 -1.5603943 -0.45300293 -2.8412476q-0.08467102 -1.2856293 0.1763916 -2.107895q0.25630188 -0.8371277 1.0962677 -0.82777405q0.52072144 -0.16712952 1.0524902 0.006790161q0.53178406 0.17391968 0.9774475 0.53959656q0.4456482 0.36566162 0.79086304 0.8784485q0.34042358 0.49790955 0.48376465 0.9441986q0.081222534 0.25289917 0.057754517 0.5886383q-0.01335144 0.31608582 -0.3109131 0.41159058l-0.0743866 0.023880005q-0.029754639 0.009552002 -0.06906128 -0.010650635q-1.087204 -1.3412781 -1.637558 -1.624115q-0.55033875 -0.2828369 -0.7188873 0.21434021q-0.15367126 0.49240112 -0.012634277 1.5958405q0.1511383 1.083786 0.44725037 2.4656525q0.31098938 1.3771057 0.68940735 2.9130707q0.3885193 1.5163116 0.6952667 2.8291168q0.4676056 -0.28137207 0.75668335 -0.5054321q0.29917908 -0.24372864 0.52397156 -0.46357727q0.2348938 -0.2394867 0.41505432 -0.44500732q0.19503784 -0.21029663 0.42938232 -0.40039062q0.45436096 -0.42481995 1.0176544 -0.8681793q0.5632782 -0.44335938 1.158371 -0.63438416q0.2341156 0.72895813 0.11921692 1.2909698q-0.10002136 0.55722046 -0.41625977 1.0033417q-0.3210144 0.4312439 -0.81359863 0.7370453q-0.4777069 0.3010254 -0.97984314 0.57707214q-0.5021515 0.27604675 -0.95965576 0.5377655q-0.4474182 0.24208069 -0.74180603 0.5006714q0.59994507 1.6125488 1.1304016 2.8043365q0.5256653 1.1768951 0.955246 2.1056824q0.4248047 0.91389465 0.73753357 1.683258q0.31272888 0.76934814 0.48680115 1.5668182q0.05732727 0.17851257 0.17253113 0.48614502q0.115219116 0.30763245 0.1709137 0.6343689q0.06581116 0.30708313 -0.030960083 0.56788635q-0.08187866 0.25602722 -0.4091797 0.36108398q-0.2975464 0.09550476 -0.48931885 0.0093688965q-0.19177246 -0.086135864 -0.37496948 -0.50323486q-0.8182068 -1.9855652 -1.3613739 -3.3701935q-0.52827454 -1.389389 -0.89834595 -2.3372803q-0.35517883 -0.952652 -0.53196716 -1.5030823l-0.3726654 -1.1603699q-0.033447266 -0.104141235 -0.063201904 -0.09458923zm18.423126 -7.521637q-0.19503784 0.21029663 -0.37519836 0.41581726q-0.1652832 0.20074463 -0.3353424 0.38661194q-0.15518188 0.18109131 -0.34913635 0.29257202q-0.17906189 0.10671997 -0.41656494 0.13371277q-0.1487732 0.04776001 -0.3102417 -0.097335815q-0.16625977 -0.15997314 -0.30221558 -0.378891q-0.13595581 -0.2189331 -0.24215698 -0.44740295q-0.10618591 -0.22846985 -0.1194458 -0.37191772l1.965805 -2.1571198l-1.9152374 -6.4744415q-0.06048584 -0.34161377 0.3204651 -0.38183594q0.37617493 -0.055114746 0.7815552 -0.07035828q0.044631958 -0.014328003 0.17797852 -0.007888794q0.12857056 -0.008453369 0.17797852 -0.007904053q0.17515564 0.6986542 0.35398865 1.5109863q0.19371033 0.80755615 0.3874359 1.6151123q0.20858765 0.8027954 0.43737793 1.5662689q0.2436676 0.75871277 0.50917053 1.329895l3.424759 -2.264389q0.099365234 -0.048309326 0.21142578 0.09623718q0.11206055 0.14453125 0.24324036 0.34858704q0.14605713 0.19926453 0.23260498 0.41764832q0.10140991 0.21359253 0.10140991 0.21359253l-3.686905 3.1854706q0.07165527 0.22314453 0.37852478 1.0764313q0.31697083 0.8336487 0.7390442 1.9945679q0.43218994 1.1412811 0.9068146 2.4658508q0.4895172 1.3197784 0.9068146 2.4658356q0.41731262 1.1460419 0.7241821 1.9993439q0.30685425 0.85328674 0.37852478 1.0764313q0.18415833 0.7778168 -0.20265198 0.90197754q-0.3868103 0.12414551 -0.9525757 -0.10450745l-4.151428 -10.728958zm15.085922 -5.104828q-1.0519409 -0.05618286 -1.699295 0.8408203q-0.64733887 0.89701843 -1.0679474 2.2956085q-0.4057312 1.3938141 -0.6516266 3.0809326q-0.23100281 1.6823425 -0.42053223 3.187271q-0.1794281 1.4852905 -0.36938477 2.5800934q-0.17984009 1.0751648 -0.5480957 1.3082275q-0.3124237 0.10028076 -0.5095215 0.048675537q-0.20187378 -0.066482544 -0.3499756 -0.5276489l-5.6664886 -17.643646q-0.07167053 -0.22315979 0.107406616 -0.3298645q0.17428589 -0.12158203 0.40701294 -0.1634674q0.22793579 -0.056747437 0.4500122 -0.029571533q0.23693848 0.022415161 0.3150177 0.11222839l4.866226 14.027695q0.13934326 -0.5370178 0.114593506 -1.4316406q-0.024734497 -0.8946228 0.0015563965 -1.9369049q0.021530151 -1.0571594 0.15197754 -2.1328583q0.14530945 -1.0804901 0.5562439 -2.0493164q0.4109497 -0.96881104 1.219223 -1.6713257q0.8034973 -0.71739197 2.12117 -1.0090637q0.8628845 -0.27696228 1.560379 0.10632324q0.70758057 0.36364746 1.0043488 1.2366028l3.4683838 9.930756q0.033447266 0.104141235 0.050933838 0.31185913q0.027572632 0.18807983 -0.09307861 0.37449646q-0.115875244 0.20129395 -0.40386963 0.32655334q-0.2683258 0.13536072 -0.7719879 0.100097656l-3.842682 -10.942932zm5.338333 4.391098q-0.12434387 0.07273865 -0.3581543 0.21342468q-0.22369385 0.121032715 -0.5111542 0.19688416q-0.27734375 0.05619812 -0.5238495 0.004043579q-0.26615906 -0.06225586 -0.3664856 -0.3746643q-0.05256653 -0.16365051 -0.0020599365 -0.26190186q0.045715332 -0.11314392 0.1764679 -0.31921387q0.40711975 -0.62298584 0.5646057 -1.4612122q0.1574707 -0.8382416 0.22200012 -1.7615051q0.06451416 -0.9232788 0.15879822 -1.8560944q0.10916138 -0.93759155 0.37979126 -1.7301025q0.26585388 -0.80737305 0.8360901 -1.4334869q0.5851135 -0.6308899 1.6164246 -0.94551086q0.43144226 -0.13847351 1.019043 -0.097351074q0.5828247 0.026260376 1.1390381 0.22517395q0.5710907 0.19412231 1.0215149 0.57466125q0.46531677 0.3757782 0.6516571 0.95596313q0.18113708 0.15519714 -0.066589355 0.6613617q-0.23760986 0.4865265 -0.7191162 1.1333923q-0.4862976 0.63197327 -1.141571 1.3510284q-0.64038086 0.7142639 -1.2403717 1.3499146q-0.5851135 0.6308899 -1.0501251 1.1247559q-0.45491028 0.4742279 -0.5707855 0.67552185q-0.05267334 0.29588318 -0.021942139 0.6470337q0.030731201 0.35116577 0.08164978 0.6630249q0.061019897 0.2922058 0.12258911 0.53500366q0.061569214 0.24279785 0.09979248 0.3618164q0.15289307 0.47605896 0.29458618 1.0705719q0.1565857 0.58973694 0.41307068 1.0817566q0.25170898 0.4771576 0.6889038 0.7142639q0.43719482 0.23710632 1.2108154 -0.01121521q0.8331299 -0.26742554 1.4283447 -0.9179535q0.59521484 -0.6505432 1.0289612 -1.446167q0.42895508 -0.8105011 0.7102356 -1.6720581q0.29136658 -0.8812256 0.5120392 -1.6248627q0.22068787 -0.74365234 0.41897583 -1.2503815q0.19830322 -0.5067291 0.421463 -0.5783539q0.2529297 -0.08117676 0.56425476 -0.08265686q0.32621765 -0.0062408447 0.42655945 0.3061676q0.1481018 0.46116638 -0.023162842 1.205368q-0.15638733 0.73942566 -0.5221405 1.644516q-0.37054443 0.890213 -0.9047394 1.832962q-0.5389557 0.92785645 -1.1554565 1.716507q-0.60162354 0.7838745 -1.2504883 1.3695831q-0.63397217 0.5809326 -1.2142029 0.76716614q-1.1306763 0.3629303 -1.88768 -0.0012664795q-0.7617645 -0.3790741 -1.2625885 -1.1208801q-0.5056 -0.75668335 -0.82147217 -1.6891327q-0.30578613 -0.95210266 -0.5935364 -1.7458954zm2.4380798 -8.249207q-0.41656494 0.13371277 -0.75886536 0.70306396q-0.34230042 0.5693512 -0.567749 1.2981262q-0.23022461 0.7138977 -0.29736328 1.4246826q-0.071899414 0.69589233 0.05709839 1.0975494q0.38682556 -0.12414551 1.0101624 -0.63601685q0.61854553 -0.52674866 1.1792297 -1.1826172q0.5606842 -0.6558533 0.9284973 -1.2990417q0.3827057 -0.6479645 0.24891663 -1.0645142q-0.076431274 -0.23802185 -0.30274963 -0.32948303q-0.21142578 -0.09623718 -0.47813416 -0.10910034q-0.27148438 -0.02772522 -0.5387268 0.00881958q-0.2720337 0.02168274 -0.48031616 0.088531494zm18.102936 -3.6773376q-0.009567261 -0.029754639 -0.043548584 -0.084487915q-0.033996582 -0.054718018 -0.043548584 -0.084472656q-0.1194458 -0.37191772 0.15899658 -0.52693176q0.28852844 -0.17466736 0.5414429 -0.25584412q0.26779175 -0.08595276 0.76286316 0.28025818q0.5051727 0.34657288 1.1999359 0.9768982q0.69000244 0.615448 1.4426422 1.3748779q0.74786377 0.7445679 1.5207214 1.4646912q0.7680664 0.70526123 1.4984436 1.242096q0.7452698 0.5320587 1.3264618 0.70654297q-0.5870056 -2.338745 -1.0286255 -3.9692993q-0.44161987 -1.6305542 -0.76542664 -2.7409668q-0.30892944 -1.1152039 -0.5143738 -1.7548981q-0.20544434 -0.63967896 -0.33021545 -0.97706604q-0.11465454 -0.3570404 -0.16775513 -0.47128296q-0.053100586 -0.11424255 -0.06744385 -0.15887451q-0.1433258 -0.44628906 -0.013122559 -0.60295105q0.13020325 -0.15666199 0.397995 -0.24263q0.32730103 -0.10505676 0.71780396 -0.11552429q0.39050293 -0.010467529 0.519516 0.39118958q0.59516907 1.5976868 1.060669 3.3026123q0.4756012 1.6852722 0.8720398 3.3795624q0.40653992 1.6746216 0.8386078 3.2754211q0.43206787 1.6007996 0.9842224 3.0645752q-0.030288696 0.05895996 -0.18493652 0.19064331q-0.15940857 0.11682129 -0.34858704 0.24317932q-0.17907715 0.10670471 -0.36291504 0.1985321q-0.17375183 0.07218933 -0.24813843 0.096069336q-0.2672577 0.0365448 -1.0082855 -0.4312439q-0.7261505 -0.47254944 -1.6960907 -1.2442932q-0.9699402 -0.7717438 -2.0561829 -1.7523041q-1.0862427 -0.9805603 -2.0890808 -1.905838q-1.0028534 -0.92529297 -1.7751465 -1.6948242q-0.77708435 -0.7844238 -1.098938 -1.1734161zm12.860535 6.6371155q-0.5207825 -1.6215515 -1.1732788 -3.3977356q-0.6424103 -1.7958527 -1.2943573 -3.6214447q-0.6567383 -1.8404694 -1.2104187 -3.61557q-0.54359436 -1.7947388 -0.8369751 -3.4236298q0.039855957 -0.029205322 0.2284851 -0.106170654q0.18862915 -0.07695007 0.26301575 -0.10083008q0.34217834 -0.10983276 0.5886841 -0.057678223q0.25660706 0.03251648 0.37605286 0.4044342q0.4777832 1.4876556 1.0219116 3.2329865q0.54411316 1.7453461 1.1073608 3.5501862q0.57810974 1.8000641 1.1418915 3.5555115q0.56378174 1.7554321 1.0670929 3.1692657q0.16830444 0.42185974 0.01789856 0.61782837q-0.14562988 0.21084595 -0.41342163 0.29681396q-0.2975464 0.09550476 -0.5536041 0.013580322q-0.23640442 -0.07180786 -0.33033752 -0.5175476zm-6.322052 -17.79425q-0.095565796 -0.29753113 0.06439209 -0.46374512q0.17485046 -0.17098999 0.4277649 -0.25216675q0.49095154 -0.15759277 0.7150879 0.13150024q0.23899841 0.28430176 0.37756348 0.71572876q-0.06277466 0.31552124 -0.24771118 0.50616455q-0.18495178 0.19064331 -0.4420929 0.20755005q-0.26193237 0.0020141602 -0.5068054 -0.198349q-0.24487305 -0.20037842 -0.38819885 -0.64668274zm8.438782 11.68306q-0.12432861 0.07272339 -0.35813904 0.21340942q-0.2237091 0.121032715 -0.5111542 0.19689941q-0.27734375 0.05619812 -0.5238495 0.0040283203q-0.26615906 -0.06225586 -0.36650085 -0.3746643q-0.05255127 -0.16363525 -0.0020446777 -0.26190186q0.045715332 -0.11312866 0.1764679 -0.3191986q0.40711975 -0.62298584 0.56459045 -1.4612274q0.15748596 -0.8382263 0.22200012 -1.7615051q0.06452942 -0.92326355 0.15881348 -1.8560791q0.10914612 -0.9376068 0.379776 -1.7301025q0.26585388 -0.8073883 0.8360901 -1.4334869q0.5851135 -0.6308899 1.6164398 -0.94551086q0.43144226 -0.13848877 1.019043 -0.097351074q0.58280945 0.026260376 1.1390228 0.22515869q0.5710907 0.19412231 1.0215302 0.5746765q0.46531677 0.37576294 0.65164185 0.9559479q0.18113708 0.15519714 -0.0665741 0.66137695q-0.23760986 0.4865265 -0.71913147 1.1333771q-0.4862976 0.6319885 -1.1415558 1.3510284q-0.6403961 0.7142639 -1.240387 1.3499298q-0.5851135 0.6308899 -1.0501099 1.1247559q-0.45491028 0.47421265 -0.5707855 0.6755066q-0.05267334 0.29588318 -0.021957397 0.64704895q0.030731201 0.35116577 0.08164978 0.6630249q0.061035156 0.2922058 0.12260437 0.53500366q0.061553955 0.24279785 0.09977722 0.3618164q0.15289307 0.4760437 0.29460144 1.0705566q0.15657043 0.58973694 0.41307068 1.0817719q0.25170898 0.4771576 0.6889038 0.71424866q0.43717957 0.23710632 1.2108154 -0.011199951q0.8331299 -0.26742554 1.4283447 -0.91796875q0.59521484 -0.65052795 1.0289459 -1.4461517q0.42897034 -0.81051636 0.7102356 -1.6720734q0.29138184 -0.8812103 0.51205444 -1.6248627q0.2206726 -0.74365234 0.41897583 -1.2503662q0.19830322 -0.5067291 0.421463 -0.57836914q0.25291443 -0.08117676 0.56425476 -0.0826416q0.32621765 -0.0062561035 0.4265442 0.30615234q0.14811707 0.46118164 -0.023147583 1.2053833q-0.15638733 0.73942566 -0.52215576 1.644516q-0.37054443 0.890213 -0.9047241 1.8329468q-0.53897095 0.9278717 -1.1554718 1.7165222q-0.60162354 0.7838745 -1.250473 1.3695831q-0.6339874 0.58091736 -1.2142029 0.76716614q-1.1306915 0.36291504 -1.88768 -0.0012817383q-0.7617798 -0.3790741 -1.2625885 -1.1208801q-0.5056 -0.75668335 -0.8214874 -1.6891327q-0.30577087 -0.95210266 -0.5935364 -1.7458801zm2.438095 -8.249207q-0.41656494 0.13371277 -0.75886536 0.70306396q-0.34230042 0.5693512 -0.567749 1.2981262q-0.23023987 0.7138977 -0.29736328 1.4246674q-0.071899414 0.69589233 0.05709839 1.0975647q0.3868103 -0.12416077 1.0101471 -0.6360321q0.6185608 -0.52674866 1.179245 -1.1826019q0.5606842 -0.65586853 0.9284973 -1.299057q0.38269043 -0.6479645 0.24891663 -1.0644989q-0.07644653 -0.23803711 -0.30274963 -0.3294983q-0.21142578 -0.09623718 -0.47813416 -0.10908508q-0.27148438 -0.02772522 -0.53874207 0.00881958q-0.27201843 0.02166748 -0.4803009 0.088531494zm14.360168 8.124985q-0.25334167 -0.32894897 -0.80888367 -1.0367737q-0.55555725 -0.7078247 -1.2624817 -1.5803986q-0.6968231 -0.8922272 -1.4913788 -1.8843689q-0.77967834 -0.99690247 -1.486618 -1.8694763q-0.6968231 -0.8922272 -1.2523651 -1.6000671q-0.55555725 -0.7078247 -0.83332825 -1.0617371q-0.23532104 -0.17062378 -0.44511414 -0.41506958q-0.19970703 -0.26411438 -0.29048157 -0.5467682q-0.09555054 -0.29753113 -0.048202515 -0.55888367q0.06222534 -0.26612854 0.3114624 -0.46099854q0.26779175 -0.08595276 0.5381775 0.04058838q0.28050232 0.10688782 0.4658661 0.32637024l5.265564 6.482132q-0.09979248 -0.3618164 -0.28709412 -1.3027191q-0.19207764 -0.95578 -0.43249512 -2.01091q-0.2255249 -1.059906 -0.42770386 -1.9960327q-0.20695496 -0.951004 -0.26211548 -1.3271484q-0.066345215 -0.25767517 -0.14170837 -0.59451294q-0.0753479 -0.33683777 -0.08164978 -0.6630249q-0.006286621 -0.32617188 0.10057068 -0.6066284q0.11695862 -0.30010986 0.45913696 -0.40994263q0.2529297 -0.08117676 0.39105225 -0.05987549q0.13334656 0.00642395 0.36335754 0.21157837l7.4624023 6.67955l-2.7233582 -8.47966q0.72898865 -0.23399353 1.1311035 0.047195435q0.39733887 0.26631165 0.6288605 0.7827606q0.24160767 0.4968109 0.3631134 1.1306152q0.11671448 0.61894226 0.28448486 1.0902252q0.05734253 0.17851257 0.27342224 0.74916077q0.21131897 0.5557556 0.4847412 1.3049011q0.28829956 0.74438477 0.58029175 1.6024475q0.3068695 0.853302 0.58029175 1.6024628q0.28352356 0.7294922 0.49960327 1.3001404q0.21609497 0.57063293 0.27342224 0.7491455q0.32611084 0.4532776 0.18525696 0.67900085q-0.13075256 0.20606995 -0.47239685 0.26649475q-0.34162903 0.060424805 -0.7406006 -0.057662964q-0.40374756 -0.13296509 -0.57901 -0.37210083l-7.922943 -7.040436q1.0546875 3.846054 1.693161 6.4472656q0.63371277 2.586319 1.039154 4.3597565q0.01638794 0.3065338 -0.15257263 0.39360046q-0.17375183 0.07217407 -0.39582825 0.04499817q-0.2071991 -0.031967163 -0.4382782 -0.13830566q-0.23587036 -0.12121582 -0.39788818 -0.21688843z" fill-rule="nonzero"></path><path fill="#f3b41b" d="m124.90706 237.1715q-0.2170639 -0.9313507 -0.48190308 -2.0114594q-0.26961517 -1.094986 -0.44519043 -2.2037506q-0.17556763 -1.1087799 -0.2284317 -2.1420593q-0.037986755 -1.0380554 0.16944122 -1.9251404q0.20742798 -0.8871002 0.7086029 -1.5238495q0.5112686 -0.65641785 1.4580994 -0.9275055q0.62485504 -0.20057678 1.1241531 0.22993469q0.50940704 0.4108429 0.8869705 1.1265717q0.3876648 0.69607544 0.6557617 1.4797668q0.26811218 0.78367615 0.43055725 1.2894897q-0.50582886 0.16235352 -0.97169495 -0.16401672q-0.47063446 -0.3412323 -0.8355026 -0.8641205q-0.36486053 -0.5228729 -0.61602783 -1.0494385l-0.3085022 -0.7050781q-0.014877319 0.004776001 -0.09403992 0.0137786865q-0.06428528 0.0042266846 -0.0791626 0.009002686q-0.43144226 0.13848877 -0.6457138 0.74879456q-0.2041626 0.59065247 -0.27770233 1.4347687q-0.078308105 0.8292389 -0.020126343 1.8279877q0.06829071 0.9791107 0.20140076 1.9045715q0.13311768 0.9254761 0.28274536 1.6979675q0.14962769 0.7724762 0.2786255 1.1741486q0.16559601 0.6688843 0.4634552 1.4430237q0.30795288 0.7544861 0.76576996 1.3623962q0.4679184 0.5882721 1.0718994 0.9359436q0.61408997 0.32800293 1.4301758 0.26298523q0.9223938 -0.29606628 1.426178 -0.7203369q0.49899292 -0.4391327 0.7174988 -0.98516846q0.23336792 -0.5507965 0.259552 -1.1335602q0.0362854 -0.602417 0.0332489 -1.2250214q0.011856079 -0.62739563 0.02848816 -1.239914q0.03149414 -0.61727905 0.25054932 -1.2127228q0.28852844 -0.17466736 0.45109558 -0.12837219q0.16256714 0.046279907 0.25497437 0.18070984q0.107284546 0.12966919 0.17417908 0.3379364l0.085998535 0.2677765q0.33921814 1.0562439 0.2975006 2.15271q-0.02684021 1.0916901 -0.4627533 2.0849304q-0.42581177 0.9736023 -1.2298584 1.7404022q-0.7891693 0.76200867 -1.9942322 1.148819q-0.9967804 0.3199463 -1.8717194 -0.1048584q-0.8749237 -0.4248047 -1.5383072 -1.2128906q-0.64850616 -0.79286194 -1.1126099 -1.7269745q-0.46888733 -0.9489746 -0.6934433 -1.6481781zm17.262634 -11.268082q-1.0519562 -0.05619812 -1.699295 0.84080505q-0.64733887 0.89701843 -1.0679474 2.2956085q-0.4057312 1.3938141 -0.6516266 3.0809326q-0.23101807 1.6823578 -0.42053223 3.1872864q-0.1794281 1.4852753 -0.36938477 2.5800781q-0.17985535 1.0751648 -0.5480957 1.3082275q-0.3124237 0.10029602 -0.5095215 0.048675537q-0.20187378 -0.066482544 -0.34999084 -0.5276489l-5.6664734 -17.643646q-0.07167053 -0.22314453 0.10739136 -0.3298645q0.17430115 -0.12158203 0.40701294 -0.16345215q0.22795105 -0.056762695 0.4500122 -0.029571533q0.23695374 0.022399902 0.31503296 0.112213135l4.866226 14.02771q0.139328 -0.5370331 0.114593506 -1.4316559q-0.024734497 -0.89460754 0.0015563965 -1.9369049q0.021530151 -1.0571594 0.15196228 -2.1328583q0.1453247 -1.0804901 0.55625916 -2.0493164q0.41093445 -0.96881104 1.2192078 -1.6713257q0.8034973 -0.71739197 2.1211853 -1.0090637q0.8628845 -0.27696228 1.560379 0.1063385q0.70758057 0.3636322 1.0043488 1.2365875l3.4683838 9.930771q0.033447266 0.10412598 0.05091858 0.31185913q0.02758789 0.18806458 -0.093063354 0.3744812q-0.115875244 0.20129395 -0.40386963 0.32655334q-0.26834106 0.13536072 -0.7719879 0.100097656l-3.842682 -10.942917zm13.269287 7.113083q-0.32925415 -0.6163635 -0.70996094 -1.4951935q-0.3854828 -0.893692 -0.79063416 -1.7974854q-0.4099121 -0.9186859 -0.80659485 -1.6939087q-0.40145874 -0.79011536 -0.8513489 -1.2200623q-0.44334412 3.0140839 -0.942688 4.831787q-0.48924255 1.7980499 -1.0276642 2.6765137q-0.5384369 0.87846375 -1.0490417 1.02594q-0.50050354 0.12783813 -0.9663696 -0.1985321q-0.46585083 -0.32635498 -0.8248596 -0.93318176q-0.3488922 -0.62646484 -0.5798645 -1.1923218q-0.17677307 -0.5504303 -0.2588501 -1.6235657q-0.07197571 -1.092804 -0.022750854 -2.421402q0.049209595 -1.3286133 0.23287964 -2.7496185q0.1985321 -1.425766 0.54789734 -2.6373901q0.35946655 -1.2312775 0.87823486 -2.1198273q0.5187683 -0.88856506 1.2477722 -1.1225586q1.033493 -0.51223755 1.7447662 -0.03491211q0.7261505 0.4725647 0.8814087 2.0801544q0.5303345 1.6513062 1.046463 2.7984467q0.5113373 1.1322784 1.0237732 2.165741q0.5076599 1.0185852 1.0237732 2.165741q0.52622986 1.1274872 1.0565643 2.7787933q0.09555054 0.29753113 0.10771179 0.53977966q0.007385254 0.22737122 -0.55796814 0.408844q-0.0743866 0.023864746 -0.23162842 -0.056930542q-0.1471405 -0.10046387 -0.17102051 -0.17485046zm-4.956314 -10.782394q-0.41168213 -0.3109436 -0.78263855 0.16915894q-0.37097168 0.48008728 -0.6628876 1.4107056q-0.28181458 0.91096497 -0.49305725 2.1438904q-0.21124268 1.2329254 -0.3385315 2.4717255q-0.13208008 1.223938 -0.17857361 2.3055115q-0.03161621 1.0768127 0.03515625 1.7446136q0.29144287 0.9074707 0.6123352 0.9357605q0.31611633 0.013397217 0.58880615 -0.51719666q0.27268982 -0.53060913 0.5396271 -1.4367981q0.27703857 -0.9258423 0.49565125 -1.9313965q0.21385193 -1.0204315 0.38728333 -1.9622498q0.18832397 -0.94659424 0.26391602 -1.5288086q0.07081604 -0.5970764 0.04650879 -1.0815887q-0.014221191 -0.5041504 -0.0736084 -0.9445648q-0.044525146 -0.4452057 -0.16342163 -0.8665161q-0.123672485 -0.436203 -0.27656555 -0.9122467zm8.286179 10.0746q-1.3720093 -3.3011322 -2.669632 -6.6261444q-1.3023987 -3.3398895 -2.730667 -6.91835q-0.19587708 -0.6099396 0.45872498 -0.8200531l0.19340515 -0.062088013q0.0743866 -0.023864746 0.24542236 0.15097046q0.1662445 0.15997314 0.44717407 0.6769867q0.29101562 0.49734497 0.7736969 1.5403595q0.48266602 1.0430145 1.2446442 2.7512512q0.7720642 1.6885834 1.8706512 4.240555q-0.013870239 -1.882721 -0.23231506 -3.5849q-0.21846008 -1.702179 -0.1628418 -3.1641235q0.050857544 -1.4768219 0.5936279 -2.750534q0.55288696 -1.2933502 2.0216217 -2.289917q0.955307 -0.14251709 1.811554 0.6328888q0.8514557 0.7605438 1.6230927 2.0390015q0.76686096 1.2635956 1.406662 2.846939q0.65467834 1.5785675 1.1622162 3.0566864q0.50276184 1.4632263 0.88020325 2.6384888q0.37268066 1.1603699 0.5797577 1.6518402q-0.012283325 0.2172699 -0.11328125 0.4138031q-0.100982666 0.19651794 -0.2705078 0.3329773q-0.17428589 0.12158203 -0.36238098 0.1491394q-0.17797852 0.007888794 -0.39842224 -0.16749573q-0.090774536 -0.2826538 -0.42262268 -1.1115265q-0.32174683 -0.84851074 -0.7592468 -1.9552612q-0.442276 -1.1216278 -0.94721985 -2.3872375q-0.5049286 -1.2656097 -0.9472046 -2.3872223q-0.42739868 -1.1264038 -0.7443695 -1.9600372q-0.31697083 -0.8336487 -0.4375 -1.1067505q-0.8169403 -0.7552185 -1.3758698 -0.7070923q-0.56370544 0.0332489 -0.9410858 0.64668274q-0.3624878 0.60865784 -0.53756714 1.6987q-0.17985535 1.0751648 -0.23384094 2.3889008q-0.043899536 1.2940826 -0.019821167 2.6976166q0.03895569 1.3987732 0.14328003 2.694519q0.11444092 1.2760773 0.2315979 2.30513q0.13201904 1.024292 0.23973083 1.5640717q-0.017044067 0.20239258 -0.2025299 0.44244385q-0.18548584 0.24005127 -0.42938232 0.40039062q-0.22903442 0.15556335 -0.5063782 0.21176147q-0.282135 0.0413208 -0.4823761 -0.17337036zm16.197006 5.9928284q2.1737366 -0.8454132 3.1086426 -2.2778015q0.934906 -1.4323883 1.0342102 -3.2693634q0.11894226 -1.826889 -0.43571472 -3.9626923q-0.53977966 -2.1405792 -1.3605804 -4.3386536q-0.82559204 -2.2129364 -1.740448 -4.397217q-0.89997864 -2.1890564 -1.5062256 -4.1277924q-0.053497314 3.5125275 -0.37976074 5.766983q-0.32624817 2.2544556 -0.82440186 3.5138397q-0.5029144 1.2444916 -1.1007385 1.6825409q-0.60258484 0.42315674 -1.1991882 0.30285645q-0.58651733 -0.13993835 -1.1043854 -0.6793518q-0.51786804 -0.53941345 -0.8715515 -1.1807556q-0.30838013 -1.1645966 -0.35580444 -2.6919403q-0.032546997 -1.5321045 0.20692444 -3.0858917q0.2394867 -1.553772 0.74458313 -2.9958954q0.50032043 -1.4570007 1.2672272 -2.4416199q0.76690674 -0.98461914 1.7987671 -1.3486481q1.0419617 -0.383667 2.3009796 0.16400146q0.03453064 0.0053253174 0.29948425 0.6259155q0.2649536 0.6205902 0.6886749 1.6333008q0.42370605 1.0127106 0.9435272 2.2735443q0.5346832 1.2560577 1.0640564 2.546646q0.5245819 1.2757263 0.9859772 2.4568481q0.46138 1.1811218 0.8176575 2.0349731q0.56759644 1.4096069 0.8604431 3.087906q0.30770874 1.673523 0.33384705 3.338974q0.041015625 1.660675 -0.23298645 3.2091217q-0.254364 1.5585632 -0.8746643 2.6930542q-0.60066223 1.144577 -1.6251373 1.7359772q-1.009613 0.58662415 -2.4498749 0.34329224q-0.0743866 0.023880005 -0.22793579 0.056747437q-0.1487732 0.04776001 -0.26193237 0.002029419q-0.11315918 -0.04573059 -0.11152649 -0.19395447q0.02128601 -0.1381073 0.20785522 -0.4769745zm-5.1282654 -13.566162q0.50613403 0.70729065 0.92749023 0.5884552q0.41656494 -0.13371277 0.7206421 -0.8220825q0.30407715 -0.68836975 0.55407715 -1.8516846q0.25 -1.1633148 0.4325714 -2.4855042q0.17779541 -1.3370667 0.3216095 -2.7288513q0.15867615 -1.3965759 0.29553223 -2.6056213q-0.085998535 -0.2677765 -0.29634094 -0.4628296q-0.19546509 -0.19981384 -0.59825134 0.027923584q-0.64668274 0.38809204 -1.148941 1.1236572q-0.5022583 0.7355652 -0.81915283 1.6906128q-0.32167053 0.9401703 -0.48664856 2.010559q-0.16496277 1.0703888 -0.21092224 2.1025696q-0.050735474 1.0173035 0.023422241 1.9124603q0.084243774 0.8755188 0.2849121 1.5003357zm10.338348 -4.92659q-0.12434387 0.07273865 -0.3581543 0.21342468q-0.2237091 0.121032715 -0.5111542 0.19688416q-0.27734375 0.05621338 -0.5238495 0.004043579q-0.26615906 -0.06225586 -0.36650085 -0.3746643q-0.05255127 -0.16363525 -0.0020599365 -0.26190186q0.04573059 -0.11312866 0.17648315 -0.3191986q0.40711975 -0.62298584 0.5646057 -1.4612274q0.1574707 -0.8382263 0.22200012 -1.7615051q0.06451416 -0.92326355 0.15879822 -1.8560944q0.10914612 -0.93759155 0.379776 -1.7300873q0.26585388 -0.8073883 0.8360901 -1.4335022q0.5851135 -0.63087463 1.6164398 -0.9454956q0.43144226 -0.13848877 1.019043 -0.097351074q0.58280945 0.026260376 1.1390228 0.22515869q0.5710907 0.19412231 1.0215302 0.5746765q0.46531677 0.37576294 0.6516571 0.9559479q0.18112183 0.15519714 -0.066589355 0.66137695q-0.23760986 0.48651123 -0.71913147 1.1333771q-0.48628235 0.6319885 -1.1415558 1.3510284q-0.64038086 0.7142639 -1.240387 1.3499298q-0.5851135 0.63087463 -1.0501099 1.1247559q-0.45491028 0.47421265 -0.5707855 0.6755066q-0.05267334 0.29588318 -0.021942139 0.64704895q0.030715942 0.35116577 0.08164978 0.66300964q0.061019897 0.29222107 0.12258911 0.5350189q0.061569214 0.24279785 0.09979248 0.3618164q0.15287781 0.4760437 0.29458618 1.0705566q0.1565857 0.58973694 0.41307068 1.0817719q0.25170898 0.47714233 0.6889038 0.71424866q0.43719482 0.23710632 1.2108154 -0.01121521q0.8331299 -0.26741028 1.4283447 -0.9179535q0.59521484 -0.65052795 1.0289459 -1.4461517q0.42897034 -0.81051636 0.7102356 -1.6720734q0.29138184 -0.8812103 0.51205444 -1.6248627q0.2206726 -0.74365234 0.41897583 -1.2503815q0.19830322 -0.50671387 0.421463 -0.5783539q0.25291443 -0.08117676 0.56425476 -0.0826416q0.32621765 -0.0062561035 0.4265442 0.30615234q0.14811707 0.46118164 -0.023147583 1.2053833q-0.15638733 0.73942566 -0.52215576 1.644516q-0.37052917 0.890213 -0.9047241 1.8329468q-0.53897095 0.9278717 -1.1554718 1.7165222q-0.60162354 0.7838745 -1.250473 1.3695679q-0.6339874 0.5809326 -1.2142029 0.76716614q-1.1306763 0.3629303 -1.88768 -0.0012664795q-0.7617798 -0.3790741 -1.2625885 -1.1208801q-0.5056 -0.75668335 -0.82147217 -1.6891327q-0.30578613 -0.95210266 -0.5935364 -1.7458954zm2.4380798 -8.249191q-0.41656494 0.13369751 -0.75886536 0.70306396q-0.34230042 0.5693512 -0.567749 1.2981262q-0.23023987 0.7138977 -0.29736328 1.4246674q-0.071899414 0.69589233 0.05709839 1.0975647q0.3868103 -0.12416077 1.0101471 -0.6360321q0.6185608 -0.52674866 1.179245 -1.1826019q0.5606842 -0.65586853 0.9284973 -1.299057q0.38269043 -0.6479645 0.24891663 -1.0644989q-0.07644653 -0.23803711 -0.30274963 -0.3294983q-0.21142578 -0.09623718 -0.47813416 -0.10908508q-0.27148438 -0.027740479 -0.5387268 0.00881958q-0.2720337 0.02166748 -0.48031616 0.088531494zm12.159836 9.143036q0.004776001 0.014877319 0.43525696 -0.48432922q0.44534302 -0.5039673 1.0023346 -1.2735138q0.5718689 -0.7743225 1.1400452 -1.6623383q0.5830536 -0.89279175 0.88768005 -1.6305542q0.31948853 -0.7425537 0.23512268 -1.1585541q-0.089141846 -0.43086243 -0.86112976 -0.33076477q-0.945755 0.17228699 -1.5228271 0.5216217q-0.5621948 0.34454346 -1.0011292 0.71517944q-0.42884827 0.35098267 -0.8178253 0.67276q-0.374115 0.31700134 -0.92881775 0.42941284q-1.1009216 0.3533783 -1.7372742 -0.1972351q-0.64112854 -0.5654907 -1.01857 -1.7407532q-0.3774414 -1.1752472 -0.20074463 -2.413498q0.19158936 -1.2430267 0.7613983 -2.279251q0.5846863 -1.0410004 1.5226288 -1.850769q0.93315125 -0.82466125 2.0638428 -1.1875763q0.44631958 -0.14326477 0.79751587 -0.17393494q0.35118103 -0.030685425 0.5136261 0.47512817q0.1146698 0.3570404 -0.09741211 0.7697296q-0.19721985 0.4079132 -0.56915283 0.527298q-0.029754639 0.009552002 -0.14344788 0.013214111q-0.10360718 -0.015975952 -0.23162842 -0.056930542q-0.1280365 -0.04095459 -0.24172974 -0.03727722q-0.10360718 -0.015975952 -0.13336182 -0.00642395q-0.8798218 0.019836426 -1.490448 0.72454834q-0.60054016 0.68507385 -0.94718933 1.6496735q-0.33654785 0.94493103 -0.40693665 1.9521484q-0.070388794 1.0072021 0.15415955 1.7063904q0.090789795 0.28266907 0.2474823 0.4128723q0.17156982 0.1254425 0.38887024 0.13774109q0.21730042 0.012313843 0.46011353 -0.049224854q0.24281311 -0.061523438 0.49572754 -0.1427002q0.49095154 -0.15759277 0.96388245 -0.47349548q0.4681549 -0.33078003 0.88212585 -0.6769867q0.424057 -0.36584473 0.8969879 -0.68174744q0.4729309 -0.3159027 1.0233917 -0.4925995q0.25291443 -0.08117676 0.59825134 -0.027923584q0.34054565 0.038391113 0.6794586 0.22499084q0.33413696 0.17172241 0.6225586 0.4565735q0.28842163 0.28485107 0.43229675 0.68174744q0.258667 0.29441833 0.20695496 0.951004q-0.051696777 0.65660095 -0.31755066 1.463974q-0.26585388 0.8073883 -0.73521423 1.6964874q-0.45925903 0.86946106 -0.96684265 1.6395721q-0.4974823 0.7504425 -1.0469666 1.2878418q-0.5447235 0.5522766 -0.9958191 0.68066406q-0.50582886 0.16235352 -0.6954346 -0.121398926q-0.18481445 -0.26887512 -0.30426025 -0.64079285zm8.575989 0.8082886q-0.056243896 -0.2773285 -0.20381165 -0.78790283q-0.13269043 -0.5153656 -0.28981018 -1.0556946q-0.15713501 -0.540329 -0.30470276 -1.0509033q-0.14756775 -0.5105896 -0.21868896 -0.7831421q-0.033981323 -0.054733276 -0.13648987 -0.16952515q-0.087631226 -0.11955261 -0.21458435 -0.25932312q-0.11206055 -0.14454651 -0.18003845 -0.2539978q-0.057876587 -0.12911987 -0.08177185 -0.20350647q-0.2341156 -0.7289429 0.03694153 -1.1113281q0.28115845 -0.40203857 0.9506531 -0.6169281q0.34791565 0.26574707 0.6012573 0.5946808q0.24856567 0.31407166 0.439682 0.9091339q0.19111633 0.59506226 0.28915405 1.5646057q0.11769104 0.97966003 0.19856262 2.6111298l-0.88635254 0.6127014zm14.995468 -8.374237q0.004776001 0.014877319 0.43525696 -0.48431396q0.44534302 -0.50398254 1.0023346 -1.273529q0.5718689 -0.7743225 1.1400452 -1.6623383q0.5830536 -0.8927765 0.88768005 -1.6305542q0.31950378 -0.7425537 0.23512268 -1.1585388q-0.089141846 -0.4308777 -0.86112976 -0.33076477q-0.945755 0.17227173 -1.5228271 0.52160645q-0.5621948 0.34455872 -1.0011292 0.71517944q-0.42884827 0.35098267 -0.8178253 0.67277527q-0.374115 0.31700134 -0.92881775 0.42939758q-1.1009216 0.3533783 -1.7372742 -0.1972351q-0.6411133 -0.5654907 -1.01857 -1.7407379q-0.3774414 -1.1752625 -0.20074463 -2.4135132q0.19158936 -1.2430267 0.7613983 -2.279251q0.5846863 -1.0410004 1.5226288 -1.850769q0.93315125 -0.824646 2.0638428 -1.1875763q0.44631958 -0.14326477 0.79751587 -0.17393494q0.35118103 -0.030670166 0.5136261 0.47512817q0.1146698 0.3570404 -0.09741211 0.7697296q-0.19721985 0.4079132 -0.56915283 0.527298q-0.029754639 0.009552002 -0.14344788 0.01322937q-0.10360718 -0.015975952 -0.23162842 -0.056930542q-0.1280365 -0.04095459 -0.24172974 -0.03729248q-0.10360718 -0.015975952 -0.13336182 -0.00642395q-0.8798218 0.019836426 -1.490448 0.7245636q-0.60054016 0.6850586 -0.94718933 1.6496582q-0.33654785 0.9449463 -0.40693665 1.9521484q-0.070388794 1.0072021 0.15415955 1.7064056q0.090789795 0.2826538 0.2474823 0.4128723q0.17156982 0.1254425 0.38887024 0.13774109q0.21730042 0.012298584 0.46011353 -0.049224854q0.24281311 -0.061538696 0.49572754 -0.14271545q0.49095154 -0.15757751 0.96388245 -0.47348022q0.4681549 -0.33078003 0.88212585 -0.6769867q0.424057 -0.36586 0.8969879 -0.6817627q0.4729309 -0.3159027 1.0233917 -0.49258423q0.25291443 -0.08119202 0.59825134 -0.027923584q0.34054565 0.038375854 0.6794586 0.22497559q0.33413696 0.17172241 0.6225586 0.4565735q0.28842163 0.28486633 0.43229675 0.6817627q0.258667 0.29440308 0.20695496 0.95098877q-0.051696777 0.65660095 -0.31755066 1.463974q-0.26585388 0.8073883 -0.73521423 1.6965027q-0.45925903 0.86946106 -0.96684265 1.6395569q-0.4974823 0.7504425 -1.0469666 1.2878418q-0.5447235 0.5522766 -0.9958191 0.68066406q-0.50582886 0.16235352 -0.6954346 -0.121398926q-0.18481445 -0.26887512 -0.30426025 -0.64079285zm6.302063 -5.4033203q-0.55119324 -1.1030731 -0.89997864 -2.1890717q-0.3535614 -1.1008606 -0.58277893 -2.2744598q-0.21434021 -1.1783752 -0.3484192 -2.464569q-0.12399292 -1.3058319 -0.2208252 -2.8337097q-0.085998535 -0.2677765 -0.013671875 -0.55355835q0.07232666 -0.28578186 0.27268982 -0.53060913q0.2003479 -0.24482727 0.43470764 -0.434906q0.2492218 -0.19487 0.50213623 -0.27604675q0.5504608 -0.17669678 1.1114655 0.037078857q0.5710907 0.19412231 1.0905914 0.58532715q0.53437805 0.38641357 0.96884155 0.87054443q0.44935608 0.47935486 0.7568817 0.82373047q0.49017334 0.81085205 0.92289734 1.9027252q0.44760132 1.0870972 0.7458954 2.271347q0.2935028 1.1693726 0.37394714 2.3907318q0.090530396 1.2016907 -0.11906433 2.2864075q-0.19473267 1.0799255 -0.7926636 1.9774933q-0.58784485 0.8779144 -1.6112366 1.3704987q-0.58021545 0.18623352 -1.0168762 -0.1002655q-0.4217682 -0.29129028 -0.73721313 -0.8136139q-0.3154602 -0.52233887 -0.51667786 -1.0977478q-0.2012024 -0.57540894 -0.3206482 -0.94732666zm1.2555695 -0.48506165q0.081222534 0.25289917 0.16775513 0.4712677q0.08654785 0.21838379 0.18797302 0.43197632q0.11152649 0.19393921 0.2474823 0.4128723q0.13595581 0.21891785 0.33564758 0.48303223l0.1487732 -0.04776001q0.6099701 -0.19578552 0.89753723 -0.73117065q0.30245972 -0.5401459 0.39456177 -1.2753448q0.10697937 -0.739975 0.04714966 -1.5905151q-0.044937134 -0.85531616 -0.1844635 -1.6474457q-0.12942505 -0.8117981 -0.31466675 -1.4907837q-0.17037964 -0.68377686 -0.29937744 -1.0854492l-0.16244507 -0.50579834q-0.10032654 -0.31240845 -0.26387024 -0.7194061q-0.14865112 -0.41177368 -0.36160278 -0.8193207q-0.20283508 -0.42718506 -0.45140076 -0.7412567q-0.23846436 -0.33370972 -0.51841736 -0.4900055q-0.26985168 -0.17593384 -0.5971527 -0.070877075q-0.60302734 0.013046265 -0.9086151 0.3901062q-0.31036377 0.36218262 -0.3572998 1.0336456q-0.046920776 0.6714783 0.09152222 1.5624084q0.15330505 0.88616943 0.4580078 1.937088q0.31478882 1.0312653 0.6874542 2.1916351q0.38276672 1.1407166 0.7554474 2.3011017zm22.084183 -8.286514q-0.051712036 0.65660095 -0.20973206 1.5442352q-0.1479187 0.8679962 -0.44885254 1.7194519q-0.29081726 0.83180237 -0.82229614 1.5275269q-0.5165863 0.6909332 -1.3497162 0.95835876q-0.37194824 0.119384766 -0.61898804 0.116622925q-0.23695374 -0.022399902 -0.45793152 -0.14839172q-0.22099304 -0.12599182 -0.43611145 -0.33590698q-0.21511841 -0.20993042 -0.5189667 -0.4406128q-0.470932 -1.2108765 -0.9397125 -2.6193695q-0.45388794 -1.4132843 -0.7590027 -2.8743134q-0.309906 -1.4759064 -0.35417175 -2.840149q-0.034179688 -1.3838959 0.3385315 -2.4717255q0.3875885 -1.0926056 1.2649231 -1.7844696q0.8874512 -0.71151733 2.4207916 -0.8426666q-0.150177 -0.72306824 -0.57225037 -1.8840027q-0.42208862 -1.1609192 -0.94667053 -2.4366302q-0.52459717 -1.275711 -1.0205078 -2.4621735q-0.48104858 -1.1912231 -0.7592468 -1.9552612q-0.07167053 -0.22314453 0.10316467 -0.39413452q0.18493652 -0.19064331 0.41342163 -0.2967987q0.24336243 -0.110946655 0.49095154 -0.15759277q0.24758911 -0.04664612 0.3511963 -0.030670166q0.9342804 3.1134338 1.9195862 6.079193q0.98532104 2.9657745 1.9610901 5.9017944q0.9906311 2.931244 1.9717102 5.832718q0.98109436 2.9014893 1.9127655 5.802429q0.090774536 0.2826538 0.14648438 0.60939026q0.0705719 0.32196045 -0.33111572 0.45089722q-0.1487732 0.04774475 -0.32621765 0.0062408447q-0.17744446 -0.041503906 -0.2746277 -0.19082642l-2.1484985 -6.3831635zm-3.4075317 -6.930832q-0.7927246 0.18881226 -1.2472076 1.0731506q-0.45448303 0.8843384 -0.60621643 2.0981598q-0.15171814 1.2138367 -0.043151855 2.5738525q0.108566284 1.3600159 0.4116211 2.559143q0.31315613 1.1794739 0.81288147 2.0200958q0.5098419 0.82095337 1.1654053 0.9715576q0.5504761 -0.17668152 0.8879852 -0.7609253q0.3327484 -0.59910583 0.5194397 -1.3974762q0.18190002 -0.81326294 0.2118988 -1.7418671q0.04008484 -0.9482422 -7.6293945E-5 -1.788681q-0.025283813 -0.84521484 -0.12658691 -1.5183258q-0.09120178 -0.69277954 -0.19154358 -1.005188q-0.081222534 -0.25289917 -0.24311829 -0.80810547q-0.15180969 -0.5748596 -0.38809204 -1.1062012q-0.22142029 -0.5361023 -0.5188446 -0.90011597q-0.287323 -0.383667 -0.6443939 -0.2690735zm6.291336 7.285187q-0.55119324 -1.1030731 -0.89997864 -2.1890564q-0.35354614 -1.1008759 -0.5827637 -2.274475q-0.21434021 -1.1783752 -0.34843445 -2.4645538q-0.12399292 -1.3058319 -0.2208252 -2.833725q-0.085998535 -0.2677765 -0.013671875 -0.55355835q0.07232666 -0.28578186 0.27268982 -0.5305939q0.20036316 -0.24482727 0.43470764 -0.43492126q0.2492218 -0.19487 0.50213623 -0.27604675q0.5504761 -0.17668152 1.1114655 0.037094116q0.5710907 0.19412231 1.0905914 0.58532715q0.53437805 0.38641357 0.96884155 0.87054443q0.44935608 0.47935486 0.7568817 0.8237152q0.49017334 0.8108673 0.92289734 1.9027405q0.44760132 1.0870819 0.7458954 2.2713318q0.2935028 1.1693878 0.37394714 2.3907318q0.090530396 1.2017059 -0.11906433 2.2864075q-0.19473267 1.0799408 -0.7926636 1.9775085q-0.58784485 0.87789917 -1.6112366 1.3704987q-0.58021545 0.18623352 -1.016861 -0.10028076q-0.4217682 -0.29127502 -0.7372284 -0.8136139q-0.31544495 -0.52233887 -0.5166626 -1.0977478q-0.20121765 -0.57540894 -0.32066345 -0.94732666zm1.2555695 -0.48506165q0.081222534 0.25289917 0.16777039 0.47128296q0.08654785 0.21836853 0.18797302 0.43196106q0.11151123 0.19395447 0.24746704 0.4128723q0.13595581 0.2189331 0.33564758 0.48303223l0.1487732 -0.04774475q0.60998535 -0.19580078 0.8975525 -0.73117065q0.30244446 -0.54016113 0.3945465 -1.2753601q0.10697937 -0.739975 0.04714966 -1.5905151q-0.044937134 -0.85531616 -0.1844635 -1.6474457q-0.12942505 -0.81178284 -0.31466675 -1.4907837q-0.17037964 -0.6837616 -0.29937744 -1.085434l-0.16244507 -0.5058136q-0.10032654 -0.31240845 -0.26387024 -0.71939087q-0.14865112 -0.41177368 -0.36160278 -0.8193207q-0.20283508 -0.42720032 -0.45140076 -0.7412567q-0.23846436 -0.33370972 -0.51841736 -0.4900055q-0.26985168 -0.1759491 -0.5971527 -0.070892334q-0.60302734 0.013046265 -0.9086151 0.3901062q-0.31036377 0.36218262 -0.35728455 1.0336609q-0.046936035 0.671463 0.09150696 1.5624084q0.15332031 0.88616943 0.4580078 1.937088q0.31478882 1.03125 0.6874695 2.1916351q0.38276672 1.1407166 0.7554321 2.3010864zm5.6295166 -3.923874q-0.12432861 0.07273865 -0.35812378 0.21342468q-0.22372437 0.121032715 -0.51116943 0.19688416q-0.27734375 0.05621338 -0.52386475 0.004043579q-0.2661438 -0.06225586 -0.3664856 -0.3746643q-0.05255127 -0.16363525 -0.0020599365 -0.26190186q0.04573059 -0.11312866 0.1764679 -0.3191986q0.407135 -0.62298584 0.5646057 -1.4612274q0.1574707 -0.8382263 0.22201538 -1.7615051q0.06451416 -0.92326355 0.15878296 -1.8560944q0.10916138 -0.93759155 0.37979126 -1.7301025q0.26586914 -0.80737305 0.8360901 -1.4334869q0.5851135 -0.63087463 1.6164246 -0.9454956q0.43145752 -0.13848877 1.019043 -0.097351074q0.5828247 0.026260376 1.1390381 0.22515869q0.57110596 0.19412231 1.0215454 0.5746765q0.4653015 0.37576294 0.65164185 0.9559479q0.18112183 0.15519714 -0.066589355 0.66137695q-0.23760986 0.48651123 -0.7191162 1.1333771q-0.4862976 0.6319885 -1.141571 1.3510284q-0.64038086 0.7142639 -1.240387 1.3499298q-0.5851135 0.63087463 -1.0501099 1.1247559q-0.45492554 0.47421265 -0.57077026 0.6755066q-0.05267334 0.29588318 -0.021972656 0.64704895q0.030731201 0.3511505 0.08166504 0.66300964q0.06100464 0.2922058 0.12258911 0.5350189q0.061553955 0.24279785 0.09979248 0.36180115q0.15289307 0.47605896 0.29458618 1.0705719q0.1565857 0.58973694 0.41305542 1.0817719q0.25170898 0.47714233 0.6889038 0.71424866q0.43719482 0.23710632 1.2108154 -0.01121521q0.8331604 -0.26741028 1.4283752 -0.9179535q0.5951843 -0.65052795 1.0289307 -1.446167q0.42895508 -0.8105011 0.7102356 -1.6720581q0.29138184 -0.8812103 0.51205444 -1.6248627q0.2206726 -0.74365234 0.41897583 -1.2503815q0.19830322 -0.50671387 0.42147827 -0.5783539q0.25289917 -0.08117676 0.5642395 -0.0826416q0.3262024 -0.0062561035 0.4265442 0.30615234q0.14813232 0.46118164 -0.023162842 1.2053833q-0.15637207 0.73942566 -0.52212524 1.6445007q-0.37054443 0.8902283 -0.9047241 1.832962q-0.53897095 0.9278717 -1.1554871 1.7165222q-0.60162354 0.7838745 -1.2504883 1.3695679q-0.63397217 0.5809326 -1.2141724 0.76716614q-1.1307068 0.3629303 -1.8876953 -0.0012664795q-0.7617798 -0.3790741 -1.2626038 -1.1208801q-0.5055847 -0.75668335 -0.82147217 -1.6891327q-0.30578613 -0.95210266 -0.5935364 -1.7458954zm2.4381104 -8.249191q-0.41659546 0.13369751 -0.7588806 0.70306396q-0.34228516 0.5693512 -0.567749 1.2981262q-0.23022461 0.7138977 -0.29736328 1.4246674q-0.071899414 0.69589233 0.05709839 1.0975647q0.3868103 -0.12416077 1.0101624 -0.6360321q0.6185608 -0.52674866 1.1792297 -1.1826172q0.56066895 -0.6558533 0.9284973 -1.2990417q0.38269043 -0.6479645 0.24893188 -1.0645142q-0.07644653 -0.23802185 -0.3027649 -0.32948303q-0.21142578 -0.09623718 -0.4781494 -0.10908508q-0.27145386 -0.027740479 -0.5387268 0.00881958q-0.27200317 0.02166748 -0.48028564 0.088531494zm12.159821 9.143036q0.0047912598 0.014877319 0.4352417 -0.48432922q0.44537354 -0.5039673 1.0023499 -1.2735138q0.5718689 -0.7743225 1.1400452 -1.6623383q0.58306885 -0.89279175 0.8876648 -1.6305542q0.31951904 -0.7425537 0.23513794 -1.1585541q-0.089141846 -0.43086243 -0.861145 -0.33076477q-0.94573975 0.17228699 -1.5227966 0.52160645q-0.5621948 0.34455872 -1.0011597 0.7151947q-0.428833 0.35098267 -0.81781006 0.67276q-0.374115 0.31700134 -0.9288025 0.42941284q-1.1009521 0.3533783 -1.7372742 -0.1972351q-0.6411438 -0.5654907 -1.0185852 -1.7407532q-0.3774414 -1.1752472 -0.20074463 -2.413498q0.19158936 -1.2430267 0.7614136 -2.279251q0.5846863 -1.0410004 1.5226135 -1.8507843q0.9331665 -0.824646 2.0638428 -1.1875763q0.44631958 -0.14324951 0.79751587 -0.17391968q0.3511963 -0.030685425 0.51364136 0.47512817q0.11465454 0.3570404 -0.09744263 0.7697296q-0.19720459 0.4079132 -0.56915283 0.527298q-0.029754639 0.009552002 -0.14343262 0.013214111q-0.10360718 -0.015975952 -0.23162842 -0.056930542q-0.12805176 -0.04095459 -0.24172974 -0.03727722q-0.10360718 -0.015975952 -0.13336182 -0.00642395q-0.8798218 0.019836426 -1.490448 0.72454834q-0.6005554 0.68507385 -0.9472046 1.6496582q-0.33654785 0.9449463 -0.4069214 1.9521484q-0.07040405 1.0072174 0.1541748 1.7064056q0.09075928 0.2826538 0.24746704 0.4128723q0.17156982 0.1254425 0.38885498 0.13774109q0.21731567 0.012313843 0.46011353 -0.049224854q0.24282837 -0.061523438 0.49575806 -0.1427002q0.49093628 -0.15759277 0.9638672 -0.47349548q0.46817017 -0.33078003 0.8821106 -0.6769867q0.42407227 -0.36586 0.8970032 -0.6817627q0.4729309 -0.3159027 1.023407 -0.49258423q0.25289917 -0.08117676 0.5982361 -0.027923584q0.34054565 0.038391113 0.6794739 0.22499084q0.33413696 0.17172241 0.6225281 0.4565735q0.28842163 0.28485107 0.432312 0.68174744q0.258667 0.29440308 0.20697021 0.951004q-0.051727295 0.6565857 -0.31756592 1.463974q-0.26586914 0.80737305 -0.735199 1.6964874q-0.45925903 0.86946106 -0.9668579 1.6395569q-0.49746704 0.75045776 -1.0469666 1.287857q-0.54470825 0.5522766 -0.9958191 0.6806488q-0.50582886 0.16236877 -0.6954346 -0.12138367q-0.18481445 -0.26889038 -0.30426025 -0.64079285z" fill-rule="nonzero"></path><path fill="#f3b41b" d="m165.27345 252.35818q-0.19503784 0.21029663 -0.37519836 0.415802q-0.1652832 0.20074463 -0.3353424 0.38661194q-0.15518188 0.18109131 -0.34913635 0.29258728q-0.17906189 0.10670471 -0.41656494 0.13371277q-0.1487732 0.04774475 -0.3102417 -0.097351074q-0.16625977 -0.15995789 -0.30221558 -0.378891q-0.13595581 -0.21891785 -0.24215698 -0.44740295q-0.10620117 -0.22846985 -0.1194458 -0.37190247l1.965805 -2.157135l-1.9152374 -6.4744415q-0.06048584 -0.34161377 0.3204651 -0.38183594q0.37615967 -0.055099487 0.7815399 -0.07034302q0.044631958 -0.014328003 0.17799377 -0.007904053q0.12857056 -0.008453369 0.17797852 -0.007904053q0.17515564 0.6986542 0.35398865 1.5109863q0.19371033 0.8075714 0.3874359 1.6151276q0.20858765 0.80278015 0.43737793 1.5662689q0.2436676 0.7586975 0.50917053 1.329895l3.424759 -2.2644043q0.099349976 -0.048294067 0.21142578 0.09623718q0.11206055 0.14454651 0.24324036 0.34858704q0.14605713 0.19927979 0.23258972 0.41764832q0.10142517 0.21360779 0.10142517 0.21360779l-3.6869202 3.1854553q0.07167053 0.22315979 0.37854004 1.0764465q0.31697083 0.8336334 0.7390442 1.9945679q0.43218994 1.1412659 0.9068146 2.4658356q0.4895172 1.3197937 0.9068146 2.4658508q0.41731262 1.1460266 0.72416687 1.9993286q0.3068695 0.853302 0.37854004 1.0764465q0.18415833 0.7778015 -0.20265198 0.90197754q-0.3868103 0.12414551 -0.9525757 -0.104522705l-4.151428 -10.728943zm15.085922 -5.104828q-1.0519409 -0.05619812 -1.699295 0.8408203q-0.64733887 0.8970032 -1.0679474 2.2955933q-0.4057312 1.3938141 -0.6516266 3.0809479q-0.23100281 1.6823425 -0.42053223 3.187271q-0.1794281 1.4852905 -0.36938477 2.5800781q-0.17984009 1.0751648 -0.5480957 1.3082275q-0.3124237 0.10028076 -0.5095215 0.048675537q-0.20187378 -0.066467285 -0.3499756 -0.5276489l-5.6664886 -17.643646q-0.07167053 -0.22314453 0.107406616 -0.32984924q0.17428589 -0.12159729 0.40699768 -0.1634674q0.22795105 -0.056747437 0.4500122 -0.029571533q0.23695374 0.022399902 0.31503296 0.112213135l4.866226 14.02771q0.13934326 -0.5370331 0.114593506 -1.4316406q-0.024734497 -0.8946228 0.0015563965 -1.9369049q0.021530151 -1.0571594 0.15196228 -2.1328735q0.1453247 -1.0804901 0.55625916 -2.0493011q0.41093445 -0.9688263 1.219223 -1.671341q0.80348206 -0.71739197 2.12117 -1.0090485q0.8628845 -0.27697754 1.560379 0.10632324q0.70758057 0.36364746 1.0043488 1.2365875l3.4683838 9.930771q0.033447266 0.10412598 0.050933838 0.31185913q0.027572632 0.18807983 -0.09307861 0.3744812q-0.115875244 0.20129395 -0.40386963 0.3265686q-0.2683258 0.13534546 -0.7719879 0.100097656l-3.842682 -10.942932zm5.338333 4.391098q-0.12434387 0.07272339 -0.3581543 0.21340942q-0.22369385 0.121032715 -0.5111542 0.19688416q-0.27734375 0.05621338 -0.5238495 0.004058838q-0.26615906 -0.06227112 -0.36650085 -0.37467957q-0.05255127 -0.16363525 -0.0020599365 -0.26190186q0.04573059 -0.11312866 0.17648315 -0.3191986q0.40711975 -0.62298584 0.5646057 -1.4612274q0.1574707 -0.8382263 0.22200012 -1.7615051q0.06451416 -0.92326355 0.15879822 -1.8560944q0.10914612 -0.93759155 0.379776 -1.7300873q0.26585388 -0.8073883 0.8360901 -1.4335022q0.5851135 -0.63087463 1.6164398 -0.9454956q0.43144226 -0.13848877 1.019043 -0.097351074q0.5828247 0.026260376 1.1390228 0.22515869q0.5710907 0.19412231 1.0215302 0.5746765q0.46531677 0.37576294 0.6516571 0.9559479q0.18112183 0.15519714 -0.066589355 0.66137695q-0.23760986 0.48651123 -0.7191162 1.1333771q-0.4862976 0.6319885 -1.141571 1.3510284q-0.64038086 0.7142639 -1.2403717 1.3499298q-0.5851135 0.6308899 -1.0501251 1.1247559q-0.45491028 0.47421265 -0.5707855 0.6755066q-0.05267334 0.29588318 -0.021942139 0.64704895q0.030715942 0.35116577 0.08164978 0.6630249q0.061019897 0.2922058 0.12258911 0.53500366q0.061569214 0.24279785 0.09979248 0.3618164q0.15289307 0.4760437 0.29458618 1.0705566q0.1565857 0.58973694 0.41307068 1.0817719q0.25170898 0.47714233 0.6889038 0.71424866q0.43719482 0.23710632 1.2108154 -0.01121521q0.8331299 -0.26741028 1.4283447 -0.9179535q0.59521484 -0.65052795 1.0289612 -1.4461517q0.42895508 -0.81051636 0.71022034 -1.6720734q0.29138184 -0.8812103 0.51205444 -1.6248627q0.2206726 -0.74365234 0.41897583 -1.2503815q0.19830322 -0.50671387 0.421463 -0.5783539q0.25291443 -0.08117676 0.56425476 -0.0826416q0.32621765 -0.0062561035 0.4265442 0.30615234q0.14811707 0.46118164 -0.023147583 1.2053833q-0.15638733 0.73942566 -0.52215576 1.644516q-0.37052917 0.890213 -0.9047241 1.8329468q-0.53897095 0.9278717 -1.1554718 1.7165222q-0.60162354 0.7838745 -1.250473 1.3695679q-0.6339874 0.5809326 -1.2142029 0.7671814q-1.1306763 0.36291504 -1.88768 -0.0012817383q-0.7617645 -0.3790741 -1.2625885 -1.1208801q-0.5056 -0.75668335 -0.82147217 -1.6891327q-0.30578613 -0.95210266 -0.5935364 -1.7458801zm2.4380798 -8.249207q-0.41656494 0.13369751 -0.75886536 0.70306396q-0.34230042 0.5693512 -0.567749 1.2981262q-0.23023987 0.7138977 -0.29736328 1.4246674q-0.071899414 0.69589233 0.05709839 1.0975647q0.3868103 -0.12416077 1.0101471 -0.6360321q0.6185608 -0.52674866 1.179245 -1.1826019q0.5606842 -0.65586853 0.9284973 -1.299057q0.3827057 -0.6479645 0.24891663 -1.0644989q-0.07644653 -0.23803711 -0.30274963 -0.3294983q-0.21142578 -0.09623718 -0.47813416 -0.10908508q-0.27148438 -0.027740479 -0.5387268 0.00881958q-0.2720337 0.02166748 -0.48031616 0.088531494zm22.699814 6.0881195q-0.29893494 -0.6753235 -0.73057556 -1.8659973q-0.43164062 -1.1906738 -0.94503784 -2.5848541q-0.5032959 -1.4138336 -1.069809 -2.9222412q-0.5516205 -1.5131836 -1.070343 -2.8728333q-0.51872253 -1.3596497 -0.9960785 -2.4371948q-0.46725464 -1.0971832 -0.8060608 -1.7433167q-0.16244507 -0.50579834 0.032058716 -0.666687q0.19448853 -0.16088867 0.5515442 -0.27549744q0.044631958 -0.014328003 0.22315979 -0.071624756q0.17852783 -0.05731201 0.2624817 -0.051437378q0.4668274 0.687088 0.9085541 1.8581085q0.44174194 1.1710205 0.9253845 2.5747528q0.4937439 1.384079 1.0108337 2.8919373q0.52719116 1.488205 1.095871 2.798996q-0.2831726 -2.1080627 -0.46080017 -3.4787445q-0.18240356 -1.3855438 -0.2273407 -2.24086q-0.044952393 -0.8553009 0.024230957 -1.304184q0.06440735 -0.46374512 0.2642212 -0.6591644q0.19503784 -0.21029663 0.48249817 -0.28614807q0.28744507 -0.07585144 0.6891327 -0.20478821q0.4611969 -0.14802551 0.85853577 0.118270874q0.4074402 0.24665833 0.7526398 0.7594452q0.34043884 0.4978943 0.6250458 1.1286011q0.29470825 0.6110382 0.5697632 1.2119751q0.28515625 0.58128357 0.5219879 1.0632172q0.25170898 0.4771576 0.52211 0.60369873q0.027618408 -2.0601501 0.09649658 -3.378662q0.08375549 -1.3232727 0.19126892 -2.1126556q0.102752686 -0.80426025 0.24523926 -1.1781921q0.15257263 -0.39360046 0.32687378 -0.5151825q0.18916321 -0.12635803 0.37193298 -0.119384766q0.17797852 -0.007888794 0.35650635 -0.065200806q0.68437195 -0.21966553 1.2510986 0.3697052q0.764801 1.0016785 1.2384796 1.9655457q0.48854065 0.9590759 0.80918884 1.9064026q0.33076477 0.92767334 0.5930023 1.7952881q0.2574463 0.8527374 0.57496643 1.6369781q0.3323822 0.7794647 0.78912354 1.4861908q0.45672607 0.7067261 1.2359772 1.2935181q-0.07928467 0.46852112 -0.23979187 0.68414307q-0.15040588 0.19596863 -0.49258423 0.3058014q-0.3124237 0.10028076 -0.602478 -0.036361694q-0.29481506 -0.15151978 -0.54393005 -0.4161682q-0.24911499 -0.2646637 -0.44348145 -0.56329346q-0.19438171 -0.29862976 -0.34999084 -0.5276489q-1.2556 -3.551834 -2.0802155 -5.404068q-0.8293915 -1.867096 -1.289505 -1.8178711q-0.46488953 0.034347534 -0.56581116 2.0195465q-0.08604431 1.9804382 0.14082336 6.059387q-0.03616333 0.1428833 -0.17538452 0.22039795q-0.13920593 0.07749939 -0.30285645 0.1300354q-0.16365051 0.052520752 -0.3320923 0.09017944q-0.16842651 0.037643433 -0.3076477 0.11515808q-1.8246155 -3.4840546 -2.761963 -4.9718933q-0.9224701 -1.4926147 -1.2297058 -0.9673462q-0.31199646 0.5104065 -0.10223389 3.003067q0.22462463 2.4878845 0.7537079 6.9457245l-1.1690216 0.7034302zm12.591751 -7.7503815q-0.55119324 -1.1030731 -0.89997864 -2.1890717q-0.35354614 -1.1008606 -0.5827637 -2.2744598q-0.21434021 -1.1783752 -0.34843445 -2.4645538q-0.12399292 -1.3058472 -0.2208252 -2.833725q-0.085998535 -0.2677765 -0.013671875 -0.55355835q0.07232666 -0.28578186 0.27268982 -0.53060913q0.20036316 -0.24481201 0.43470764 -0.434906q0.24923706 -0.19487 0.5021515 -0.27604675q0.5504608 -0.17669678 1.1114502 0.037078857q0.5710907 0.19413757 1.0905914 0.58532715q0.53437805 0.38642883 0.9688568 0.8705597q0.44934082 0.4793396 0.75686646 0.8237152q0.4901886 0.8108673 0.92289734 1.9027252q0.44760132 1.0870972 0.7458954 2.271347q0.2935028 1.1693726 0.37394714 2.3907318q0.090545654 1.2016907 -0.11906433 2.2864075q-0.19473267 1.0799408 -0.7926636 1.9774933q-0.5878296 0.8779144 -1.6112366 1.3704987q-0.58021545 0.18624878 -1.016861 -0.1002655q-0.4217682 -0.29129028 -0.7372284 -0.8136139q-0.31544495 -0.52233887 -0.5166626 -1.0977478q-0.20121765 -0.57540894 -0.32066345 -0.94732666zm1.2555695 -0.48506165q0.081222534 0.25289917 0.16777039 0.4712677q0.08654785 0.21838379 0.18797302 0.43197632q0.11151123 0.19393921 0.24746704 0.4128723q0.13595581 0.21891785 0.33566284 0.48303223l0.1487732 -0.04776001q0.6099701 -0.19578552 0.89753723 -0.73117065q0.30244446 -0.5401459 0.3945465 -1.2753448q0.10697937 -0.739975 0.04714966 -1.5905151q-0.044937134 -0.85531616 -0.1844635 -1.6474457q-0.12942505 -0.81178284 -0.31466675 -1.4907837q-0.17037964 -0.68377686 -0.29937744 -1.0854492l-0.16244507 -0.50579834q-0.10032654 -0.31240845 -0.26387024 -0.7194061q-0.14865112 -0.41177368 -0.36160278 -0.8193054q-0.20283508 -0.42720032 -0.45140076 -0.7412567q-0.23846436 -0.33372498 -0.51841736 -0.4900055q-0.26985168 -0.1759491 -0.5971527 -0.070892334q-0.6030121 0.013046265 -0.9086151 0.3901062q-0.31036377 0.36218262 -0.35728455 1.0336456q-0.046920776 0.6714783 0.09150696 1.5624237q0.15332031 0.8861542 0.4580078 1.9370728q0.31480408 1.0312653 0.6874695 2.1916351q0.38276672 1.1407166 0.7554321 2.3011017zm10.657852 -4.6188965q-0.051712036 0.65660095 -0.20973206 1.5442352q-0.1479187 0.8679962 -0.44885254 1.7194519q-0.29081726 0.83180237 -0.82229614 1.5275269q-0.5165863 0.6909332 -1.3497162 0.95835876q-0.37194824 0.119384766 -0.61898804 0.116622925q-0.23695374 -0.022399902 -0.45794678 -0.14839172q-0.22097778 -0.12599182 -0.4360962 -0.33590698q-0.21511841 -0.20993042 -0.5189667 -0.4406128q-0.470932 -1.2108765 -0.9397125 -2.6193695q-0.45388794 -1.4132843 -0.7590027 -2.8743134q-0.309906 -1.4759064 -0.35417175 -2.840149q-0.034179688 -1.3838959 0.3385315 -2.4717255q0.3875885 -1.0926056 1.2649231 -1.7844696q0.8874512 -0.71151733 2.4207916 -0.8426666q-0.150177 -0.72306824 -0.57225037 -1.8840027q-0.42208862 -1.1609192 -0.94667053 -2.4366302q-0.52459717 -1.2757263 -1.0205078 -2.4621735q-0.48104858 -1.1912231 -0.7592468 -1.9552612q-0.07167053 -0.22314453 0.10316467 -0.39413452q0.18493652 -0.19064331 0.41342163 -0.2967987q0.24336243 -0.110946655 0.49095154 -0.15759277q0.24758911 -0.04664612 0.3511963 -0.030670166q0.9342804 3.1134338 1.9195862 6.079193q0.98532104 2.9657745 1.9610901 5.9017944q0.9906311 2.9312286 1.9717102 5.832718q0.98109436 2.9014893 1.9127655 5.802429q0.090774536 0.2826538 0.14648438 0.60939026q0.0705719 0.32196045 -0.33111572 0.45089722q-0.1487732 0.04774475 -0.32621765 0.0062408447q-0.17744446 -0.041503906 -0.2746277 -0.19082642l-2.1484985 -6.3831635zm-3.4075317 -6.930832q-0.7927246 0.18881226 -1.2472076 1.0731506q-0.45448303 0.8843384 -0.60621643 2.0981598q-0.1517334 1.2138214 -0.043167114 2.5738525q0.108566284 1.3600159 0.41163635 2.559143q0.31315613 1.1794739 0.81288147 2.0200958q0.5098419 0.82095337 1.1654053 0.9715576q0.5504761 -0.17668152 0.8879852 -0.7609253q0.3327484 -0.59910583 0.5194397 -1.3974915q0.18190002 -0.8132477 0.2118988 -1.7418518q0.04008484 -0.9482422 -7.6293945E-5 -1.788681q-0.025283813 -0.84521484 -0.12658691 -1.5183258q-0.09120178 -0.69277954 -0.19154358 -1.005188q-0.081222534 -0.25289917 -0.24311829 -0.80810547q-0.15180969 -0.5748749 -0.38809204 -1.1062012q-0.22142029 -0.5361023 -0.5188446 -0.9001312q-0.287323 -0.383667 -0.6443939 -0.26905823zm6.4098663 5.0481873q-0.12434387 0.07272339 -0.35813904 0.21340942q-0.2237091 0.121032715 -0.5111542 0.19688416q-0.277359 0.05621338 -0.52386475 0.004058838q-0.26615906 -0.06227112 -0.36650085 -0.37467957q-0.05255127 -0.16363525 -0.0020599365 -0.26190186q0.04573059 -0.11312866 0.17648315 -0.3191986q0.407135 -0.62298584 0.5646057 -1.4612274q0.15748596 -0.8382263 0.22200012 -1.7615051q0.06452942 -0.92326355 0.15879822 -1.8560944q0.10916138 -0.93759155 0.37979126 -1.7300873q0.26585388 -0.8073883 0.8360901 -1.4335022q0.5851135 -0.63087463 1.6164246 -0.9454956q0.43144226 -0.13848877 1.019043 -0.097351074q0.5828247 0.026260376 1.1390381 0.22515869q0.5710907 0.19412231 1.0215302 0.5746765q0.46531677 0.37576294 0.65164185 0.9559479q0.18113708 0.15519714 -0.0665741 0.66137695q-0.23760986 0.48651123 -0.71913147 1.1333771q-0.4862976 0.6319885 -1.1415558 1.3510284q-0.6403961 0.7142639 -1.240387 1.3499298q-0.5851135 0.6308899 -1.0501251 1.1247559q-0.45489502 0.47421265 -0.57077026 0.6755066q-0.05267334 0.29588318 -0.021957397 0.64704895q0.030731201 0.35116577 0.08164978 0.6630249q0.061019897 0.2922058 0.12258911 0.53500366q0.061569214 0.24279785 0.09979248 0.3618164q0.15289307 0.4760437 0.29460144 1.0705566q0.15657043 0.58973694 0.41305542 1.0817719q0.25170898 0.47714233 0.6889038 0.71424866q0.43719482 0.23710632 1.2108154 -0.01121521q0.83314514 -0.26741028 1.42836 -0.9179535q0.5951996 -0.65052795 1.0289459 -1.4461517q0.42895508 -0.81051636 0.7102356 -1.6720734q0.29136658 -0.8812103 0.51205444 -1.6248627q0.2206726 -0.74365234 0.41897583 -1.2503815q0.19830322 -0.50671387 0.421463 -0.5783539q0.25291443 -0.08117676 0.56425476 -0.0826416q0.3262024 -0.0062561035 0.4265442 0.30615234q0.14811707 0.46118164 -0.023162842 1.2053833q-0.15638733 0.73942566 -0.5221405 1.644516q-0.37054443 0.890213 -0.9047241 1.8329468q-0.53897095 0.9278717 -1.1554718 1.7165222q-0.60162354 0.7838745 -1.2504883 1.3695679q-0.63397217 0.5809326 -1.2141876 0.76716614q-1.1306915 0.3629303 -1.88768 -0.0012664795q-0.7617798 -0.3790741 -1.2626038 -1.1208801q-0.5055847 -0.75668335 -0.82147217 -1.6891327q-0.30577087 -0.95210266 -0.5935364 -1.7458801zm2.438095 -8.249207q-0.4165802 0.13369751 -0.75886536 0.70306396q-0.34230042 0.5693512 -0.5677643 1.2981262q-0.23022461 0.7138977 -0.29734802 1.4246674q-0.071899414 0.69589233 0.05709839 1.0975647q0.3868103 -0.12416077 1.0101471 -0.6360321q0.6185608 -0.52674866 1.1792297 -1.1826019q0.5606842 -0.65586853 0.9285126 -1.299057q0.38269043 -0.6479645 0.24891663 -1.0644989q-0.07644653 -0.23803711 -0.30274963 -0.3294983q-0.21144104 -0.09623718 -0.47813416 -0.10908508q-0.27148438 -0.027740479 -0.53874207 0.00881958q-0.27201843 0.02166748 -0.4803009 0.088531494zm10.4104 8.703537q-0.19413757 -1.2176666 -0.68885803 -2.9624634q-0.48461914 -1.7644348 -1.1253967 -3.708496q-0.64553833 -1.9589386 -1.3888245 -4.0177765q-0.74328613 -2.0588531 -1.474411 -3.8754425q-0.72102356 -1.8362579 -1.362442 -3.2713776q-0.6414337 -1.4351349 -1.0923004 -2.2257996q0.17538452 -0.22039795 0.31036377 -0.36218262q0.13497925 -0.14178467 0.35813904 -0.21342468q0.17852783 -0.057296753 0.32144165 -0.021118164q0.15301514 0.016525269 0.289505 0.18605042q2.0872955 4.761795 3.87117 9.703018q1.7939606 4.921585 3.4891205 9.842056q0.07167053 0.22315979 0.19589233 0.6099396q0.1242218 0.38679504 0.104019165 0.42610168q-0.28483582 0.2883606 -0.57229614 0.36421204q-0.27256775 0.07107544 -0.5536041 0.013595581q-0.26615906 -0.06227112 -0.45739746 -0.19779968q-0.17634583 -0.14031982 -0.2241211 -0.28909302zm-0.77986145 -11.876801q-0.7405548 -2.3058624 -1.3822937 -4.6106415q-0.6268616 -2.3095398 -1.2521057 -4.7673035q0.012283325 -0.2172699 0.0973053 -0.31021118q0.08026123 -0.107803345 0.25878906 -0.16511536q0.25291443 -0.08117676 0.3899536 0.03894043q0.1471405 0.10046387 0.23423767 0.26942444q0.09718323 0.14932251 0.15397644 0.37724304q0.052017212 0.21304321 0.09979248 0.3618164l2.4701233 7.6911926q0.14334106 0.44630432 0.39505005 0.92344666l0.46888733 0.94898987q0.25170898 0.47714233 0.42478943 0.91389465q0.18319702 0.417099 0.18948364 0.74328613q0.031280518 0.3017578 -0.13987732 0.5864258q-0.17591858 0.2698059 -0.4437256 0.35575867q-0.4611969 0.14804077 -0.78305054 -0.24095154q-0.31176758 -0.40864563 -0.54751587 -0.98939514q-0.22564697 -0.6003876 -0.3869934 -1.2050018q-0.15126038 -0.6242676 -0.24682617 -0.9217987zm5.322815 11.157074l-0.1289978 -0.40167236q-0.038223267 -0.119018555 -0.066345215 -0.25767517q-0.01802063 -0.1583252 0.027694702 -0.27145386q0.05581665 -0.13279724 0.20458984 -0.18054199q0.49095154 -0.15759277 0.656662 0.05178833q0.16571045 0.20936584 0.270813 0.5366516q0.11468506 0.3570404 0.097076416 0.60884094q-0.017578125 0.25180054 -0.5085449 0.4093933q-0.1487732 0.04774475 -0.27148438 -0.027740479q-0.10783386 -0.08024597 -0.18058777 -0.20458984q-0.057876587 -0.12911987 -0.100875854 -0.2630005z" fill-rule="nonzero"></path><path fill="#000000" fill-opacity="0.0" d="m688.47723 273.20895l-4.100403 -20.27449l0 0c-54.051636 -30.003937 -69.54193 -62.610214 -35.786438 -75.32855c33.755432 -12.718338 105.70953 -1.3864288 166.23181 26.17952c60.522217 27.565948 89.80554 62.34445 67.65167 80.346954c-22.15387 18.002472 -88.49463 13.337311 -153.26355 -10.77771z" fill-rule="nonzero"></path><path stroke="#f3b41b" stroke-width="3.0" stroke-linejoin="round" stroke-linecap="butt" stroke-dasharray="12.0,9.0" d="m688.47723 273.20895l-4.100403 -20.27449l0 0c-54.051636 -30.003937 -69.54193 -62.610214 -35.786438 -75.32855c33.755432 -12.718338 105.70953 -1.3864288 166.23181 26.17952c60.522217 27.565948 89.80554 62.34445 67.65167 80.346954c-22.15387 18.002472 -88.49463 13.337311 -153.26355 -10.77771z" fill-rule="nonzero"></path><path fill="#f3b41b" d="m690.5425 220.7161q0.18908691 -0.3331604 0.41052246 -0.86924744q0.23638916 -0.53131104 0.61242676 -1.3952332q0.38079834 -0.87879944 0.91033936 -2.1693573q0.54919434 -1.3006592 1.3543701 -3.1427307q0.82489014 -1.8521729 1.9046631 -4.344574q1.0946655 -2.4876404 2.6206665 -5.7558136q0.110961914 -0.24334717 0.33361816 -0.22114563q0.22741699 0.0073242188 0.40594482 0.06460571q0.2826538 0.0907135 0.37939453 0.3514862q0.11639404 0.2506714 0.16906738 0.54652405q0.06750488 0.30062866 0.09576416 0.62145996q0.047851562 0.31072998 0.13928223 0.53697205q0.06652832 0.6613312 0.075683594 1.5011597q0.028808594 0.8297272 0.049194336 1.7880096q0.039978027 0.94818115 0.060302734 1.9064636q0.020385742 0.9582825 0.05505371 1.871933q0.049560547 0.9184265 0.077819824 1.6987457q0.047973633 0.77023315 0.12774658 1.2881165q0.29223633 0.060943604 0.8405762 0.03996277q0.56799316 -0.031082153 1.2055664 -0.0234375q0.63757324 0.007659912 1.2167358 0.09503174q0.5839844 0.07249451 0.9272461 0.28108215q0.3581543 0.2133789 0.3475952 0.6038208q0.009094238 0.38034058 -0.53222656 1.0435333q-0.17852783 -0.057281494 -0.30822754 -0.16452026q-0.12487793 -0.12211609 -0.26940918 -0.23413086q-0.12963867 -0.10723877 -0.27416992 -0.21925354q-0.13977051 -0.12689209 -0.33319092 -0.18894958q-0.119018555 -0.03817749 -0.6131592 -0.03262329q-0.48937988 -0.009338379 -1.0477905 -0.0079956055q-0.54351807 0.0061035156 -0.9829712 0.04562378q-0.4244995 0.044296265 -0.4484253 0.11868286l-0.44348145 7.3568573l-0.9605713 0.7420349q-0.19726562 -0.8673706 -0.19366455 -1.9000244q0.018432617 -1.0278931 0.066589355 -2.0462341q0.067871094 -1.0284424 0.058166504 -1.9176788q-0.0049438477 -0.9040985 -0.22503662 -1.5982819q-0.60198975 0.08581543 -1.3883667 0.030426025q-0.78637695 -0.055404663 -1.5567627 -0.007217407q-0.75079346 0.038085938 -1.3851318 0.326828q-0.62957764 0.27388 -0.977478 0.9991455q-0.14019775 0.28320312 -0.34735107 0.7746582q-0.19226074 0.49624634 -0.39520264 0.9234314q-0.2512207 0.5265503 -0.48223877 1.092392l-1.27948 -0.41053772zm7.637146 -13.8607025l-0.18322754 0.41708374q-0.16833496 0.42185974 -0.40948486 0.96806335q-0.22149658 0.53608704 -0.47216797 1.11203q-0.2506714 0.575943 -0.40948486 0.96806335q-0.56829834 1.3601532 -1.1567993 2.681015q-0.5736084 1.3256226 -1.0324707 2.7537231q0.47607422 0.15275574 1.0499268 0.20559692q0.5887451 0.057617188 1.1466064 0.006881714q0.5775757 -0.060836792 1.0944824 -0.23956299q0.5169678 -0.17874146 0.86920166 -0.50878906q0.08856201 -0.93974304 0.13677979 -1.9580841q0.06781006 -1.0284424 0.095825195 -2.08609q0.04284668 -1.0528717 0.01184082 -2.0802002q-0.026184082 -1.0422058 -0.1161499 -2.0392303q-0.020202637 -0.03930664 -0.14508057 -0.16142273q-0.12005615 -0.13699341 -0.47979736 -0.03907776zm3.2287598 17.708069q0.8070679 -3.4824371 1.6885376 -6.9409943q0.88623047 -3.4734497 1.809021 -7.2141113q0.19598389 -0.60990906 0.85058594 -0.39987183l0.19342041 0.062057495q0.074401855 0.023864746 0.1116333 0.2655487q0.041992188 0.22680664 -0.030700684 0.81062317q-0.05303955 0.57373047 -0.26800537 1.702652q-0.21502686 1.1289062 -0.59039307 2.9612122q-0.35565186 1.8222046 -0.94873047 4.5364075q1.0852661 -1.5388947 1.8989868 -3.0500336q0.81378174 -1.5111389 1.7104492 -2.6674652q0.90148926 -1.1712189 2.0846558 -1.891037q1.2028198 -0.7299347 2.977417 -0.6856384q0.85980225 0.4399414 1.1043701 1.568634q0.24938965 1.1138153 0.13220215 2.6023102q-0.11242676 1.4736176 -0.51434326 3.1332855q-0.38708496 1.6644592 -0.8352661 3.1616058q-0.4434204 1.4822693 -0.8210449 2.657486q-0.37280273 1.1603241 -0.49066162 1.6804352q-0.13653564 0.16952515 -0.33312988 0.27053833q-0.1965332 0.10102844 -0.4138794 0.113357544q-0.21252441 -0.0025634766 -0.38146973 -0.08959961q-0.14935303 -0.09713745 -0.22644043 -0.36801147q0.09082031 -0.28263855 0.30377197 -1.1496735q0.23254395 -0.877121 0.52142334 -2.0315704q0.29364014 -1.1693268 0.6201782 -2.4921875q0.3265381 -1.3228607 0.6201782 -2.4921722q0.3085327 -1.1645508 0.5363159 -2.0268097q0.22784424 -0.8622589 0.2888794 -1.1544495q-0.22442627 -1.089386 -0.7069092 -1.375473q-0.47772217 -0.30096436 -1.1417847 -0.021759033q-0.649292 0.28398132 -1.4264526 1.0684204q-0.77246094 0.76956177 -1.5814819 1.8063202q-0.7893677 1.0266724 -1.5872803 2.1819q-0.782959 1.1600037 -1.4528198 2.2742615q-0.6501465 1.1041565 -1.1542358 2.0090485q-0.48919678 0.9096527 -0.7160034 1.4112244q-0.13171387 0.15464783 -0.42236328 0.24189758q-0.2906494 0.087265015 -0.5823364 0.07571411q-0.27679443 -0.0067749023 -0.5350342 -0.12245178q-0.253479 -0.1305542 -0.29125977 -0.42163086zm18.07489 1.0898132q-0.42443848 0.5037842 -1.0699463 1.1335754q-0.62579346 0.61968994 -1.366394 1.1369019q-0.72088623 0.50712585 -1.5582275 0.76356506q-0.82244873 0.26123047 -1.6556396 -0.006088257q-0.37194824 -0.11935425 -0.571228 -0.26533508q-0.17956543 -0.15608215 -0.28588867 -0.38710022q-0.10632324 -0.23103333 -0.15893555 -0.526886q-0.05267334 -0.29585266 -0.16534424 -0.660202q0.32226562 -1.2585754 0.7614746 -2.6765747q0.45404053 -1.4132233 1.0568848 -2.778717q0.607605 -1.3803558 1.3661499 -2.5153809q0.77819824 -1.1451263 1.7148438 -1.8127747q0.9515381 -0.6628723 2.06781 -0.7149353q1.1359863 -0.062179565 2.4591064 0.72335815q0.29901123 -0.67529297 0.631958 -1.8648224q0.3330078 -1.1895294 0.64941406 -2.5320435q0.3164673 -1.3424988 0.60424805 -2.595749q0.30267334 -1.2484741 0.52142334 -2.0315857q0.07171631 -0.22314453 0.31347656 -0.260437q0.26141357 -0.047409058 0.50897217 -7.7819824E-4q0.2625122 0.0513916 0.4909668 0.15753174q0.22851562 0.10612488 0.3034668 0.17939758q-1.0537109 3.075119 -1.9798584 6.0598755q-0.92614746 2.9847565 -1.8427124 5.9397583q-0.9017334 2.9597778 -1.7938843 5.889801q-0.8921509 2.9300232 -1.8241577 5.8308563q-0.09082031 0.28263855 -0.23583984 0.580719q-0.13012695 0.3028412 -0.53186035 0.1739502q-0.14874268 -0.047729492 -0.26885986 -0.1847229q-0.12011719 -0.13699341 -0.11218262 -0.3149414l1.9707642 -6.440216zm1.2659912 -7.618088q-0.75457764 -0.30773926 -1.6391602 0.1468811q-0.8845825 0.4546051 -1.7149048 1.3532715q-0.83032227 0.8986664 -1.5341187 2.0676575q-0.7037964 1.1689911 -1.1558228 2.320343q-0.432312 1.1412354 -0.51556396 2.1154938q-0.06359863 0.96417236 0.38171387 1.4680634q0.5505371 0.17662048 1.1652222 -0.10202026q0.6194458 -0.29353333 1.2362671 -0.83406067q0.621521 -0.55540466 1.1867676 -1.2929993q0.58483887 -0.74768066 1.041687 -1.4544067q0.47174072 -0.7019501 0.7813721 -1.3082123q0.3293457 -0.61634827 0.4296875 -0.92874146q0.08129883 -0.25289917 0.27301025 -0.7985382q0.21136475 -0.55574036 0.32867432 -1.1252441q0.13220215 -0.56474304 0.10241699 -1.033783q-0.010192871 -0.47914124 -0.36724854 -0.5937042zm14.195435 6.326874q0.0095825195 -0.029754639 0.013793945 -0.09403992q0.004272461 -0.06427002 0.013793945 -0.09402466q0.119506836 -0.37190247 0.43615723 -0.3359375q0.33636475 0.025863647 0.58929443 0.10702515q0.26776123 0.08592224 0.45703125 0.6717529q0.20892334 0.5757141 0.40673828 1.4924774q0.20257568 0.901886 0.37219238 1.9573059q0.17443848 1.0405426 0.38342285 2.07576q0.21380615 1.02034 0.49499512 1.8818207q0.29608154 0.8662567 0.6670532 1.346283q0.88482666 -2.2431793 1.4754028 -3.8259277q0.5905762 -1.5827332 0.973999 -2.6740265q0.39831543 -1.0865021 0.60388184 -1.7261658q0.20550537 -0.63967896 0.3005371 -0.9865875q0.114746094 -0.35702515 0.13806152 -0.4808197q0.023376465 -0.1237793 0.037719727 -0.16841125q0.14337158 -0.4462738 0.34051514 -0.4978943q0.19708252 -0.051620483 0.4649048 0.034301758q0.32733154 0.10501099 0.65093994 0.3237152q0.3236084 0.21870422 0.19451904 0.62034607q-0.4465332 1.6453705 -1.0610352 3.3024902q-0.59484863 1.6470184 -1.2592773 3.2552948q-0.6447754 1.598175 -1.225769 3.1511688q-0.5810547 1.5529938 -0.98461914 3.0644684q-0.05895996 0.030303955 -0.26135254 0.0473938q-0.19769287 0.0022277832 -0.42510986 -0.0050964355q-0.20770264 -0.017425537 -0.41070557 -0.049728394q-0.18328857 -0.042419434 -0.25769043 -0.06628418q-0.23858643 -0.1257782 -0.56866455 -0.93730164q-0.31524658 -0.80674744 -0.65441895 -1.9985962q-0.33917236 -1.191864 -0.65130615 -2.6211853q-0.31207275 -1.4293213 -0.58862305 -2.765152q-0.27648926 -1.335846 -0.4562378 -2.4109192q-0.1749878 -1.0899506 -0.21014404 -1.5935059zm6.5912476 12.879486q0.5209961 -1.6214905 1.0249634 -3.4453583q0.5235596 -1.8339691 1.0567017 -3.6976929q0.53796387 -1.8786011 1.121582 -3.6440735q0.6033325 -1.7755737 1.3134766 -3.2707214q0.04937744 -5.645752E-4 0.2475586 0.0466156q0.19824219 0.047180176 0.272583 0.07106018q0.34222412 0.10978699 0.51226807 0.29562378q0.18969727 0.17573547 0.070251465 0.54763794q-0.4779663 1.4876099 -1.052063 3.2233276q-0.5740967 1.7357178 -1.1672974 3.5309448q-0.5783081 1.800003 -1.142334 3.5553741q-0.56396484 1.7553711 -0.9781494 3.1977997q-0.10888672 0.4409485 -0.34527588 0.5127716q-0.24121094 0.0867157 -0.5090332 7.7819824E-4q-0.2975464 -0.09547424 -0.45806885 -0.31105042q-0.15039062 -0.19595337 0.032836914 -0.6130371zm5.2232666 -18.146881q0.095581055 -0.29751587 0.32244873 -0.33958435q0.24176025 -0.03730774 0.49468994 0.0438385q0.4909668 0.15753174 0.5048218 0.522995q0.028747559 0.37023926 -0.10986328 0.80163574q-0.23480225 0.220047 -0.49621582 0.2674408q-0.26141357 0.047409058 -0.48034668 -0.08847046q-0.21411133 -0.15075684 -0.29656982 -0.4561615q-0.08239746 -0.30540466 0.061035156 -0.7516937zm-0.31817627 19.868362q-0.004760742 0.014877319 0.6359863 -0.14053345q0.65563965 -0.15065002 1.5567017 -0.45228577q0.9159546 -0.29685974 1.8951416 -0.68829346q0.9940796 -0.38667297 1.6714478 -0.8093109q0.6921997 -0.41786194 0.86590576 -0.80519104q0.1784668 -0.40220642 -0.5075073 -0.7700043q-0.86932373 -0.41020203 -1.5419922 -0.46192932q-0.6578369 -0.046951294 -1.2305908 -9.918213E-4q-0.5531006 0.035858154 -1.0567627 0.07116699q-0.48883057 0.04006958 -1.00531 -0.19128418q-1.1010132 -0.35324097 -1.2977295 -1.1712036q-0.19189453 -0.83283997 0.18566895 -2.0080414q0.37756348 -1.1752167 1.2424316 -2.0792084q0.87976074 -0.89923096 1.9465332 -1.4102325q1.0817261 -0.5062256 2.315979 -0.61891174q1.2390137 -0.12756348 2.369751 0.23522949q0.4463501 0.143219 0.74975586 0.32261658q0.30340576 0.17939758 0.14093018 0.68518066q-0.11468506 0.35702515 -0.52752686 0.56918335q-0.39794922 0.21691895 -0.76989746 0.097579956q-0.029724121 -0.009552002 -0.12432861 -0.07272339q-0.07489014 -0.07325745 -0.15515137 -0.18106079q-0.08026123 -0.107788086 -0.17486572 -0.17095947q-0.07489014 -0.073272705 -0.10467529 -0.08282471q-0.7269287 -0.49578857 -1.6338501 -0.27807617q-0.8873291 0.20759583 -1.730957 0.7902069q-0.8239746 0.57250977 -1.4678345 1.3504944q-0.64385986 0.7779999 -0.86846924 1.4771729q-0.09082031 0.2826538 -0.039245605 0.47969055q0.06640625 0.201828 0.23596191 0.3382721q0.16949463 0.13642883 0.402771 0.22769165q0.23327637 0.09124756 0.48620605 0.17240906q0.4909668 0.15751648 1.0595093 0.17584229q0.5733032 0.0034332275 1.1115112 -0.037200928q0.5578613 -0.050735474 1.1264038 -0.032409668q0.5685425 0.018310547 1.1190186 0.19493103q0.2529297 0.0811615 0.50268555 0.32539368q0.2545166 0.22935486 0.42144775 0.5782776q0.17163086 0.33403015 0.24023438 0.73347473q0.068603516 0.39942932 -0.045532227 0.80584717q0.03881836 0.38989258 -0.38562012 0.89367676q-0.42443848 0.5037842 -1.1108398 1.0055847q-0.68640137 0.5017853 -1.5858765 0.9516144q-0.87976074 0.43974304 -1.7410278 0.77056885q-0.84155273 0.3207245 -1.6013184 0.43795776q-0.7645874 0.1321106 -1.2061157 -0.025970459q-0.5058594 -0.16230774 -0.49475098 -0.5033417q0.006286621 -0.32617188 0.12579346 -0.69807434zm14.533691 4.3513794q0.09124756 -0.69273376 0.29351807 -1.6288147q0.20709229 -0.95095825 0.40405273 -1.9215698q0.20172119 -0.98547363 0.33068848 -1.8466187q0.13378906 -0.87602234 0.018371582 -1.487381q-2.1159058 2.1927795 -3.5805664 3.380188q-1.4450684 1.1773224 -2.3944702 1.5783081q-0.94940186 0.40100098 -1.4505005 0.22381592q-0.48138428 -0.18728638 -0.670105 -0.7237091q-0.1887207 -0.5364227 -0.12719727 -1.2387085q0.08117676 -0.7123718 0.22296143 -1.3068695q0.17681885 -0.55041504 0.7351074 -1.4707336q0.5779419 -0.93040466 1.3917847 -1.9820557q0.81378174 -1.051651 1.7907715 -2.1001892q0.9918213 -1.0437775 1.9815063 -1.8256531q1.0093994 -0.7919769 1.9487305 -1.212616q0.93933105 -0.42063904 1.668335 -0.18673706q1.1386719 0.18482971 1.4390259 0.9868164q0.31518555 0.8067322 -0.49487305 2.204193q-0.5305176 1.6512451 -0.7789917 2.8842926q-0.24365234 1.2181702 -0.42889404 2.3566284q-0.18048096 1.1235809 -0.42895508 2.3566284q-0.2288208 1.2229462 -0.7593384 2.8741913q-0.095581055 0.29751587 -0.22680664 0.5015564q-0.12640381 0.18917847 -0.69177246 0.0077819824q-0.074401855 -0.023864746 -0.15515137 -0.18107605q-0.061157227 -0.16729736 -0.037231445 -0.2416687zm2.249878 -11.65094q-0.15362549 -0.49235535 -0.7348633 -0.31782532q-0.5812988 0.17451477 -1.3606567 0.7613373q-0.7597046 0.5767212 -1.6495361 1.4562988q-0.88983154 0.87957764 -1.7148438 1.8127747q-0.8201904 0.9183197 -1.487915 1.7706909q-0.65289307 0.8571472 -0.9875488 1.4389801q-0.2915039 0.9074402 -0.047058105 1.117157q0.24920654 0.19482422 0.77996826 -0.077941895q0.5307007 -0.2727661 1.2755737 -0.8542633q0.76446533 -0.5915985 1.5278931 -1.2820129q0.7681885 -0.7052765 1.4577026 -1.3701477q0.7044678 -0.6600952 1.1049805 -1.089508q0.40533447 -0.4442749 0.66778564 -0.8523712q0.28204346 -0.41819763 0.4902954 -0.81085205q0.2230835 -0.38789368 0.37176514 -0.7996521q0.15350342 -0.42662048 0.30645752 -0.9026642zm1.0252075 7.778885q0.033447266 -0.10412598 0.23370361 -0.3188324q0.21514893 -0.20993042 0.30389404 -0.23069763q1.1248779 0.27886963 2.369751 0.23524475q1.2449341 -0.043640137 2.4940186 -0.1515503q1.2687988 -0.118011475 2.4494019 -0.16586304q1.1954956 -0.04307556 2.2072144 0.28153992q0.119018555 0.03817749 0.15039062 0.19593811q0.036132812 0.14286804 0.013305664 0.3160553q-0.00793457 0.17796326 -0.055725098 0.3267212l-0.057373047 0.17851257q-0.033447266 0.10412598 -0.10620117 0.22846985q-0.057922363 0.12910461 -0.06744385 0.15885925l-8.12616 -0.14585876q-0.05419922 0.0154418945 -0.32678223 -0.055618286q-0.26782227 -0.08592224 -0.41656494 -0.13365173l-0.20300293 -0.032302856q-0.17852783 -0.057281494 -0.39691162 -0.14376831q-0.21362305 -0.10134888 -0.3682251 -0.23301697q-0.15466309 -0.13166809 -0.09729004 -0.31018066zm11.791565 -1.8943634q0.009521484 -0.029754639 0.013793945 -0.09402466q0.004211426 -0.06428528 0.013793945 -0.09403992q0.119506836 -0.37190247 0.43615723 -0.33592224q0.33636475 0.025863647 0.5892334 0.10700989q0.26782227 0.08592224 0.4570923 0.6717529q0.2088623 0.57572937 0.40667725 1.4924774q0.20257568 0.901886 0.37225342 1.9573212q0.17443848 1.0405426 0.38342285 2.07576q0.21374512 1.0203247 0.49499512 1.8818054q0.29608154 0.8662567 0.6669922 1.346283q0.88482666 -2.2431793 1.4754028 -3.8259125q0.5906372 -1.5827484 0.97406006 -2.6740265q0.39831543 -1.0865021 0.6038208 -1.726181q0.20550537 -0.6396637 0.30059814 -0.9865875q0.11468506 -0.35702515 0.13806152 -0.48080444q0.023376465 -0.123794556 0.037719727 -0.16841125q0.14337158 -0.44628906 0.3404541 -0.49790955q0.19714355 -0.051620483 0.46496582 0.034301758q0.3272705 0.105026245 0.6508789 0.3237152q0.3236084 0.21870422 0.19458008 0.6203613q-0.44659424 1.6453552 -1.0610352 3.302475q-0.59484863 1.6470184 -1.2592773 3.2552948q-0.6447754 1.598175 -1.225769 3.1511688q-0.5810547 1.5529938 -0.98461914 3.0644684q-0.05895996 0.030303955 -0.26141357 0.047409058q-0.19763184 0.0022125244 -0.42504883 -0.0051116943q-0.20776367 -0.017425537 -0.41070557 -0.049728394q-0.18334961 -0.042404175 -0.25775146 -0.06628418q-0.23858643 -0.1257782 -0.56866455 -0.9372864q-0.31518555 -0.80674744 -0.6543579 -1.9986115q-0.33917236 -1.191864 -0.65130615 -2.62117q-0.3121338 -1.4293213 -0.58862305 -2.7651672q-0.27648926 -1.335846 -0.45629883 -2.4109192q-0.17492676 -1.0899506 -0.21008301 -1.5935059zm8.50061 8.060547q-0.14349365 -0.013214111 -0.41552734 -0.034866333q-0.25238037 -0.03173828 -0.53027344 -0.13731384q-0.25823975 -0.11567688 -0.4282837 -0.30151367q-0.18017578 -0.20549011 -0.07977295 -0.51789856q0.05255127 -0.16363525 0.15081787 -0.21414185q0.10308838 -0.06538391 0.32940674 -0.15686035q0.6939087 -0.26966858 1.3101196 -0.8596039q0.616272 -0.5899353 1.2064209 -1.3030853q0.59020996 -0.7131653 1.210144 -1.4167786q0.63482666 -0.69885254 1.3164673 -1.1857605q0.68640137 -0.5017853 1.5147095 -0.6790924q0.8432007 -0.17251587 1.8649902 0.17173767q0.43145752 0.138443 0.8852539 0.5137787q0.45861816 0.36047363 0.7949829 0.8458252q0.35131836 0.49012756 0.49591064 1.0616455q0.15948486 0.5762787 -0.026916504 1.1564331q0.056884766 0.23158264 -0.43933105 0.49902344q-0.4765625 0.25732422 -1.244812 0.5031128q-0.76348877 0.23092651 -1.7150269 0.43429565q-0.93670654 0.2081604 -1.7947998 0.37590027q-0.8432007 0.17253113 -1.5089111 0.30352783q-0.6460571 0.120895386 -0.85754395 0.21714783q-0.21514893 0.20993042 -0.39465332 0.5133362q-0.17956543 0.30340576 -0.31976318 0.5865936q-0.12060547 0.2731018 -0.21191406 0.50634766q-0.09136963 0.23324585 -0.12963867 0.35224915q-0.15289307 0.47602844 -0.38397217 1.0418854q-0.21612549 0.5706177 -0.29412842 1.1199188q-0.07324219 0.5344238 0.144104 0.9815979q0.21740723 0.4471588 0.99102783 0.6953888q0.8331909 0.26731873 1.6960449 0.08470154q0.862854 -0.18261719 1.678894 -0.5771637q0.8208618 -0.4094391 1.5513306 -0.9463043q0.7501221 -0.54696655 1.3626709 -1.0232239q0.6125488 -0.47625732 1.0689087 -0.7728882q0.45635986 -0.29664612 0.6795654 -0.22503662q0.2529297 0.08114624 0.506897 0.2611084q0.2689209 0.1847229 0.16851807 0.49713135q-0.14813232 0.46115112 -0.7208252 0.9665985q-0.5578613 0.51023865 -1.3823853 1.0333405q-0.8197632 0.5082245 -1.8031616 0.9639435q-0.9786377 0.44084167 -1.939209 0.7233887q-0.94573975 0.28729248 -1.8144531 0.3860016q-0.8538208 0.10345459 -1.434082 -0.08270264q-1.1306763 -0.36280823 -1.5341187 -1.0993805q-0.3986206 -0.75146484 -0.3737793 -1.6460266q0.02960205 -0.9094391 0.31585693 -1.8513947q0.3059082 -0.95207214 0.5342407 -1.7649231zm6.786865 -5.2887726q-0.41662598 -0.13366699 -1.0264893 0.1301117q-0.6099243 0.26376343 -1.2177124 0.72514343q-0.6029663 0.4465027 -1.0715332 0.9853821q-0.46374512 0.5239868 -0.5928345 0.9256439q0.38684082 0.12411499 1.1917725 0.07060242q0.8097534 -0.06838989 1.647644 -0.2754364q0.8378296 -0.20704651 1.5115356 -0.5159912q0.6885376 -0.30418396 0.8223877 -0.7207184q0.07647705 -0.23802185 -0.054260254 -0.44406128q-0.11584473 -0.20126343 -0.32525635 -0.36689758q-0.20458984 -0.18052673 -0.44317627 -0.30630493q-0.23382568 -0.14065552 -0.44207764 -0.20747375zm6.3495483 2.1521301l0.06689453 -0.20826721q0.08129883 -0.2528839 0.28851318 -0.28486633q0.22686768 -0.04206848 0.47979736 0.03907776q0.20825195 0.066833496 0.35760498 0.16397095q0.16894531 0.08703613 0.1918335 0.3733368q-0.04510498 0.3957672 -0.18579102 1.0890656q-0.1359253 0.67840576 -0.28985596 1.5151367q-0.15393066 0.8367157 -0.33654785 1.7626953q-0.16778564 0.9307556 -0.3217163 1.7674713q-0.13427734 0.8266144 -0.21600342 1.4896088q-0.066833496 0.6677551 -0.02319336 1.0427551q0.69989014 -2.4337769 1.4918213 -4.132431q0.79193115 -1.6986389 1.7901611 -2.6090698q0.99816895 -0.91044617 2.2526245 -0.9838257q1.2741089 -0.083496094 2.8740845 0.7088165q0.77368164 0.24822998 0.5108032 1.0664215q-0.105163574 0.3272705 -0.57489014 0.30784607q-0.4500122 -0.029541016 -0.99993896 -0.15675354q-0.5303345 -0.1373291 -1.0552979 -0.24012756q-0.5201416 -0.11767578 -0.8102417 0.018981934q-1.0653076 0.19972229 -1.7766113 1.1365814q-0.69641113 0.94163513 -1.3087769 2.3368683q-0.607605 1.3803711 -1.2120361 3.0571442q-0.59954834 1.6618958 -1.4558105 3.3563232q-0.08123779 0.2528839 -0.33258057 0.3199463q-0.23162842 0.0569458 -0.5291748 -0.038528442q-0.28271484 -0.09069824 -0.51226807 -0.29562378q-0.2098999 -0.21504211 -0.2774048 -0.5156708l1.9140015 -12.086884zm8.27594 15.58609q-0.004760742 0.014892578 0.6359863 -0.14053345q0.65563965 -0.15066528 1.5567017 -0.45230103q0.9160156 -0.29684448 1.8951416 -0.68829346q0.9940796 -0.3866577 1.6714478 -0.80929565q0.69226074 -0.41786194 0.86590576 -0.80519104q0.1784668 -0.40222168 -0.5075073 -0.7700043q-0.86932373 -0.41020203 -1.5419922 -0.46192932q-0.6577759 -0.046966553 -1.2305298 -9.918213E-4q-0.5531616 0.035858154 -1.0568237 0.07115173q-0.48883057 0.04008484 -1.00531 -0.19126892q-1.1009521 -0.35325623 -1.2976685 -1.1712036q-0.19195557 -0.83283997 0.18560791 -2.0080414q0.3776245 -1.1752167 1.2424316 -2.0792084q0.87976074 -0.89923096 1.9465942 -1.4102325q1.081665 -0.5062256 2.315918 -0.61891174q1.2390747 -0.12756348 2.369812 0.23522949q0.44628906 0.14320374 0.74975586 0.32261658q0.30340576 0.17939758 0.14086914 0.68518066q-0.11468506 0.35702515 -0.52752686 0.5691681q-0.39788818 0.2169342 -0.7698364 0.097595215q-0.029785156 -0.009552002 -0.12432861 -0.07272339q-0.07495117 -0.073272705 -0.1552124 -0.18106079q-0.08026123 -0.107803345 -0.17480469 -0.17095947q-0.07495117 -0.073272705 -0.10473633 -0.08282471q-0.7269287 -0.49578857 -1.6338501 -0.27809143q-0.88726807 0.20761108 -1.730957 0.79022217q-0.8239746 0.5724945 -1.4678345 1.3504944q-0.64385986 0.7779999 -0.86846924 1.4771729q-0.09082031 0.28263855 -0.039245605 0.47969055q0.066467285 0.201828 0.23596191 0.3382721q0.16949463 0.13642883 0.402771 0.22769165q0.23327637 0.09124756 0.48620605 0.1723938q0.4909668 0.15753174 1.0595093 0.17584229q0.5733032 0.0034484863 1.1115112 -0.03718567q0.55792236 -0.050735474 1.1264038 -0.032424927q0.5685425 0.018325806 1.1190186 0.19494629q0.2529297 0.08114624 0.50268555 0.32537842q0.25457764 0.22935486 0.42144775 0.5782776q0.1716919 0.3340454 0.24029541 0.73347473q0.068603516 0.39944458 -0.04559326 0.8058624q0.038879395 0.38989258 -0.38562012 0.8936615q-0.42443848 0.5038147 -1.1108398 1.0055847q-0.68634033 0.50180054 -1.5858154 0.95162964q-0.8798218 0.43972778 -1.7410278 0.77056885q-0.84161377 0.32070923 -1.6013794 0.43795776q-0.7645874 0.1321106 -1.2061157 -0.025970459q-0.5058594 -0.162323 -0.49475098 -0.50335693q0.0063476562 -0.32614136 0.12579346 -0.6980591zm14.533691 4.3513794q0.09124756 -0.692749 0.2935791 -1.6288147q0.20703125 -0.95095825 0.4039917 -1.9215698q0.20178223 -0.98547363 0.3307495 -1.8466187q0.13372803 -0.8760376 0.018310547 -1.4873962q-2.1159058 2.1927795 -3.5805664 3.3802185q-1.4450073 1.1773071 -2.3944702 1.5783081q-0.94940186 0.40097046 -1.4504395 0.2237854q-0.4814453 -0.18725586 -0.670166 -0.72369385q-0.18865967 -0.536438 -0.12719727 -1.2387085q0.08117676 -0.7123718 0.22296143 -1.3068848q0.17687988 -0.5503845 0.7351074 -1.4707184q0.5779419 -0.9304199 1.3917847 -1.9820709q0.8138428 -1.0516357 1.7907715 -2.1001892q0.9918213 -1.0437622 1.9815674 -1.8256378q1.0093994 -0.7919922 1.9487305 -1.2126312q0.93927 -0.42063904 1.668335 -0.1867218q1.1386719 0.18482971 1.4389648 0.98680115q0.31518555 0.80674744 -0.494812 2.2042084q-0.5305786 1.6512451 -0.7789917 2.8842926q-0.24371338 1.2181702 -0.42895508 2.3566284q-0.18048096 1.1235962 -0.42895508 2.3566284q-0.22875977 1.2229309 -0.7593384 2.874176q-0.095581055 0.29751587 -0.2267456 0.5015869q-0.12646484 0.18914795 -0.6918335 0.007751465q-0.074401855 -0.023864746 -0.15515137 -0.18106079q-0.061157227 -0.16729736 -0.037231445 -0.2416687zm2.249878 -11.65094q-0.15362549 -0.49235535 -0.7348633 -0.31784058q-0.5812378 0.17453003 -1.3605957 0.76135254q-0.7597046 0.5767212 -1.6495361 1.4562988q-0.88983154 0.87957764 -1.7148438 1.8127747q-0.82025146 0.9183197 -1.4879761 1.7706909q-0.65289307 0.8571472 -0.9874878 1.4389648q-0.29156494 0.9074402 -0.04711914 1.117157q0.24920654 0.19482422 0.77996826 -0.077941895q0.5307617 -0.2727661 1.2755737 -0.85424805q0.76446533 -0.59161377 1.5278931 -1.2820129q0.7681885 -0.7052765 1.4577637 -1.3701477q0.70440674 -0.6600952 1.1049805 -1.089508q0.40533447 -0.44429016 0.6677246 -0.8523712q0.28204346 -0.41819763 0.4902954 -0.8108673q0.2230835 -0.38787842 0.37182617 -0.79963684q0.15344238 -0.42663574 0.30639648 -0.9026642zm0.023803711 12.01944q0.4765625 -0.25732422 0.7576294 -0.31484985q0.3007202 -0.067596436 0.7024536 0.061279297q0.6843872 0.21960449 0.47406006 0.8741455q-0.047790527 0.14874268 -0.19921875 0.31350708q-0.15136719 0.16473389 -0.35754395 0.29553223q-0.1864624 0.120666504 -0.39367676 0.15264893q-0.19232178 0.036743164 -0.3171997 -0.08538818q-0.21679688 0.06173706 -0.39105225 -0.05984497q-0.15942383 -0.11679077 -0.27526855 -0.3180542q-0.10101318 -0.19650269 -0.12335205 -0.43338013q-0.0026855469 -0.24700928 0.123168945 -0.4855957z" fill-rule="nonzero"></path></g></svg>

