<?xml version="1.0" encoding="utf-8"?>
<!-- Generator: Adobe Illustrator 16.0.4, SVG Export Plug-In . SVG Version: 6.00 Build 0)  -->
<!DOCTYPE svg PUBLIC "-//W3C//DTD SVG 1.1//EN" "http://www.w3.org/Graphics/SVG/1.1/DTD/svg11.dtd">
<svg version="1.1" id="Layer_1" xmlns="http://www.w3.org/2000/svg" xmlns:xlink="http://www.w3.org/1999/xlink" x="0px" y="0px"
	 width="418.001px" height="427.034px" viewBox="0 0 418.001 427.034" enable-background="new 0 0 418.001 427.034"
	 xml:space="preserve">
<g>
	<g>
		<defs>
			<polygon id="SVGID_1_" points="206.001,262.982 308.447,206.423 327.5,48.647 206.113,134.325 			"/>
		</defs>
		<clipPath id="SVGID_2_">
			<use xlink:href="#SVGID_1_"  overflow="visible"/>
		</clipPath>
		
			<rect x="203.501" y="46.142" clip-path="url(#SVGID_2_)" fill-rule="evenodd" clip-rule="evenodd" fill="#0E7E46" width="126.499" height="219.349"/>
	</g>
	<g>
		<defs>
			<polygon id="SVGID_3_" points="206.001,134.325 85.501,49.678 104.578,207.738 206.001,263.639 			"/>
		</defs>
		<clipPath id="SVGID_4_">
			<use xlink:href="#SVGID_3_"  overflow="visible"/>
		</clipPath>
		
			<rect x="83" y="47.172" clip-path="url(#SVGID_4_)" fill-rule="evenodd" clip-rule="evenodd" fill="#F3B41B" width="125.501" height="218.975"/>
	</g>
	<g>
		<defs>
			<polygon id="SVGID_5_" points="85.501,49.445 206.001,135.5 206.113,7.017 			"/>
		</defs>
		<clipPath id="SVGID_6_">
			<use xlink:href="#SVGID_5_"  overflow="visible"/>
		</clipPath>
		
			<rect x="83" y="4.511" clip-path="url(#SVGID_6_)" fill-rule="evenodd" clip-rule="evenodd" fill="#5F78BA" width="125.613" height="133.496"/>
	</g>
	<g>
		<defs>
			<polygon id="SVGID_7_" points="206.001,134.671 327.5,48.867 206.001,7.017 			"/>
		</defs>
		<clipPath id="SVGID_8_">
			<use xlink:href="#SVGID_7_"  overflow="visible"/>
		</clipPath>
		
			<rect x="203.501" y="4.511" clip-path="url(#SVGID_8_)" fill-rule="evenodd" clip-rule="evenodd" fill="#4C65AF" width="126.499" height="132.666"/>
	</g>
	<g>
		<defs>
			<polygon id="SVGID_9_" points="118.39,73.179 132.268,188.338 206.001,229.064 280.74,187.785 294.611,72.631 206.001,42.245 			
				"/>
		</defs>
		<clipPath id="SVGID_10_">
			<use xlink:href="#SVGID_9_"  overflow="visible"/>
		</clipPath>
		
			<rect x="115.889" y="39.74" opacity="0.2" clip-path="url(#SVGID_10_)" fill-rule="evenodd" clip-rule="evenodd" fill="#010101" width="181.225" height="191.83"/>
	</g>
	<g>
		<defs>
			<polygon id="SVGID_11_" points="128.4,80.277 140.702,182.353 206.333,218.452 272.303,181.862 284.602,79.792 206.252,52.859 
							"/>
		</defs>
		<clipPath id="SVGID_12_">
			<use xlink:href="#SVGID_11_"  overflow="visible"/>
		</clipPath>
		
			<rect x="125.9" y="50.354" clip-path="url(#SVGID_12_)" fill-rule="evenodd" clip-rule="evenodd" fill="#DC4537" width="161.203" height="170.605"/>
	</g>
	<g>
		<defs>
			<path id="SVGID_13_" d="M182.851,151.384l-10.888,27.549h-20.252l54.29-120.818l56.212,120.818h-18.771l-11.922-27.549H182.851z
				 M224.52,134.826l-18.519-37.947l-16.006,37.947H224.52z"/>
		</defs>
		<clipPath id="SVGID_14_">
			<use xlink:href="#SVGID_13_"  overflow="visible"/>
		</clipPath>
		
			<rect x="149.21" y="55.608" clip-path="url(#SVGID_14_)" fill-rule="evenodd" clip-rule="evenodd" fill="#F1F0F0" width="115.503" height="125.831"/>
	</g>
	<g>
		<defs>
			<polygon id="SVGID_15_" points="206.001,218.452 272.303,181.862 284.602,79.792 206.001,52.86 			"/>
		</defs>
		<clipPath id="SVGID_16_">
			<use xlink:href="#SVGID_15_"  overflow="visible"/>
		</clipPath>
		
			<rect x="203.501" y="50.355" opacity="0.2" clip-path="url(#SVGID_16_)" fill-rule="evenodd" clip-rule="evenodd" fill="#010101" width="83.603" height="170.604"/>
	</g>
	<g>
		<defs>
			<path id="SVGID_17_" d="M97.5,341.326c0,0,7.501-1.822,7.501-3.828v-18.225c0-2.188-7.501-4.01-7.501-4.01
				s-7.499,1.822-7.499,3.826v18.408C90.001,339.504,97.5,341.326,97.5,341.326z M97.5,405.482c0,0,7.501-1.822,7.501-3.828v-18.408
				c0-2.004-7.501-3.826-7.501-3.826s-7.499,1.822-7.499,3.826v18.227C90.001,403.66,97.5,405.482,97.5,405.482z M106.304,364.457
				c9.508,1.758,16.197,6.328,16.197,11.604v31.297c0,7.033-25.001,12.66-25.001,12.66s-25-5.627-25-12.66v-31.297
				c0-5.275,6.691-9.846,16.198-11.604v-9.672c-9.507-1.76-16.198-6.328-16.198-11.779v-31.297c0-6.859,25-12.486,25-12.486
				s25.001,5.627,25.001,12.486v31.297c0,5.451-6.689,10.02-16.197,11.779V364.457z"/>
		</defs>
		<clipPath id="SVGID_18_">
			<use xlink:href="#SVGID_17_"  overflow="visible"/>
		</clipPath>
		
			<rect x="70.001" y="296.719" clip-path="url(#SVGID_18_)" fill-rule="evenodd" clip-rule="evenodd" fill="#F1F0F0" width="55" height="125.805"/>
	</g>
	<g>
		<defs>
			<path id="SVGID_19_" d="M97.5,341.326c0,0,7.501-1.822,7.501-3.828v-18.225c0-2.188-7.501-4.01-7.501-4.01
				s-7.499,1.822-7.499,3.826v18.408C90.001,339.504,97.5,341.326,97.5,341.326z M97.5,405.482c0,0,7.501-1.822,7.501-3.828v-18.408
				c0-2.004-7.501-3.826-7.501-3.826s-7.499,1.822-7.499,3.826v18.227C90.001,403.66,97.5,405.482,97.5,405.482z M106.304,364.457
				c9.508,1.758,16.197,6.328,16.197,11.604v31.297c0,7.033-25.001,12.66-25.001,12.66s-25-5.627-25-12.66v-31.297
				c0-5.275,6.691-9.846,16.198-11.604v-9.672c-9.507-1.76-16.198-6.328-16.198-11.779v-31.297c0-6.859,25-12.486,25-12.486
				s25.001,5.627,25.001,12.486v31.297c0,5.451-6.689,10.02-16.197,11.779V364.457z"/>
		</defs>
		<clipPath id="SVGID_20_">
			<use xlink:href="#SVGID_19_"  overflow="visible"/>
		</clipPath>
		<g clip-path="url(#SVGID_20_)">
			<defs>
				<rect id="SVGID_21_" x="97.5" y="291.707" width="35.001" height="137.332"/>
			</defs>
			<clipPath id="SVGID_22_">
				<use xlink:href="#SVGID_21_"  overflow="visible"/>
			</clipPath>
			
				<rect x="95.001" y="289.201" opacity="0.2" clip-path="url(#SVGID_22_)" fill-rule="evenodd" clip-rule="evenodd" fill="#010101" width="40" height="142.344"/>
		</g>
	</g>
	<g>
		<defs>
			<path id="SVGID_23_" d="M32,299.223c0,0-24.999,5.576-24.999,12.371v75.084c0,1.221,8.803,2.264,8.803,2.264
				s8.803-1.043,8.803-2.264v-68.291c0-1.914,7.394-3.658,7.394-3.658s7.395,1.744,7.395,3.834v68.115
				c0,1.221,8.804,2.264,8.804,2.264s8.803-1.043,8.803-2.264v-75.084C57.001,304.799,32,299.223,32,299.223z"/>
		</defs>
		<clipPath id="SVGID_24_">
			<use xlink:href="#SVGID_23_"  overflow="visible"/>
		</clipPath>
		
			<rect x="4.501" y="296.719" clip-path="url(#SVGID_24_)" fill-rule="evenodd" clip-rule="evenodd" fill="#F1F0F0" width="55" height="94.73"/>
	</g>
	<g>
		<defs>
			<path id="SVGID_25_" d="M32,299.223c0,0-24.999,5.576-24.999,12.371v75.084c0,1.221,8.803,2.264,8.803,2.264
				s8.803-1.043,8.803-2.264v-68.291c0-1.914,7.394-3.658,7.394-3.658s7.395,1.744,7.395,3.834v68.115
				c0,1.221,8.804,2.264,8.804,2.264s8.803-1.043,8.803-2.264v-75.084C57.001,304.799,32,299.223,32,299.223z"/>
		</defs>
		<clipPath id="SVGID_26_">
			<use xlink:href="#SVGID_25_"  overflow="visible"/>
		</clipPath>
		<g clip-path="url(#SVGID_26_)">
			<defs>
				<rect id="SVGID_27_" x="32" y="284.189" width="35.001" height="113.273"/>
			</defs>
			<clipPath id="SVGID_28_">
				<use xlink:href="#SVGID_27_"  overflow="visible"/>
			</clipPath>
			
				<rect x="29.5" y="281.682" opacity="0.2" clip-path="url(#SVGID_28_)" fill-rule="evenodd" clip-rule="evenodd" fill="#010101" width="40.001" height="118.287"/>
		</g>
	</g>
	<g>
		<defs>
			<path id="SVGID_29_" d="M222.199,359.02c0,0-8.804,1.059-8.804,2.117v10.23c0,2.117-7.395,3.881-7.395,3.881
				s-7.395-1.764-7.395-3.705v-52.914c0-1.941,7.395-3.707,7.395-3.707s7.395,1.766,7.395,3.883v10.23
				c0,1.059,8.804,2.115,8.804,2.115s8.803-1.057,8.803-2.115v-17.287c0-6.879-25.001-12.525-25.001-12.525s-25,5.646-25,12.525
				v66.676c0,6.879,25,12.523,25,12.523s25.001-5.645,25.001-12.523v-17.287C231.002,360.078,222.199,359.02,222.199,359.02z"/>
		</defs>
		<clipPath id="SVGID_30_">
			<use xlink:href="#SVGID_29_"  overflow="visible"/>
		</clipPath>
		
			<rect x="178.501" y="296.719" clip-path="url(#SVGID_30_)" fill-rule="evenodd" clip-rule="evenodd" fill="#F1F0F0" width="54.999" height="96.734"/>
	</g>
	<g>
		<defs>
			<path id="SVGID_31_" d="M222.199,359.02c0,0-8.804,1.059-8.804,2.117v10.23c0,2.117-7.395,3.881-7.395,3.881
				s-7.395-1.764-7.395-3.705v-52.914c0-1.941,7.395-3.707,7.395-3.707s7.395,1.766,7.395,3.883v10.23
				c0,1.059,8.804,2.115,8.804,2.115s8.803-1.057,8.803-2.115v-17.287c0-6.879-25.001-12.525-25.001-12.525s-25,5.646-25,12.525
				v66.676c0,6.879,25,12.523,25,12.523s25.001-5.645,25.001-12.523v-17.287C231.002,360.078,222.199,359.02,222.199,359.02z"/>
		</defs>
		<clipPath id="SVGID_32_">
			<use xlink:href="#SVGID_31_"  overflow="visible"/>
		</clipPath>
		<g clip-path="url(#SVGID_32_)">
			<defs>
				<rect id="SVGID_33_" x="206.001" y="291.707" width="35.001" height="113.273"/>
			</defs>
			<clipPath id="SVGID_34_">
				<use xlink:href="#SVGID_33_"  overflow="visible"/>
			</clipPath>
			
				<rect x="203.501" y="289.201" opacity="0.2" clip-path="url(#SVGID_34_)" fill-rule="evenodd" clip-rule="evenodd" fill="#010101" width="40.001" height="118.285"/>
		</g>
	</g>
	<g>
		<defs>
			<path id="SVGID_35_" d="M271.002,374.406c0,0,7.5-1.758,7.5-3.691v-52.584c0-2.111-7.5-3.869-7.5-3.869s-7.502,1.758-7.502,3.691
				v52.762C263.5,372.648,271.002,374.406,271.002,374.406z M271.002,299.223c0,0,24.998,5.646,24.998,12.525v66.676
				c0,6.879-24.998,12.523-24.998,12.523S246,385.303,246,378.424v-66.676C246,304.869,271.002,299.223,271.002,299.223z"/>
		</defs>
		<clipPath id="SVGID_36_">
			<use xlink:href="#SVGID_35_"  overflow="visible"/>
		</clipPath>
		
			<rect x="243.502" y="296.719" clip-path="url(#SVGID_36_)" fill-rule="evenodd" clip-rule="evenodd" fill="#F1F0F0" width="55" height="96.734"/>
	</g>
	<g>
		<defs>
			<path id="SVGID_37_" d="M271.002,374.406c0,0,7.5-1.758,7.5-3.691v-52.584c0-2.111-7.5-3.869-7.5-3.869s-7.502,1.758-7.502,3.691
				v52.762C263.5,372.648,271.002,374.406,271.002,374.406z M271.002,299.223c0,0,24.998,5.646,24.998,12.525v66.676
				c0,6.879-24.998,12.523-24.998,12.523S246,385.303,246,378.424v-66.676C246,304.869,271.002,299.223,271.002,299.223z"/>
		</defs>
		<clipPath id="SVGID_38_">
			<use xlink:href="#SVGID_37_"  overflow="visible"/>
		</clipPath>
		<g clip-path="url(#SVGID_38_)">
			<defs>
				<rect id="SVGID_39_" x="271.002" y="291.707" width="34.998" height="113.273"/>
			</defs>
			<clipPath id="SVGID_40_">
				<use xlink:href="#SVGID_39_"  overflow="visible"/>
			</clipPath>
			
				<rect x="268.5" y="289.201" opacity="0.2" clip-path="url(#SVGID_40_)" fill-rule="evenodd" clip-rule="evenodd" fill="#010101" width="40.002" height="118.285"/>
		</g>
	</g>
	<g>
		<defs>
			<path id="SVGID_41_" d="M336.5,299.223c0,0-24.998,5.576-24.998,12.371v75.084c0,1.221,8.803,2.264,8.803,2.264
				s8.803-1.043,8.803-2.264v-68.291c0-1.914,7.393-3.658,7.393-3.658s7.395,1.744,7.395,3.834v68.115
				c0,1.221,8.803,2.264,8.803,2.264s8.803-1.043,8.803-2.264v-75.084C361.5,304.799,336.5,299.223,336.5,299.223z"/>
		</defs>
		<clipPath id="SVGID_42_">
			<use xlink:href="#SVGID_41_"  overflow="visible"/>
		</clipPath>
		
			<rect x="309" y="296.719" clip-path="url(#SVGID_42_)" fill-rule="evenodd" clip-rule="evenodd" fill="#F1F0F0" width="55" height="94.73"/>
	</g>
	<g>
		<defs>
			<path id="SVGID_43_" d="M336.5,299.223c0,0-24.998,5.576-24.998,12.371v75.084c0,1.221,8.803,2.264,8.803,2.264
				s8.803-1.043,8.803-2.264v-68.291c0-1.914,7.393-3.658,7.393-3.658s7.395,1.744,7.395,3.834v68.115
				c0,1.221,8.803,2.264,8.803,2.264s8.803-1.043,8.803-2.264v-75.084C361.5,304.799,336.5,299.223,336.5,299.223z"/>
		</defs>
		<clipPath id="SVGID_44_">
			<use xlink:href="#SVGID_43_"  overflow="visible"/>
		</clipPath>
		<g clip-path="url(#SVGID_44_)">
			<defs>
				<rect id="SVGID_45_" x="336.5" y="291.707" width="31.502" height="113.273"/>
			</defs>
			<clipPath id="SVGID_46_">
				<use xlink:href="#SVGID_45_"  overflow="visible"/>
			</clipPath>
			
				<rect x="334.002" y="289.201" opacity="0.2" clip-path="url(#SVGID_46_)" fill-rule="evenodd" clip-rule="evenodd" fill="#010101" width="36.5" height="118.285"/>
		</g>
	</g>
	<g>
		<defs>
			<path id="SVGID_47_" d="M408.9,301.205h-14.711v-10.719c0,0,3.33-3.867,7.357-3.867h7.354c1.051,0,2.1-7.73,2.1-7.73
				s-1.049-7.732-2.1-7.732h-7.354c-13.658,0-24.865,12.475-24.865,12.475v17.574h-8.756c-1.051,0-1.926,7.732-1.926,7.732
				s0.875,7.906,1.926,7.906h8.756v70.814c0,1.232,8.754,2.285,8.754,2.285s8.754-1.053,8.754-2.285v-70.814H408.9
				c1.051,0,2.1-7.73,2.1-7.73S409.951,301.205,408.9,301.205z"/>
		</defs>
		<clipPath id="SVGID_48_">
			<use xlink:href="#SVGID_47_"  overflow="visible"/>
		</clipPath>
		
			<rect x="363.5" y="268.65" clip-path="url(#SVGID_48_)" fill-rule="evenodd" clip-rule="evenodd" fill="#F1F0F0" width="50.002" height="123.801"/>
	</g>
	<g>
		<defs>
			<path id="SVGID_49_" d="M408.9,301.205h-14.711v-10.719c0,0,3.33-3.867,7.357-3.867h7.354c1.051,0,2.1-7.73,2.1-7.73
				s-1.049-7.732-2.1-7.732h-7.354c-13.658,0-24.865,12.475-24.865,12.475v17.574h-8.756c-1.051,0-1.926,7.732-1.926,7.732
				s0.875,7.906,1.926,7.906h8.756v70.814c0,1.232,8.754,2.285,8.754,2.285s8.754-1.053,8.754-2.285v-70.814H408.9
				c1.051,0,2.1-7.73,2.1-7.73S409.951,301.205,408.9,301.205z"/>
		</defs>
		<clipPath id="SVGID_50_">
			<use xlink:href="#SVGID_49_"  overflow="visible"/>
		</clipPath>
		<g clip-path="url(#SVGID_50_)">
			<defs>
				<rect id="SVGID_51_" x="385.002" y="260.129" width="34.998" height="144.352"/>
			</defs>
			<clipPath id="SVGID_52_">
				<use xlink:href="#SVGID_51_"  overflow="visible"/>
			</clipPath>
			
				<rect x="382.5" y="257.625" opacity="0.2" clip-path="url(#SVGID_52_)" fill-rule="evenodd" clip-rule="evenodd" fill="#010101" width="40.002" height="149.359"/>
		</g>
	</g>
	<g>
		<defs>
			<path id="SVGID_53_" d="M163.594,340.324h-23.787c-0.61,0-1.807,7.434-1.807,7.434s1.196,7.602,1.807,7.602h23.787
				c0.61,0,1.907-7.432,1.907-7.432S164.204,340.324,163.594,340.324z"/>
		</defs>
		<clipPath id="SVGID_54_">
			<use xlink:href="#SVGID_53_"  overflow="visible"/>
		</clipPath>
		
			<rect x="135.5" y="337.818" clip-path="url(#SVGID_54_)" fill-rule="evenodd" clip-rule="evenodd" fill="#989898" width="32.502" height="20.049"/>
	</g>
	<g>
		<defs>
			<path id="SVGID_55_" d="M163.594,340.324h-23.787c-0.61,0-1.807,7.434-1.807,7.434s1.196,7.602,1.807,7.602h23.787
				c0.61,0,1.907-7.432,1.907-7.432S164.204,340.324,163.594,340.324z"/>
		</defs>
		<clipPath id="SVGID_56_">
			<use xlink:href="#SVGID_55_"  overflow="visible"/>
		</clipPath>
		<g clip-path="url(#SVGID_56_)">
			<defs>
				<rect id="SVGID_57_" x="152.001" y="340.324" width="18.5" height="15.035"/>
			</defs>
			<clipPath id="SVGID_58_">
				<use xlink:href="#SVGID_57_"  overflow="visible"/>
			</clipPath>
			
				<rect x="149.501" y="337.818" opacity="0.2" clip-path="url(#SVGID_58_)" fill-rule="evenodd" clip-rule="evenodd" fill="#010101" width="23.5" height="20.049"/>
		</g>
	</g>
</g>
</svg>
