<?xml version="1.0" encoding="UTF-8" standalone="no"?>
<svg width="36px" height="36px" viewBox="0 0 36 36" version="1.1" xmlns="http://www.w3.org/2000/svg" xmlns:xlink="http://www.w3.org/1999/xlink" xmlns:sketch="http://www.bohemiancoding.com/sketch/ns">
    <!-- Generator: Sketch 3.2.2 (9983) - http://www.bohemiancoding.com/sketch -->
    <title>Artboard 1</title>
    <desc>Created with Sketch.</desc>
    <defs></defs>
    <g id="Page-1" stroke="none" stroke-width="1" fill="none" fill-rule="evenodd" sketch:type="MSPage">
        <g id="Artboard-1" sketch:type="MSArtboardGroup" fill="#ECECE9">
            <g id="Imported-Layers" sketch:type="MSLayerGroup" transform="translate(1.000000, 1.000000)">
                <path d="M32.5428571,7.12297297 C32.4758286,7.05864865 32.4088,6.99621622 32.3378857,6.93756757 C32.0484,6.69256757 31.7346286,6.48162162 31.3975429,6.32932432 L19.4489714,0.927027027 C18.1365714,0.334864865 16.0169143,0.330135135 14.7054857,0.918513514 L2.60925714,6.33310811 C2.18862857,6.5222973 1.802,6.79945946 1.45714286,7.1277027 C0.581885714,7.96013514 0,9.15297297 0,10.2937838 L0,23.817027 C0,24.9568919 0.581885714,26.1478378 1.45714286,26.9793243 C1.79617143,27.3018919 2.17502857,27.5733784 2.58691429,27.7616216 C2.5976,27.7663514 2.60634286,27.772973 2.61702857,27.7777027 L9.22857143,30.73 L9.22857143,27.6083784 L3.83131429,25.1990541 C3.37668571,24.9956757 2.91428571,24.2985135 2.91428571,23.817027 L2.91428571,10.2937838 C2.91428571,9.8122973 3.37474286,9.11418919 3.82742857,8.91175676 L15.9226857,3.49621622 C16.1937143,3.37513514 16.6201714,3.30324324 17.0650857,3.30324324 C17.5138857,3.30324324 17.9471429,3.37702703 18.2210857,3.50094595 L30.1706286,8.90324324 C30.6233143,9.10756757 31.0857143,9.81040541 31.0857143,10.2937838 L31.0857143,23.817027 C31.0857143,24.2975676 30.6223429,24.9956757 30.1667429,25.1981081 L24.7714286,27.6036486 L24.7714286,30.7252703 L31.3810286,27.7777027 C31.3907429,27.772973 31.4004571,27.7663514 31.4101714,27.7616216 C31.7424,27.6102703 32.0522857,27.405 32.3378857,27.1637838 C32.4088,27.1041892 32.4758286,27.0417568 32.5428571,26.9774324 C33.4181143,26.145 34,24.9559459 34,23.817027 L34,10.2937838 C34,9.15202703 33.4181143,7.9572973 32.5428571,7.12297297" id="Fill-1" sketch:type="MSShapeGroup"></path>
                <path d="M25.0589714,22.8048649 L27.2223429,20.7162162 C27.3952571,20.5345946 27.4817143,20.3378378 27.4817143,20.1259459 C27.4817143,19.9140541 27.3952571,19.7248649 27.2223429,19.5583784 L17.4857143,10.1594595 C17.3128,10.0081081 17.1175429,9.93243243 16.898,9.93243243 C16.6784571,9.93243243 16.4822286,10.0081081 16.3093143,10.1594595 L6.57268571,19.5583784 C6.40074286,19.7248649 6.31428571,19.9140541 6.31428571,20.1259459 C6.31428571,20.352973 6.40074286,20.5497297 6.57268571,20.7162162 L8.73702857,22.8048649 C8.88954286,22.9278378 9.05565714,22.9874324 9.22857143,23.0101351 C9.2684,23.0158108 9.30725714,23.0318919 9.34805714,23.0318919 C9.5676,23.0318919 9.76382857,22.9562162 9.93577143,22.8048649 L15.0571429,17.8452703 L15.0571429,33.5782432 C15.0571429,34.1108108 15.4962286,34.527027 16.0373143,34.527027 L17.9626857,34.527027 C18.5125143,34.527027 18.9428571,34.1022973 18.9428571,33.5782432 L18.9428571,18.042973 L23.8,22.7471622 L23.8592571,22.8048649 C24.0156571,22.9562162 24.2118857,23.0318919 24.4469714,23.0318919 C24.5625714,23.0318919 24.6713714,23.012973 24.7714286,22.9760811 C24.8753714,22.9382432 24.9715429,22.8814865 25.0589714,22.8048649" id="Fill-2" sketch:type="MSShapeGroup"></path>
            </g>
        </g>
    </g>
</svg>