<?xml version="1.0" encoding="UTF-8" standalone="no"?>
<svg width="50px" height="44px" viewBox="0 0 50 44" version="1.1" xmlns="http://www.w3.org/2000/svg" xmlns:xlink="http://www.w3.org/1999/xlink" xmlns:sketch="http://www.bohemiancoding.com/sketch/ns">
    <!-- Generator: Sketch 3.3.2 (12043) - http://www.bohemiancoding.com/sketch -->
    <title>heroku-data-postgres</title>
    <desc>Created with Sketch.</desc>
    <defs></defs>
    <g id="Page-1" stroke="none" stroke-width="1" fill="none" fill-rule="evenodd" sketch:type="MSPage">
        <g id="heroku-data-postgres" sketch:type="MSLayerGroup" transform="translate(-7.000000, -10.000000)">
            <path d="M6,64 C2.686,64 0,61.313 0,58 L0,6 C0,2.686 2.686,0 6,0 L58,0 C61.314,0 64,2.686 64,6 L64,58 C64,61.313 61.314,64 58,64 L6,64 Z" id="Background" sketch:type="MSShapeGroup"></path>
            <path d="M28.5,34.887 C17.5,34.887 8.928,24.984 8.928,18.656 C8.928,13.564 17.5,11.973 28.5,11.973 L28.5,34.887 L28.5,34.887 Z" id="Fill-2" fill="#FFFFFF" sketch:type="MSShapeGroup"></path>
            <path d="M28.5,34.887 C17.5,34.887 8.928,24.984 8.928,18.656 C8.928,13.564 17.5,11.973 28.5,11.973 L28.5,34.887 L28.5,34.887 Z" id="Stroke-3" stroke="#FFFFFF" stroke-width="3" stroke-linecap="round" stroke-linejoin="round" sketch:type="MSShapeGroup"></path>
            <path d="M35.5,34.887 C46.5,34.887 55.072,24.984 55.072,18.656 C55.072,13.564 46.5,11.973 35.5,11.973 L35.5,34.887 L35.5,34.887 Z M35.5,12 L35.5,48.526 C35.5,52.059 31.228,53.829 28.729,51.33" id="Stroke-4" stroke="#FFFFFF" stroke-width="3" stroke-linecap="round" stroke-linejoin="round" sketch:type="MSShapeGroup"></path>
        </g>
    </g>
</svg>