<?xml version="1.0" encoding="UTF-8" standalone="no"?>
<svg width="38px" height="44px" viewBox="0 0 38 44" version="1.1" xmlns="http://www.w3.org/2000/svg" xmlns:xlink="http://www.w3.org/1999/xlink" xmlns:sketch="http://www.bohemiancoding.com/sketch/ns">
    <!-- Generator: Sketch 3.3.2 (12043) - http://www.bohemiancoding.com/sketch -->
    <title>heroku-data-redis</title>
    <desc>Created with Sketch.</desc>
    <defs></defs>
    <g id="Page-1" stroke="none" stroke-width="1" fill="none" fill-rule="evenodd" sketch:type="MSPage">
        <g id="heroku-data-redis" sketch:type="MSLayerGroup" transform="translate(-13.000000, -10.000000)">
            <path d="M58,64 L6,64 C2.686,64 0,61.313 0,58 L0,6 C0,2.686 2.686,0 6,0 L58,0 C61.314,0 64,2.686 64,6 L64,58 C64,61.313 61.314,64 58,64" id="Background" sketch:type="MSShapeGroup"></path>
            <path d="M28.5,30 L15.135,52.5 L28.5,52.5 L28.5,30 L28.5,30 Z" id="Fill-2" fill="#FFFFFF" sketch:type="MSShapeGroup"></path>
            <path d="M28.5,30 L15.135,52.5 L28.5,52.5 L28.5,30 L28.5,30 Z" id="Stroke-3" stroke="#FFFFFF" stroke-width="3" stroke-linecap="round" stroke-linejoin="round" sketch:type="MSShapeGroup"></path>
            <path d="M28.5,34.887 C21.5,34.887 17.043,29.757 17.043,23.43 C17.043,17.102 21.5,11.973 28.5,11.973 L28.5,34.887 L28.5,34.887 Z" id="Fill-4" fill="#FFFFFF" sketch:type="MSShapeGroup"></path>
            <path d="M28.5,34.887 C21.5,34.887 17.043,29.757 17.043,23.43 C17.043,17.102 21.5,11.973 28.5,11.973 L28.5,34.887 L28.5,34.887 Z" id="Stroke-5" stroke="#FFFFFF" stroke-width="3" stroke-linecap="round" stroke-linejoin="round" sketch:type="MSShapeGroup"></path>
            <path d="M39.732,34.438 L48.864,52.5 M35.5,34.887 C42.5,34.887 46.957,29.757 46.957,23.43 C46.957,17.102 42.5,11.973 35.5,11.973" id="Stroke-6" stroke="#FFFFFF" stroke-width="3" stroke-linecap="round" stroke-linejoin="round" sketch:type="MSShapeGroup"></path>
        </g>
    </g>
</svg>