<?xml version="1.0" encoding="utf-8"?>
<!-- Generator: Adobe Illustrator 18.0.0, SVG Export Plug-In . SVG Version: 6.00 Build 0)  -->
<!DOCTYPE svg PUBLIC "-//W3C//DTD SVG 1.1//EN" "http://www.w3.org/Graphics/SVG/1.1/DTD/svg11.dtd">
<svg version="1.1" id="Layer_1" xmlns="http://www.w3.org/2000/svg" xmlns:xlink="http://www.w3.org/1999/xlink" x="0px" y="0px"
	 viewBox="0 0 25 25" enable-background="new 0 0 25 25" xml:space="preserve">
<path d="M25,24.2c0,0.4-0.4,0.8-0.8,0.8H0.8C0.4,25,0,24.6,0,24.2v-4.7c0-0.4,0.4-0.8,0.8-0.8h23.4c0.4,0,0.8,0.4,0.8,0.8V24.2z
	 M25,10.2c0-0.4-0.4-0.8-0.8-0.8H0.8C0.4,9.4,0,9.7,0,10.2v4.7c0,0.4,0.4,0.8,0.8,0.8h23.4c0.4,0,0.8-0.4,0.8-0.8V10.2z M25,0.8
	C25,0.4,24.6,0,24.2,0H0.8C0.4,0,0,0.4,0,0.8v4.7c0,0.4,0.4,0.8,0.8,0.8h23.4c0.4,0,0.8-0.4,0.8-0.8V0.8z"/>
</svg>
