<svg class="icon" viewBox="0 0 19 12"><path d="M9.5,7.5c1.6,0,3-1.3,3-3V3c0-1.7-1.3-3-3-3c-1.6,0-3,1.3-3,3v1.5C6.5,6.2,7.9,7.5,9.5,7.5z"/><path d="M15.4,7.5c1,0,1.8-0.8,1.8-1.8V4.8c0-1-0.8-1.8-1.8-1.8c-1,0-1.8,0.8-1.8,1.8v0.9C13.7,6.7,14.5,7.5,15.4,7.5z"/><path d="M18.8,8.9c-0.1,0-1.9-0.9-3.3-0.9c-1.1,0-2.5,0.6-3.1,0.8c-0.9-0.3-2-0.5-2.9-0.5c-0.9,0-2,0.2-2.9,0.5C6,8.5,4.7,7.9,3.6,7.9c-1.4,0-3.2,0.9-3.3,0.9C0.1,9,0,9.1,0,9.3v0.4c0,0.2,0.2,0.4,0.4,0.4h3.2c0,0.1-0.1,0.2-0.1,0.3v0.8c0,0.4,0.3,0.8,0.7,0.8h10.4c0.4,0,0.7-0.3,0.7-0.8v-0.8c0-0.1,0-0.2-0.1-0.3h3.2c0.2,0,0.4-0.2,0.4-0.4V9.3C19,9.1,18.9,9,18.8,8.9z"/><path d="M3.6,7.5c1,0,1.8-0.8,1.8-1.8V4.8c0-1-0.8-1.8-1.8-1.8c-1,0-1.8,0.8-1.8,1.8v0.9C1.8,6.7,2.6,7.5,3.6,7.5z"/></svg>