<?xml version="1.0"?>

<svg width="98" height="94" viewBox="0 0 98 94" version="1.1" xmlns="http://www.w3.org/2000/svg" xmlns:xlink="http://www.w3.org/1999/xlink">
    
    <title>logo_kafka</title>
    <desc>Created with Sketch.</desc>
    <defs></defs>
    <g id="Page-1" stroke="none" stroke-width="1" fill="none" fill-rule="evenodd">
        <g id="www-kafka" transform="translate(-650.000000, -120.000000)">
            <g id="hero" transform="translate(-287.000000, -68.000000)">
                <g id="copy" transform="translate(443.000000, 190.000000)">
                    <g id="logo_kafka" transform="translate(496.000000, 0.000000)">
                        <path d="M55,0.255942857 L55,89.9345143" id="Stroke-1" stroke="#FFFFFF" stroke-width="4" stroke-linecap="round" stroke-linejoin="round"></path>
                        <path d="M39.5671636,41.4336857 L8.23175455,26.6466857" id="Stroke-3" stroke="#FFFFFF" stroke-width="4" stroke-linecap="round" stroke-linejoin="round"></path>
                        <path d="M8.23219545,63.3923143 L39.7197182,47.7793857" id="Stroke-5" stroke="#FFFFFF" stroke-width="4" stroke-linecap="round" stroke-linejoin="round"></path>
                        <path d="M0.102272727,63.3923143 C0.102272727,67.9028143 3.74197727,71.5586 8.23263636,71.5586 C12.7232955,71.5586 16.363,67.9028143 16.363,63.3923143 C16.363,58.8818143 12.7232955,55.2260286 8.23263636,55.2260286 C3.74197727,55.2260286 0.102272727,58.8818143 0.102272727,63.3923143" id="Fill-7" fill="#FFFFFF"></path>
                        <path d="M0.102272727,63.3923143 C0.102272727,67.9028143 3.74197727,71.5586 8.23263636,71.5586 C12.7232955,71.5586 16.363,67.9028143 16.363,63.3923143 C16.363,58.8818143 12.7232955,55.2260286 8.23263636,55.2260286 C3.74197727,55.2260286 0.102272727,58.8818143 0.102272727,63.3923143 L0.102272727,63.3923143 Z" id="Stroke-9" stroke="#FFFFFF" stroke-width="4" stroke-linecap="round" stroke-linejoin="round"></path>
                        <path d="M0.102272727,26.6460214 C0.102272727,31.1565214 3.74197727,34.8123071 8.23263636,34.8123071 C12.7232955,34.8123071 16.363,31.1565214 16.363,26.6460214 C16.363,22.1355214 12.7232955,18.4797357 8.23263636,18.4797357 C3.74197727,18.4797357 0.102272727,22.1355214 0.102272727,26.6460214" id="Fill-11" fill="#FFFFFF"></path>
                        <path d="M0.102272727,26.6460214 C0.102272727,31.1565214 3.74197727,34.8123071 8.23263636,34.8123071 C12.7232955,34.8123071 16.363,31.1565214 16.363,26.6460214 C16.363,22.1355214 12.7232955,18.4797357 8.23263636,18.4797357 C3.74197727,18.4797357 0.102272727,22.1355214 0.102272727,26.6460214 L0.102272727,26.6460214 Z" id="Stroke-13" stroke="#FFFFFF" stroke-width="4" stroke-linecap="round" stroke-linejoin="round"></path>
                        <path d="M39.8795477,16.4388286 C35.3888886,16.4388286 31.7491841,12.7830429 31.7491841,8.27254286 C31.7491841,3.76204286 35.3888886,0.106257143 39.8795477,0.106257143 L39.8795477,16.4388286 Z" id="Fill-15" fill="#FFFFFF"></path>
                        <path d="M39.8795477,16.4388286 C35.3888886,16.4388286 31.7491841,12.7830429 31.7491841,8.27254286 C31.7491841,3.76204286 35.3888886,0.106257143 39.8795477,0.106257143 L39.8795477,16.4388286 L39.8795477,16.4388286 Z" id="Stroke-17" stroke="#FFFFFF" stroke-width="4" stroke-linecap="round" stroke-linejoin="round"></path>
                        <path d="M39.8795477,73.5995071 C35.3888886,73.5995071 31.7491841,77.2552929 31.7491841,81.7657929 C31.7491841,86.2762929 35.3888886,89.9320786 39.8795477,89.9320786 L39.8795477,73.5995071 Z" id="Fill-19" fill="#FFFFFF"></path>
                        <path d="M39.8795477,73.5995071 C35.3888886,73.5995071 31.7491841,77.2552929 31.7491841,81.7657929 C31.7491841,86.2762929 35.3888886,89.9320786 39.8795477,89.9320786 L39.8795477,73.5995071 L39.8795477,73.5995071 Z" id="Stroke-21" stroke="#FFFFFF" stroke-width="4" stroke-linecap="round" stroke-linejoin="round"></path>
                        <path d="M39.8513295,61.0391929 C33.5154659,58.5038357 29.0402386,52.2861214 29.0402386,45.0188357 C29.0402386,37.7958357 33.4647614,31.6091214 39.7388977,29.0449786 L39.8513295,61.0391929 Z" id="Fill-23" fill="#FFFFFF"></path>
                        <path d="M39.8513295,61.0391929 C33.5154659,58.5038357 29.0402386,52.2861214 29.0402386,45.0188357 C29.0402386,37.7958357 33.4647614,31.6091214 39.7388977,29.0449786 L39.8513295,61.0391929 L39.8513295,61.0391929 Z" id="Stroke-25" stroke="#FFFFFF" stroke-width="4" stroke-linecap="round" stroke-linejoin="round"></path>
                        <path d="M55.3113659,40.7200214 L93.9283886,22.6758071" id="Stroke-27" stroke="#FFFFFF" stroke-width="4" stroke-linecap="round" stroke-linejoin="round"></path>
                        <path d="M93.9286091,67.5148714 L55.3115864,48.4631571" id="Stroke-29" stroke="#FFFFFF" stroke-width="4" stroke-linecap="round" stroke-linejoin="round"></path>
                    </g>
                </g>
            </g>
        </g>
    </g>
</svg>
